<mxfile host="app.diagrams.net" modified="2024-02-02T20:01:31.751Z" agent="Mozilla/5.0 (Windows NT 10.0; Win64; x64) AppleWebKit/537.36 (KHTML, like Gecko) Chrome/120.0.0.0 Safari/537.36" etag="ksCIM4I7JSrq_tv_WjnV" version="23.1.1" type="onedrive" pages="2">
  <diagram name="Strona-1" id="CAUHRoW0_xVIL6dopA_E">
    <mxGraphModel grid="1" page="1" gridSize="18" guides="1" tooltips="1" connect="1" arrows="1" fold="1" pageScale="1" pageWidth="1169" pageHeight="827" math="0" shadow="0">
      <root>
        <mxCell id="0" />
        <mxCell id="1" parent="0" />
        <mxCell id="siqkBxoQWDWRZE22Vv_f-14" value="" style="shape=ext;double=1;rounded=0;whiteSpace=wrap;html=1;fillColor=#dae8fc;strokeColor=#6c8ebf;" vertex="1" parent="1">
          <mxGeometry x="198" y="217.38" width="396" height="138.25" as="geometry" />
        </mxCell>
        <mxCell id="GzrLG4WQ329eXlrZaxkY-27" value="&amp;nbsp; https://ourworldindata.org/co2-emissions" style="shape=ext;double=1;rounded=0;whiteSpace=wrap;html=1;fillColor=#dae8fc;strokeColor=#6c8ebf;" vertex="1" parent="1">
          <mxGeometry x="198" y="24.75" width="396" height="138.25" as="geometry" />
        </mxCell>
        <mxCell id="siqkBxoQWDWRZE22Vv_f-12" value="do uzupeÅ‚nienia ????" style="shape=ext;double=1;rounded=0;whiteSpace=wrap;html=1;fillColor=#dae8fc;strokeColor=#6c8ebf;" vertex="1" parent="1">
          <mxGeometry x="306" y="637.5" width="324" height="122.5" as="geometry" />
        </mxCell>
        <mxCell id="siqkBxoQWDWRZE22Vv_f-17" value="" style="edgeStyle=orthogonalEdgeStyle;rounded=0;orthogonalLoop=1;jettySize=auto;html=1;strokeWidth=5;fillColor=#1ba1e2;strokeColor=#006EAF;" edge="1" parent="1" source="GzrLG4WQ329eXlrZaxkY-2">
          <mxGeometry relative="1" as="geometry">
            <mxPoint x="120" y="216" as="targetPoint" />
            <Array as="points">
              <mxPoint x="120" y="198" />
              <mxPoint x="121" y="198" />
            </Array>
          </mxGeometry>
        </mxCell>
        <mxCell id="GzrLG4WQ329eXlrZaxkY-2" value="&lt;font style=&quot;font-size: 16px;&quot;&gt;source www&lt;/font&gt;" style="rounded=0;whiteSpace=wrap;html=1;rotation=-90;fillColor=#dae8fc;strokeColor=#6c8ebf;strokeWidth=3;fontStyle=1" vertex="1" parent="1">
          <mxGeometry x="60" y="55" width="120" height="60" as="geometry" />
        </mxCell>
        <mxCell id="GzrLG4WQ329eXlrZaxkY-7" value="" style="shape=image;html=1;verticalAlign=top;verticalLabelPosition=bottom;labelBackgroundColor=#ffffff;imageAspect=0;aspect=fixed;image=https://cdn1.iconfinder.com/data/icons/nuove/128x128/filesystems/www.png" vertex="1" parent="1">
          <mxGeometry x="150" y="20" width="120" height="120" as="geometry" />
        </mxCell>
        <mxCell id="GzrLG4WQ329eXlrZaxkY-12" value="&lt;font style=&quot;font-size: 16px;&quot;&gt;source csv&lt;/font&gt;" style="rounded=0;whiteSpace=wrap;html=1;rotation=-90;fillColor=#dae8fc;strokeColor=#6c8ebf;strokeWidth=3;fontStyle=1" vertex="1" parent="1">
          <mxGeometry x="60" y="271" width="120" height="60" as="geometry" />
        </mxCell>
        <mxCell id="siqkBxoQWDWRZE22Vv_f-19" value="" style="edgeStyle=orthogonalEdgeStyle;rounded=0;orthogonalLoop=1;jettySize=auto;html=1;fillColor=#1ba1e2;strokeColor=#006EAF;strokeWidth=5;" edge="1" parent="1" source="GzrLG4WQ329eXlrZaxkY-14">
          <mxGeometry relative="1" as="geometry">
            <mxPoint x="340" y="287.5" as="targetPoint" />
          </mxGeometry>
        </mxCell>
        <mxCell id="GzrLG4WQ329eXlrZaxkY-14" value="" style="shape=image;verticalLabelPosition=bottom;labelBackgroundColor=default;verticalAlign=top;aspect=fixed;imageAspect=0;image=data:image/png,iVBORw0KGgoAAAANSUhEUgAAAOEAAADhCAMAAAAJbSJIAAAAxlBMVEX////Y3+Mfs1uvvccZgEPI6tQZslgis1zA2tIxuWnW3uLv8vTh4uoAsE+z1cfd4+cmtmNGu3b3+PlpzJFVvX7P193G1NIOsVSAyJ8AfTuRzKzp9O4Adi3R3t/P3d1sxJI7kV/i9uqi0brH29Zjv4aJy6es08FRvXy9ydHm6u14xpkdplWazrM7uGxfwYeQza23xM3Ez9XE3c5tr4hfpHsliE7h7uadya8xklcroVgXlkwaiUcZhkWY3LOL1qnW8OC15ciP06Z7SeS9AAAJ+UlEQVR4nO2da2ObOBaGa7w9XIrBpM6KumtoTIwbBux2Zrq7M51e5v//qcVIwsJcghJLEFbvhySOhdHDkXSODhJ+9UpJSUlJSUlJSUlJSUlJSalJNzdvJOjhYTC+hwd3ZonW7Hb+yR0G8I07kyJrPv80iBUf5PAVhPOPb+QDvpEFWBDOP9/IBryx5BLOLdmEkvrgmXAuuSveyAOkhJ/kdkV5vbAknH+WSihtIGUI57cyCV15A82ZUGpXHIbwk0SXIXEoZQhldsVhbCizKw5FKC8GH4pQXoA6GKG0AHU4QlkB6oCEkrziQN4CS0o7HdKG84+TJ5TSFYcllJG2GZZQhlccmFCCVxyacD4TTigPsJlQuFcc3IbCveIICAV7xREQCvaKYyAU2xVHQSjUK46CUKhXHAehyK44EkKBXXEshOK6olTCTx2IwrqiTMJZF6GwriiV8GMXoaiuKJXwtpNQ0M0MqYTdzVTQzQy5hN1GFHMzo5PQMhw+GZtHED93t1MRNzO6CDfpcsGn5e55iCK8Ygehu12CxidA6SOEs9vOvnh7/dGmy4YhL2CO6D1GOLM+f2yHFLBOo4vwHvETmo8S5oy3rbKk2tBN+G2Iwh6EHXLlttJoD7zKohdFOLP8FZ/84HmA0glnrs2pZwLKJ5QuRagI/z8Jh2aqStlQESrC4aUIFWET4dBMVUmfWwScmageuaqoO9SXS2hteTNRPaTvumZYcgmfkInqk+dA646LKtmGT8hE9UH0OvIAkgmfkInqQ9iV6ZBLaD8hE9VD6L6jI0q2oZEh7lTUo0JLp/2M8r1F4l1dodHlgqXHNLyJqGcnq1TUpggV4fBShIpQEQ4vRagIFeHwkk8YGVdWdyJKOqGITJTWuWxKciYqFpOJSlUmSh6hykQ9TegwukyUBuVP5s/6z37/Rsu4/YxXI3x/VuedmSA0l1eWeehKtV2D8ObX3979i9E/u873EjNRv/7+7t0/GL3rJpSuZxPGHyp80yN0vlwATo3w35cWnBzhbzXAiRG+rwNOjPA/kyf8ffKEH+qAEyP8MnnC6dvwv5Mn/GPyhMvpE/45eUL969QJ4Zca4tQItRri5Ai1X/68JBzXEtrnE2qa/sfXr3/99eUDkXPtGxPP1B3W+2cQUumFyK8RyvvGTyniLoQ4AYLvvIwvi1A7Zcd/TJxQQ3s+xJdHqKG3UyfU0M+pE0I2dUJtcTd1QvRt8oTfJ0/IM5q+SEJQhIpw9FKEzyMs1ocwv5uL1Iq3va6+p/WrjUhCAHN/n/i5kuTeW6KGo0H3cIlCSbgyGSZ9nx+nt3y4l/j35rCEoO39rWGRFSKBkyZZ7XDY75wNu44k2iZmWepguHawbjwnrBzX3qRt+FIIkZcaFpukcjdOctGwUGJcJpLsIPbwYjgwndPKGffQtDYOjGJVTdhj3ZwowkXSsLouiJdslRaNW5ZdAyPCHi8NchooYFW858aLoQgB0uZVrqT2hVDYshLWKBoqJQy8+lkXsTssIbSvrYvK+oLXusIwLgjJGksrrRkRTLxa0B6qlYK5ZetbfM8t0wbJh8CWLWCxpaKi5voOd2OjNkKhIy4XmD0qJIJQP5Z1DYw4Xa/XaXx+aucWVws8MsoEzpoqH5vwZUiLEits5CC5tNQSW9c+DjSWwj0dZII4ydACneTt6LAZ4KXRKCH193VUyosxonMydN4UsBHjZfUEKMSHWoc+9bk+IWQxcRJRYpZeHmBPau/GRatDa/yq8tgFtMLXwSjqDgk+Irp0GFv2gwYgvKe96VBxfzk56XaFEQEbyPLZ2oMZMx0RPLJWdl09AbkMM79HbUQQ6qRtBfcXpekS+9xsp5e42KbaycjBARkkydNanYrDoI/FMPb9Os21CSEjbfRYG8mRT1rdqXURG878DkJEezS7Ip62BbtXzCaAECXEUev1wjqusHOKmMnTdO208qGQkgaO/6nHxOqMWwASKER9nKEIwgW2gl034Ykem+108ZFPK8rOkIjVKBEtFKzOZcwUX8K4jzMUQkh8VWMngdSIjHWGgzI8XriG77FTRN+JjC09GDJcyN6VLRJW+ASbXc/dKtcnxFfYbukkq3BFP4VGdpazPpwnj+CdS5RtmYlrdB+fwGgIV+UQIrJZoOUKn2ft7M4XI/YzyliZ18OeRKB0YM7nVPiQbe9ZwNXHUky4ebwNwXF21iZKV4uGj0cEKCafBwdSvnHaODJCDeLK5hDLOaBapgOFpNWTcQVSEo73nqoOSagtLjYS2sHOu3QyCI+mZGwGk1yUnq5iaMI88rz4pgDbSi8GYXSk/rV4RcYZq5+3H55QQ6YfV3M1dlTd0gcetrOFQ1Xii9Iek/txEGqAlqu1M2NTVlYVcUmmKg6cxl9cxO0Xko6CUCsmVsl2www6QWXrKYSYMMrjGkR8qNO/kYrzh6057oa/AbLVLjozOmxARpMBVopoaodrb6rkmAaBqVEDwWKpL0o3r5v3jk0a66Yy4dB3JK2YLXZkctI3nhFDSMaCxkog37WtHU5K5BNZ22am6QAoI8kpt5K3QAcSifpLEqUel5cfLJWwa25RuG+7mFvAIXJPLJUGCcRIDjuS0HyNuyVfK7DplZ8RRkjnh1G9MJAcWZHxpTPBSiaA5i2q/y0nWiRH0C8/I4yw/BaV+uymMsdvzmKQVHJQCVnKfA3xJj7XLbDr52lovju6fNwAHRRJL+uTp6FHVqK7nvkZcYRAYuWZsapW09ySdGKIa92Qa6OX5+Lq0LEGK+XhE5wvDZmpAqKpftfB+VLcD901G2qjPZsvZcQ00775GXGEZaooV+xp5JGcekjNQIIyRAfGkHlwp9mYPjwNX+cA3eFxFWIIcxdNu41rG0c/DMNkHZQRS3px32K2Dal8w25piMuymVajgYEIIWPuPeHb1+fI2tnT2TotdP4qGlqq3hAX6/I9LlchiDC3T+X2GiujHENg3/oMlm0t5CvzzLMt7wNhBN0Dzpq/Pc02mPQKJG1XoemuLx1r+FyFMMI8fPEDu1Z1e1upO+yaHuJhR6uG09B8jcH9TB9RKxVA81KrCmAbYTVNDXqyqTHal+MoKYvHml73teUQnhgzP3Jp93FnTrisrXDKW3NlRcrMjcKWk8Bh4+aNgLeNiiQ8ZSgW5sE/rtP1Ltlri8Y1UUhbJccUa70LM9RqI8j8XVP7fbQWYlfu5ZM+rPYjATHqOgF0v916mFqbqAhHL0WoCMcvrv0WvGH9KMS1Z4Y76h2DuPY9fRPyKEvBWvDsIr3rf09rNAKTA/DVq7cvr5kufnIR3j0pMhxSyOPcsP66fYvHKAUZzw7SQj+zF8QIwLlZHVvx7VLANxwJEcq+c1vwpPc//1555uiVeW+/vX4KX6G7H6/Hrx9Psp+SkpKSkpKSkpKSkpKS0sT0Py9QrZ+Mji9OAAAAAElFTkSuQmCC;" vertex="1" parent="1">
          <mxGeometry x="160" y="237.5" width="100" height="100" as="geometry" />
        </mxCell>
        <mxCell id="GzrLG4WQ329eXlrZaxkY-15" value="" style="shape=image;verticalLabelPosition=bottom;labelBackgroundColor=default;verticalAlign=top;aspect=fixed;imageAspect=0;image=data:image/png,iVBORw0KGgoAAAANSUhEUgAAASwAAACoCAMAAABt9SM9AAAAw1BMVEX///83Za8zaJ4FLTozaJ0FLDoAKjU0aqH5+vzj6vEwZp0kYZo0Y64vYK0AKzY7b6InXKuWqtBYfbt9l8fs8PctYJAwZJghWarh5/Pz9vo8arIqXIm6yOHG0uciX5mywt6nuNjI1eNnhr5UfqwTPVags9aDoMHW3+62x9oJMkOkttjF0+JQd7goWIIcR2WkudGGn8xtjMKWrsofTG9Id6gdSWtvkLZghrB6mbzX4eslVHoQOU1+nL8XQVsLWJZ/mskMUqh5+v9LAAAYKElEQVR4nO1dC3eiSrNVRNEGFA2+FU00UScaY2Ji1DzO//9VXz+hG5qHCpm567rXOTMRnVH3VFdX164qcrkrrrjiiiuuuOKKK6644oorrrjiiiuu+P+Fbmf453nTWPaWjZ/xsFL+25/n30VnvOmZlmWaBgL8yVjejGdXwoLo3C8hT4aR50AY24w6f/vDxaHs4RfebbgxLYEnjjHTMu/G/yJf9v52vn75fN9NtttaTYOobbeT3fvHw3r+uLcz4m2whDYlp4pamGVuhtm891no7ucPu60GdN3RdYChYOAfdXxZ2e4e1rd2yu88bIQZlWBf7eXon3BflfnDRHEcyJFCKdIEMNYUgLmcfM73qX3uziYBVYQvazlK613PRPf2YQIgTwojSVFbzX5/tTocDq8Qh8Nq1e83W6rCeIOMOWD7+dhN4d3L95aZjCpMV3v5Fxdj+fahRomCRLSaq9en6XFRqJb8qFYLx+nT66rfUhFhaGE6yvvFfM2WSc3Kta5N2l4gIbrrCXRPCoBEqc3D07FQQLSUCgjFAkGR/VDAFELOvl77LbIydaf2UrnkA9yfSBWCaf6NtWi/AAcQol6nBWw8PEt+qnjOqkdKGHRhn2fTZd+dwRVai79vXPOajhaf0n86VkvVACUSlgqCkS2eViqyL115Oc/Z3/ZO8FaicRm/67nsHbaq1uuiJC479gO0qSJ7WCzIyKuWFm9NZF7OZH/GJxidZVbUuKx66oyEY791IFXNp0JJYkCiKRXRf7LlCFEqfDWxu388+RM8X8AVYuvu15ZiRQNAU9/gly3ytBQlnMityr1YrX61NOi6TmSrvGlfQBWC2Ztlw03go050aFaLkrDuOEp8BIXyRa1rBdnSTvqH7jbOdVeccf3Srjh3FK1fqBIiigXPOQUtR25P4sPSQVP0hxPe315ezhXaFZ8zY4jDDigtKR/xF6So9qHfSv72lVS4grA2aRwiolGuAe3g8+xF4sTd//yURbJWeoKmlTjc6uRT4go5rswzN4isVUlCQ8BrFQMvkZP1egJZnd4l26APRuYRV7mmKOqRM61iZAgauxRLhZaSmKyOkSJXEFlHXNCyFKV1LLHwM8CRaGGSVwkPqoW+pqgJyUrVrjAydvOYLKX15R1yEu18YXZ1bOJTTyKy0ucK2tZN9mQp2uqI6ZJwkowmTNXiQBJhiciqnH0cjGRrk2EGlZKlaOrhKDlCJwc8Hb62tORkpRNfBWHeZRdCIAePoKKcw1fhTL6qpeqU5B2SktXNiCvI1jKzkyKzLIDo0lqrr0VVSD1EH28w4OunB5oCVPH/8WSV77LiKku2GFmUMchX/+1YdXOkDNIAjOb+nlYtTVN4xJOVIVcZhqeQLACEbwoJU1BeGWffq1UJRSi/gJLKi+PXASVJNWJRHuexZN1YGXKVHVvYsgAxK+9/olj0D1iyqFarolpROE6/Xg/9ZstTxkTEkZUxVyiY97G1PyclKSEL08McFxVSsS6oMJ1QbTabfYpms+U9EYYYsp4vzV8lYCsvZLgev53bVMjiVqFrWN4vbGkigkAUQcnJGmVtV5gtwbbW39/rdMjCZqTruqJQCTrgxVRqbegH1UejBNE+6/aiHHJytnjb6j6cKaT4ycJsgM/5A8BEKN4vhCjCjMq7cMGd+6DGWJadwSFHzpbMy9vrS7RN4rP0T/jji+6aFmdc4iKlz0ZbVhRZ5RSSyInZCsZbNad2gYmROMtBGsPeAWDruitVNB/XnYVblPt01DLMfCPkYC4DJx9I1gWnIZzPUhzk/uZObV/eb+lWqBIfBUlj3goxAleqKiWNN8AIsu7T2AhR9WSitWw2/O9fuXAZElNaV+aqM4cXHnWgTGoAcN9f5X6VEBW8FErWMA3nbm5mw/teIgsNz9i8PJxhYSwo1XUH0MU4qeQqE27ZqZ5DByHsiJeBE0JWJ5lBRMNY5gZwoxvlzQR51rDc6eP39ykSFMMOqMRjQ5/+Dh9/fGP7ckQecPBAXhXv4EGIulNOJdNgbnL/tZejnL1pLK1YS20PpB9l75wVeK11d42p+uRhp2NB+dZhJLHnVN7GuMhC8V+BVvohf6ufVDZCaFl1y7AaaBnZo9iaLv/Bh7F1VkRfnnhRAgCoQmsHN9d3nV7BRAB+N1TjAgdFk6/CcUqnHLi07sy82c4vN6NybhSTcDWCWyKP2+0pyxGShfc3138DvfZR88yNXfV8knw75FCT5pNScVj461tDG7kr0zSt3jjXvWtH/sVmZFp+53yfcMae665dMRIAiHBLUdE7hVS+Ly9Ti9wNwx5YeeNmY6I63E7uT/TO2I6qg1jrkxO2RSTf93Eprf8MzVYeMzxVNDA5tGZTLt/XU4xGoY/v5Y27XMNAdjaKiUiMfFTm1G0JShDZE/n+VdGkJqP6L8bYlaatCnL5fpZmWsawunUzb91jYzXa9dxtpN+C3MbzsHPit0ci3yMRSyOBOzEqFa1ENcyMgPCbR5XSP5ZKr5okgi83Uj0+W4OZhSokySPI1jDSb1ny+IHH/lvfJSALfstjqVA6Es2B5hzceDSRkyJUqatpqVpaSOX7+3SPhOZdjk9eWPfRfitmR8Q8fGjzBGRBXpqo2KFUeOqj/DvgGcK/s1xW+GEHpe2fFqVqoVpAknSALDvlHJZh2bwPNNrD3CZqJZ5SBLGPSJngs6GK5XtcdUwECGph/vxMMG+DmWqt3kjtbmmKuArWOjynnZcx62WefyPf7Ua9BSQ3KVdzB4SyxaSw1ZF822qRlLX7M8iAbYn8skQvU/uv0wURzkLl+9RCLO/bm50hfzSEwVRkttpMXDHy4HyH1sRislS8jxG6UGNFafH1umq2FJEzzt/jJ3DDCtYYiYR4PKgh8n3qhoUye+Lfas1yUYEcDM0SkmW/h4f0jCzSMoDke1yljGVp1KBzWCFBxw0hVLXVavZXB9bWU3Xl+69w+b6SSdZd9FIwPBhHmtbJpVuVeYDfMp+6ghsadNNevYMnFhaKCwQirzL50FWlF18HQZT2kZVmPOp++ZuumKGxut3olM2J6eTy9nsiIYvF64A46+brtMiTEQFEXGH61vfJ9744q5yFRGENfD4Khg/1yA3xxOLvbs2pychSWHqBkEbawqaLArEpSZFDCdtXdXF8YvK9GI2JZA2ySLtbHZ8jNHplO2ofgaej07B/CZywhcIQYZ9TW33owL+gbyoWPf2+WiwsFlPkzPpNVZMQFczBR0ZA58LsomO04OLHkRsJ3D9PZIsxtF67x8eaF0EJ2ipgmx506S2m38Pfmy2ujzUEAlmR/94XkWUseZ9uLKMLeiGZZ2HuqdmELJLjc7VokqIJTy/E5LPEoDSTVZi37GfTGub4SzCMv4kwrSTHaRkev7/ZQYhZlu7olAZVXFfslKjieD6Qhoi3rExWIYyrRtZSPHMaDRj9hkcphnGmvHrrZqBpnAXW+zWndTFK4IkQscRSWiS7hR5Hcib4rHLKte4U5n2nvckNugKB41x3HK6RWRe3jhEpTH+BP64dN0fKBRP0d5+IGLkUBbJm2UjQMIK/e84tbT7bYJg3wzLSyELIGqdBlsoUQ1Dboey7yi8/LhOvRqdrvCd5su4zqm2wBvYwZ/wIqZq8afWeO3bIcIjoZHxSsmjWfO1M7Fx3BwIlR6ovq+wjLVqRzq56dJgbmdZo6LNc0xyHZM/gdpkGWZCfl8cXgOX7W13ffmx1GReCO4sCR1a3lxVXebNnGoY1CARX7bvKUGZahpECWWRSiqMDHZPl7Mq58rvusYIcu0odlwqUKOmHksqRlZHL8hgwn4Vsg2FZvWWjIotXDPPidoIdcNNUAC9DhyjSNL/spU1du+JkRrkizas72ddEmnccW0YDz4vqzmQGbdluEc3tmhBXntMYqrumAUJlvRdfkpt7+Wa0B7pfUoUOXie1DkAFriKtKFS98HSyyFX46ZGVQSorAI4Y8znXrd8t5fGDOdt+b/Gn2uu0LmTOIs6Hb1LNUp7Q83NF//4QX4KfdacZqSpekpNKzp5QdSdAjlDUFlJUU+P8u1TVMS1LHNEDH0dEkyYH8uddGOwF7t80y/20w2KHCLI+XbK+Y8jyu5yt7vdLPrceNC4+DuPJkh0MzZ/BbMiVABr5P7PZOKTExrB6P3UXzwa8kN+whz+oLsRo3N/X2dsYvVluuJSvfauTaBn6XiIsQ1ylzC0w1XeqJrE7WZTMlESlh61X5vq5ZWhLtFWaWXIXqGHhfIBcWjR6guZXsQxDGDPWaZg4v+7+oxjWfS73I2XLurjvwpXvSU0kMyNVFX23l1eODk198n1HRhb5zDY7B5k/5LXS3J2Jzih2h2FomqgRukwfoh+XlkAWHkNWliVnDfPS8m4q39P8uVAg4x0AxVUn1aPJI005VJ80xav8k5GFEkvoGzPTQme2TkVOFg4k65bno/CFTo88wkVa922RLEzXUHJ8TyMoVYh8j+lSQZAgl7OgF1PFhxoW1ITu+zCy7ofuczh1cmNjsqy255wNzA0qob0js0oRSMKzTncDJK7mRgGy8DCfoNaT0nHnWCJ9qJrASfCHUGAtrXU4olyzIN9XQsj6s8mxk5A1RIo1JssazGbMvoxGp1NZmnc58cREyGIXrBCyYLQeDLSsP6mQ1SLy/VdfJXP8GEm+2EH1xQrepqAhHQ2J0qVCUwOqtwy7IWSN/0NrETkWstBMTFZ75kWx2KYaJnr2Dww0LBpuJCRLBuviXicq3z9Vq0XU5vy0ailevhjwEXygnJQCddsRppB83/J130vCJ0wW+oa4vg3tjd2eEUKWYaLNsDPDGG3aUrLqicg6+7TjS/553ffVUuH4tsJatLDKAM4DKiSE4HmCRL1OCVOQ6wOpw+FKuyUyMSbLQvRAYoxeGT3Kh5FlWD8z70sO8+b5ZAU6CJJBklYGympaxSO0sMiF5XuV1+/50J0KGc3VK26pJvJ9lcn3gD9IS3YlQhYKh8omjopQTiqMLJyjaiDcoVeO2meTlbzcQYQoWAAq32tsMRWJfFo8Tp/eiHzfgtskSiZj9R7J92+4xbXkyfeFr5XCojWeLElqiVpWr4u1asjSoB1FFvoZA7m5mUsWdmGnkJWgok0KiRRGLAbJ99yExFKVivcFpBZi+d4V8Dn5Hhqi11Pua6Hz5+ZcsnCWt9L+wZTEkEXQ5sgyf2bD2xvrBLKSl4ZQhIqs7lEQlxB9LXgyIgYVEPn+VZDvgUiWHdQrKFl4G9zMcMqLkdVB353YkUnJ8g7N/1UYWaM2yofCsPa/GSMrzweukLnA257qsuTyPR8HUIekNFdv00URGVBRrHlgw/0wm4vp0wHL0v5oXo9MO1Cy8LpAL0TSMiEL7Yz2TYMAhZAwdPi5YUDLaGyh1Zur3zWW6CE+CFiIhtkze9lPo7FpLBv+AgvsHE9AWGGICBo4Efn+Dcn3uHgGrjYESNXiOMXDgptKmC7NkxU8xDCy6L81CuQpWXn/oMOGTxnt9AJ+ehYoghw1xvVR4LzTPvUULS854nV71U8Z0e/d9nvi7EO671m1W4wUZnbK5T/oq1j1MppJg4rZ8/AaJMto3ww6NgUlq+tihkd0Wo2B3UVj/LtoIr2NIlVr+WfG/pTdve89bwb1jS+kT3owTFTMFnKm8S5r9P8EEBTpQMGR0YPAF63eXYM4F/eaabUtAvTt4BruucjTc6Nhmb0lRM9Ac1Q6qHfHgH+KextJTjnxWSemTBLz4eiOkAQNB/8SXwaePRTIkgQPBnO/hvsTuWZaLtrIZy2NPHeG5v88vmDmO2gEEB9f4L+Gfy37E0n3wvgCXFB7LN9uOd1GlZxrXIYCz/gpPreKxqwPXCDfHVu4a/SgQ98k+PtPyDjElnbrpEcatdB5p2ShAEmVdf1yyVI+ReGrz4oqbRFhiRMOZwl6o1gePgbtuDqH5E0DrPseN2dS61GB4reuwL5J9FmfbBEoZksuHZr1oYvB/Sa6Ne4UxAdZCdtRkAnh3tMXB7X9fuoKbtGk+XiVVYVwthOzF6j+3p3kCj7nsywzRRHNih3KmbTRCXuZ3fqdlofo6GfdrWpT2H9CZU0YaLGXSFbWqnQszIh60hNb6EjVB6SHyqtIm3nQcSKL9PFgZQeL+MHOp4AirUraUZJ7rWzQDk/7ndyc6ZpFbZ+rbPHwpL3DWQr2XoATpUPEVcIVCHbfV7IpaEuKqK3wjLZfJtg4jgPYzog9lq/ACIROwuARbPvNom0gOaJirJMbyn16KYq5amzgmMR0YiFpKE+vQfp0SCv+zh9V4O3+yJIAiub5MUeAppXduknftALKK2DFNWowrPuloVkySL37uUMwHM5eqCINVKJIq5zRceqhz+ACtsZX0TD8vYVoyCLys8erMPk+fMGdcGIM7b7PbIhrDEKyyWcO7lG0Q+mtpQFmU77wQEZUKHmacggbnt/5O+vQN+fo4pFQbvd9mHFJuJG6edLgGTY8P5tOixj401iXDhsDioa67xevTZIfVlkoJUwWA15hN2tQZCPvGFOtw4LK9/KRUM9/gS1/d1Pt++Ixdky+X7Hue1/qlC+tkRqaRnS0QrEk774nyKYxJQpt/5nw0gGJmJgn0n1f/VqhzLq3+AAtgWdFkyA4tQep0qsnMu+7hO5SpKghw8aym9QdAjc5n9roTZJt7xP5vlQqHJ9WnBRBZpPy9sSFE1i+X71Ni1T6X6zIC8LG2FUCGcxM4akdaQ51Jc55Wi3RZvLqYvp26LdCxgJr5Lpfvo/ovncx+81DIjdMMr1xwW7VXvON3YYOa9GFxfTrjbbfQxDxnqj3SCIjU73py8m4EUZn+DRJiUCdFYSBwWkNonbTCHBbVPtu9z0yMqLUk3tbFEX53psXj7vvV1Hd9zwGv3XuMeITfmeR5dVGklnwbG0V8f35/Dfi4S4g2hbTV1oDl4gsJM//Clnti+v85GSxmIBGDKj7foVnpnDzG8T7C5CnoGdbNVUl6NUiB1FfcuPH5LB+0ueKG57PGHP3OUjZgcj3iyK95y+kDj46Il9Gx68oSjCTE3OngfEv2JbZyOKOMmRccBjI7HzSfk+AXL0SWuSQxLJ+w7YkU5XTIYudZyK+fCi4Jcz/HndbhqzZMnsX3aQ5kiw833YrHPVCJ9gpCp1xx2nXgReEjQt2ke2hWjoJPi2y4HFmW8lVdp58H5QmeM3ePS/6FGnArsXfSmaQyWQMylU+qzu0Uvme9LDiflaXLd7tA5EpdxVKJev4W8nA6DQztgwzs7vZQrLgImTy/cecCIaMFJxZVv1shEjS3tUk9wqbZXVOzCAY5chCK27XzZXfHZSWftEBnh7CSRDcEou/JUPUQVpAJ5O70BnnFiUnJQv794+JzuT7l9sX1n1Pu+k8e8L3R3ETgZ7R8esx4c0gs7gPnREy0jw9skjlC6CFR99keghjiObmKSHBPDPP1wk+Kxu2jFNHip2IHVly5HvOK/Mamx7iboCAI8WfOOXBiRwJ37t7l24IkTVXuITN/Zbo5gxkLo0uhAYgPMhnr+AoS37T7fJzmkefzLlCt3PnkjT41/V+zW15wOuRVtw6JD9RLMTCv51yO/dxisF85lzlchXNsxuy8vCtsDhfRIREug5jJ2gBPbTaV4Zhaptilvugi703eSaqR9qt/44+TAJwElfohu6pOC7DzPqW2wT2u8Po4Huk2dHHa7znSfF1bbLnnMnJCdzyTwqOyzAyi9v9mNd03lB8RhMfh7JNUlfOkpzuL2bL9DeyZAn7BTiARVOua6cT7LxSLSBU0fg51fXPM1Mjw7Bpakm5amR2h18puusJf4pmFhNaROqH7mxfzs8iVRoXOC7D2mR37+gQlG8fapgv4q64hh5azIaNLRhywWd1R3mfX/aBn8+OIYxTRuOniO7twxYwA/OlQekVX1oQwMUHtp+Pl//TnhtDmPnf2QalqMwfJorj6Nx9eChnKhAIRDw5+uRzvk9HHAgbbBhjVr/sroLo7ucPu62Gqkuh4VBgfhAgR5BMZbt7WN+m+kkHvVPpMi8fA5IS7P3tfP3y+b6bbLe1mqZptdp2O9m9fzys5497OwOxyX5OeJtHCqvxixFDUpQ9ZPxOnY2VvNMnP8740/zzmG3CxtAJMMz289/2Vv8COs+9uNVomOZNRnrX/zl0R3dW+HI0DMusX6niYI82PSlhpmU2Rr8esf/z6A7vMWF4/gfpILes/GZ8NaoQlGeDeqNHRpL2Gs/j2dWm4mBXOpUs4rorrrjiiiuuuOKKK6644oqT8T/HOlNeiVdEcAAAAABJRU5ErkJggg==;" vertex="1" parent="1">
          <mxGeometry x="163.86" y="426.25" width="232.14" height="130" as="geometry" />
        </mxCell>
        <mxCell id="GzrLG4WQ329eXlrZaxkY-18" value="&lt;font style=&quot;font-size: 16px;&quot;&gt;data base&lt;br&gt;&lt;/font&gt;" style="rounded=0;whiteSpace=wrap;html=1;rotation=-90;fillColor=#dae8fc;strokeColor=#6c8ebf;strokeWidth=3;fontStyle=1;verticalAlign=middle;" vertex="1" parent="1">
          <mxGeometry x="54" y="461.25" width="120" height="60" as="geometry" />
        </mxCell>
        <mxCell id="GzrLG4WQ329eXlrZaxkY-19" value="&lt;font style=&quot;font-size: 16px;&quot;&gt;report&lt;br&gt;&lt;br&gt;&lt;/font&gt;" style="rounded=0;whiteSpace=wrap;html=1;rotation=-90;fillColor=#dae8fc;strokeColor=#6c8ebf;strokeWidth=3;fontStyle=1;verticalAlign=bottom;" vertex="1" parent="1">
          <mxGeometry x="60" y="670" width="120" height="60" as="geometry" />
        </mxCell>
        <mxCell id="GzrLG4WQ329eXlrZaxkY-20" value="" style="image;aspect=fixed;html=1;points=[];align=center;fontSize=12;image=img/lib/azure2/analytics/Power_BI_Embedded.svg;" vertex="1" parent="1">
          <mxGeometry x="190" y="650" width="75" height="100" as="geometry" />
        </mxCell>
        <mxCell id="GzrLG4WQ329eXlrZaxkY-22" value="Power BI" style="text;html=1;align=center;verticalAlign=middle;resizable=0;points=[];autosize=1;strokeColor=none;fillColor=none;fontStyle=1;fontSize=14;" vertex="1" parent="1">
          <mxGeometry x="185" y="760" width="80" height="30" as="geometry" />
        </mxCell>
        <mxCell id="GzrLG4WQ329eXlrZaxkY-23" value="" style="endArrow=classic;html=1;rounded=0;fillColor=#1ba1e2;strokeColor=#006EAF;strokeWidth=5;" edge="1" parent="1">
          <mxGeometry width="50" height="50" relative="1" as="geometry">
            <mxPoint x="209.5" y="570" as="sourcePoint" />
            <mxPoint x="210" y="630" as="targetPoint" />
          </mxGeometry>
        </mxCell>
        <mxCell id="siqkBxoQWDWRZE22Vv_f-20" value="" style="edgeStyle=orthogonalEdgeStyle;rounded=0;orthogonalLoop=1;jettySize=auto;html=1;fillColor=#1ba1e2;strokeColor=#006EAF;strokeWidth=5;" edge="1" parent="1" source="T9--PYdHQo3LvPlOlGMK-1">
          <mxGeometry relative="1" as="geometry">
            <mxPoint x="234" y="432" as="targetPoint" />
            <Array as="points">
              <mxPoint x="430" y="396" />
              <mxPoint x="234" y="396" />
            </Array>
          </mxGeometry>
        </mxCell>
        <mxCell id="T9--PYdHQo3LvPlOlGMK-1" value="" style="shape=image;verticalLabelPosition=bottom;labelBackgroundColor=default;verticalAlign=top;aspect=fixed;imageAspect=0;image=data:image/jpeg,/9j/4AAQSkZJRgABAQAAAQABAAD/2wCEAAkGBxEOEA4QDw4RDw4PEQ4PDhAOFBARDg4RFxcXGBYTFhYZHioiGRsoHCEUIzMkJystMDAzGCE2OzYvOjcvMC0BCwsLDw4PHBERGy8hHiQtLS0vMi80Ly8tLy0tLS8vLy0vLzovMC8vMC8vLy8vLy8vLy0vLy8vLS8vLy8vLzEvL//AABEIAOsA1gMBIgACEQEDEQH/xAAcAAEAAgMBAQEAAAAAAAAAAAAAAQIEBQcGAwj/xABKEAACAQMAAwsFCwoGAwAAAAAAAQIDBBEFITEGEjJBUVJhcYGRoQcTFJPRFRYiQlNydJKxwdIXMzRUYoKisrPhIyQ1c9PwY2Tx/8QAGgEBAAMBAQEAAAAAAAAAAAAAAAECBAUDBv/EADYRAAIBAgIFCgUDBQAAAAAAAAABAgMRBCEFEjFhkRQyQVFxgaGxwfATFSLR4TNS8SNCYnKi/9oADAMBAAIRAxEAPwDuIAAAAAAAAB8rivCnFzqTjCEdblNpRXay1SainKTSSTbb2JLazk26PTk72q3lqjFvzVPiS5zXOfhnB60aTqPceVaqqa3nrNI7vKUHvaFKVZ86T83DsysvuR5+73bXk+DKnSXFvIJvvnk822XqW1SMd/KlUjDnShJQ72sG+NCnHov2mCVepLp4GbX0/dz4V1V/dnKC7o4MKpeVZcKrUl86c39rPg2VbPXVS2LwR5aze1viy0pN7XnrKqo1sk11Nohsq2AZMNJV4cGvVj82pUX2MzKG6e9p8G7q/vtVP50zUNlWQ4xe1IlSl1viz19h5Qrmm152FOtHj1eaqd61fwntdA7p7e9+DTlva2MulUwqnS48Ul1duDjLJjNxalFuMotOMotqUWtjTWxnjPDwlsyZ7QxE47cz9BA8fuF3U+mRdGu16TTWVLZ56C+N85asrt5cewOfOLi7M6EZKSugACpYAAAAAAAAAAAAAAAAAA0W7S4dOxrtbZKFPslJKXhk5Qzp3lCf+Sf+5S+05g2dHCczvOdi39fce+3A6Ep+bV1UipTlKSo77WoRi8OS/abT18i6z2slnU1lPU09h5fyfX8alqqOV5yi5qUeNxlJyjLq1tdh6ox123Ud/aNlCypq3tnL93mhYWtSnVpRUadbfZgtUadRYzjkTT2cWGeVbPb+U3SMZSo28WnKnvqtTHxW1iK68b59x4Zs30G3TVzBXSVRpBsq2GyjPU8g2VZLKsAMhsNlWwDI0bfytq1KvDhUpqaXOXxo9TWV2ne6VRTjGUXmMkpRfKmso/PLZ3bcy82Vk3t9Gt/6cTHi1kmbcI9qNoADEbAAAAAAAAAAAAAAAAAADzPlD/Qn/uUvvOXNnU93lCdS0cacJ1Jecpve04ynLGvXhHOXoa6/VLj1VX2HQwrXw+85+KTdTJdCMa1ualGanTnKE47JQeH1dK6Db1d2V9KO98/jicowpqT7cauzBr3oa6/VLj1VX2FXoa6/VLj1VX2Hs1B5ux4x+IsldGFObk25Nyk23Jybcm3tbb2so2Z70Jd/qlx6qr7Cr0Jd/qlx6qr+EtrLrK6kup8DXtkMzp6Hukm3aV0km23SqpJLa28GvbJTT2Bprag2Q2S2VbBAbKNhsq2CQ2d23L/oNl9Gt/5InB2zvG5b9Bsfo1v/AE4mTF81dprwu1m1ABhNoAAAAAAAAAANLuh0/TsoJy+HVkn5umnhvpb4okxi5OyIlJRV2beclFNyaSWttvCS6Waa53V2VN4dxGT/APEpVF3xTXic30tpetdy31Wo2s5jTjqpQ6o/e9Zr2bYYRbZPgYpYx/2ridP9/Fnzqnq5Ee/mz51X1bOXtlWy/JKe8pyupuOo+/uy51T1bI9/dlzqnq5HLmyrY5JT3jldTcdT9/llzqvq2R7/AGy51X1bOVtlWxyWnvHKqm46t7/bLnVfVsj3/wBjzqvq5HKGyrHJae8nlVTcdQv93VlUo1YRlUzOnUhHNNpZcWkcuDZVs9KdKNPmnlUqyntDZRslsq2ehQhsq2S2VbBJDZ3ncu8WFk//AFbf+nE4Kd53M/6fZ/RaH9NGPGc1M1YTnMzvTYcr7h6bDlfca4Hyi0lX3cPydf4MTY+mQ5fBn2hNPY0+o1AjNp5Tw+gvDSdRP60mt2XqyHQXQzdAxrSvv1r2raZJ2KdSNSKlF3TM7TTswAC5BiaRvI29KpVnwacXJ8rfFFdLeF2nINJX07irOrVeZzeeiK4oroR7Tyk3rjCjRT4cpVZ9UdUU+1t/ungWdDCwtHW6X5HPxU7y1eheYZVslsq2ajKQ2VbJbIbAIbKtktlWyCQ2UYZVgBkMNkNgBso2GyrYJDZVsNlWwSGyrDBAB3ncz/p9n9Fof00cGO87nFvbCzT1NWtvno/w0Y8ZzOPka8JzmUIyCMnwnQdwEZGSCCS9GrvJKXJ48puU861sZocm2sKm+gujK9h1NFVvqlTfTmvX04HhXjkpGUADuGU5bu8ud/e1I8VKFOmu7fvxl4HnGzO05W85c3M+WtVx1KTS8MGvbOvTVoJbjkVHebe8NlWw2Q2XKBsq2GyrZBIbKNktlWAGVbDDYBDZVslso2AQ2VbJbKtgsGyrYbIIAACXe9SS2t8gBk6NsZXNalQhw6s401+yntl1JZfYd8rpU6W9jqioxhFdGzHceR8nu5OVqvSbiOLicd7TpvbRg9rfJN+C1cbR6W+r76WFsj4nE0ri1Cm7PrS7X09yOng6LWb9pGNkjIyQfInVGSMjJUqSSZ+ip65x6E19/wBxrjK0dLFRdOV4Z+40YKeriIdtuOXqVqq8GbkAH1Zzzhdae+lKXOlJ97yfNsvWjvZSjzXJdzwfNs7RxQ2VbDZVsgkNlGyWyjADZDJSbaSTbbSSSbbb2JLjZ0fcruGhTUat5FVKrw40XrhT+fz5dGxdO0pUqKCuz0p03N2R4XRuhbm610KE6kefqjD68sLxN7T8nl7JZcqEOic55/hizp8riEPg8mpJbF0Hxd++KPezk1dLQhK113Js3wwKtnd+Bzd+Te9+Vtfr1vwEfk2vPlbX69b8B0n06XNXiPTpc37Ty+dU+vwZfkK6vE5q/Jre/K2v1634Cr8ml78ra/XrfgOmenS5q8R6dLmrxHzqn1+DHIV1eJzP8md78ra+srf8ZH5M735W19ZW/wCM6Z6fLmrxHp8uZ9pHzqn1/wDLJ5CurxOdW3kwuG/8W5owXLSVSo+5qJ7DQG461sWqii6taOtVa2G4fNWyPXt6TZyv5cSS7zGq1pS4Um/+8hnraai1aN34L7+B6QwSTvb1Mq6vM5jDtfsMEZGTgV6860taf8dhuhFRVkRkgEHgXGSARkrckH2s3ipDrR8Mn0svzkPnIvRf9SH+y8xJZM9CAD7M5ZxPTtLzd1cw5tarjq3za8MGA2ei3f23m76o+KrClVXdvX4xZ5xs68HeKe45FRWk1vZDZVslsoyxUMqwyVFyajFZlJpRXK3qSAPe+TXQKeb2rHOHKFunsytUqnfmK6pdB7i7r/Fi+tkWVtG1oU6ceDRhGC6WljL63r7TDPl9K4uXNi9vl+fudzC0VGPZ5gAHBNgAIyASQQRkrcknJGSMkZK3JsSVyMkFWyQRkEFSwIBGSpIyRkZIyVuSMmRo5Zqw6M+CMXJsdCwzKcuT7X/8NGChr4imt6fDP0KVXqwbNwAD7E5h4Lyo2WY29dLgudGX73wo/ZLvOfNnbdOaOV3b1aD1b+PwZc2a1xl2NI4ncUpU5ThOLjOEnCcXtjJPDR0MLO8NXq8jn4qFp63WfNshhlWaTMGzL0Is3NquJ3FBP68TDbMzQb/zVp9It/54kS2PsLQ5yO4X3AfYa42N/wADuNcfE6S/W7l5s+ho80AEGA9RkjIyVyVJsTkjJBGStyxJGSCMlbkggEFWyUSRkjJGSpIyRkZIyUuWGSMkkFWySDe6Mpbyms7ZfCfb/bBp7Shv5xjxPW+g9KdzQ1C8pVn0ZL19PEyYqeSiAAfQGIHi9225R3Wbi3S9ISSnDUlWS2YfFJbOk9oC0JuDuis4Kasz8/VYShKUZxcJxeJRknGUXyNPYUbO46U0Jb3f5+hCo0sKeuNRLkU44aXaaGr5O7OTypV4LkjODX8UWzbHFQazyMUsLJbGcqbMvQT/AM1Z/SLf+eJ0j8nFp8rc/Xp/gL23k+tadSnUjUruVOpCrFSlT3rlGSks/A2ZRLxNNpoiOHmnfI9Pf8DuNbk2V/wGazJ8hpL9fuXqdujzQRkZIOcewyQRkgq2STkgmCy4rlNn7nw/a7/7HvQwlSum4Wy3lJ1Iw2mqINt7mw/a7/7Ee5sOWff/AGPd6LxG7j+COUQ9o1OSMm39zYcs+/8AsPcyHLPvXsK/KsRu4/gnlFP2jT5K5Nz7lw5Zd69g9yqfLPvXsIeicTu4jlNP2jS5IN17lU+WXevYPcmnyy717CPlGJ/x4/gtymmaUmEXJpJZb2JbWbn3Lp/tPra+5GTRt4wXwYpfeXpaGrN/XJJbs35W97CssVG2WZ8tHWnm46+E+EZgB9DSpRpQUIbEYZScndgAHoQAAAAAAAAAYukOA+tGrybTSH5t9hqsnz2lP1+5epsoc0ZIyMlTmnsSQQCtywTxs2o+vpNT5R958clckxqTjzW12Noaqe0+/pdT5R95HpdT5R958MhJt4Sbb2Ja2x8er+58WNSPUj7emVOe+8j0yp8o+8mVjVSzvO7DfcYzJnPEQ57mu1yRMYwey3gff0yp8o+83ts24QbeW4pt8rwebPSWv5un8yH2I6eh6k51J60m8ltbfTvZnxUUoqy6T7AA+gMQAAAAAAAAAAAAAAAAABi6R/NvsNQbu5p7+Eo8bWo0bPn9LRaqqXQ15P8AKNmHd42GSARk5NzQCMjJGSrZYZIyRkjJVsknJt9EUkoKfxp518mOI0xttEV1vfNvhJtrpT1+06GinBYla3U7duXpc8cSnqZG0NPpmgk4zWpvVLpfEbg0ml7lTahF53uW2tnUdnSrgsNJS6dnb/G3dcy4dP4isYB6S24FP5kPsR52lTc5Ritsv+5PTRjhJLYlhGDQkHec+jJd+fke2LlkkWAB9AYgAAAAAAAAAAAAAAAAAAa6+s99mUVr41ymxB416EK8NSezxT6173PItCTi7o82yuTe3FpCptWvlNfV0XNcF77wPna+jK9N/StZbtvDbwubYV4PbkYOSMl6tGUeFFrpecd58snNleLtJWe80LPYWyQCClyQAfWnbVJcGDfTs8WTCLqO0Vfcs/BBu2byKyuJtYcpNcjeopCLk0kst7EtpsaOiZfHkkuRa/E2VC2jBfBjjl42zq0dF4is71Xqrfm+H32bzPLEQjlHMx9H2Xm1mWub7kZ4B9FRowowUIKyXviYZScndgAHqVAAAAAAAAAAAAAAAAAAAAAAAAB8nSi9sYvsR9QQ1dWYTtsMf0KnzEPQ6a+Iu3WZAPP4FL9i4L7FteXWz5wpKOxJdSPoAeqyVioAAAAAAAAAAAAAAAAAAAAAAAAAAABDKMAvkrvz5sqwD6+cHnD4sgA+3nB5w+AAMjzg84fAsgD7qROTHRdAH2B80XQBIAAAAAAAAAAAP//Z;" vertex="1" parent="1">
          <mxGeometry x="378" y="232.5" width="103.81" height="114" as="geometry" />
        </mxCell>
        <mxCell id="siqkBxoQWDWRZE22Vv_f-11" value="" style="shape=image;verticalLabelPosition=bottom;labelBackgroundColor=default;verticalAlign=top;aspect=fixed;imageAspect=0;image=data:image/png,iVBORw0KGgoAAAANSUhEUgAAAV0AAACTCAYAAAAtHcrHAAAAAXNSR0IArs4c6QAAAARnQU1BAACxjwv8YQUAAAAJcEhZcwAAFxEAABcRAcom8z8AANpqSURBVHhe7H0FfCTHlfde6C5MR99B7r777i6Xu+SCDthJnDi243AMMccMa3uNa1hmZmZmXq1WqxUzw4xGoxkNaJiZxdL/e69arR1pR7tacOI4W/o9VU91dXV1dde//vXqVdWEcDiMVKoTXZ1d8Ps8cHn86KTj7u4udHV3i/Bu8gf6e9HX14ve3htyJYLebpIUuvshpLe3B6lEAqnOTiQTcSSTnejp6UU/h6dS4ppEIonunh4hPfQeOJzfUXdPt/jd29ePXjrX1UXHvX10zO8pJX5L8ehdjcrHDbkhN+S9IRMKzmShqrwaeQUlKCsvQX11NcpzC1FcVIjSknIUU7jN5kAoFEQgELghVyBd0SDWNThx63ErtPm/QrT5dXicHlTl5+Dk2QKUFOShpLAMlZU1UDc2orm+AbWV5Sgtq0LB+Tx6J2WoLStFOZ0vLymBqlUNc7sSpbXNqKssxbGjWfR+CnFo334oaqvRrGxBcVkl2i1uRG68rxtyQ96TMsFptyPg9cFssSFIrLcrGYfDZIZeb4S5owMdRjMxXgmhe5h53ZBxCwZ7sd/YiV+XpuBreBIwzkd3Vw+8LhcsVge8Xjd8Hg86qJxtFjvisSg6DAY4nS6YDEY47Q50mCzw+QLwuZzw+4OIRwLQ6OicwwlTh5mus0LTpkHI70MwFILL7UEs2SV6JZnydENuyA3548oE3HA33A13w91wfzAnQLezq1v8AAYQDfnQ3Tf0M80NdCfgC8cwOPR72A30IpHqpINB+ANBdPVeFEO4RDRCbM2D3v6hgCGXSCYRJ+F0UsTQenr7iKVJGehORhGIcdqXd/29XUh2ErtMc8z2Ukkpb5dynak4IsE4BgcvxEt1dSFEzJ+dj1ik7C6d0sWutytFz0h5GBxAJJq47PVhKicuE76TXA6ZXHpeL+0GEY2EkOy5EL+/rwt+TxD9/aNexkAfsWcjHG6/+HnpO0hnmYHbnR4kEyn0puV3oL8HHXod3H6pDC/tBul5BuCwWuDxBdHdSWn10/PTd9k3Oo/jdAMDA6L8ZD1aJsZxQ27IH0MmNDU1obS0HL6ADy766MvPn0ZJjRLJlAzEBErU7W0sy0NRXQsMWg3atHpYjB0w6DtgbVehTaeHobUZOfml8MX64LZboW/XwWSywtKhQ4tSDWVjPWoKS6HTt6O+vhFmQwfUShWa1VpUV1fCaumA3eKC22ZGu0aD+oZGKCqKcLqgAlazFW2qZiiUWq7NlE8DFIpW6FtUqKmpobgKmHQ6tLXpoGxWiu65UtEMk8WCjtY2qFUqmK3UDVco0aLSwmZoR0uLhkBnALGgC8WFBWiuVkGnUcNC3XW1sgUt6nacO3sGWl0HcnOzodHoqStvQnNTMxLdvUMlc3nn0jTgTG4JPA4Dsk8VwEn5aGvTwqxTo65eCUO7gZ7dgkRXL6J+N06dPY/amipo24xQKerp2ajM9Xqo6Lls5g7KoxZOu1OUkcFkx2B3CjaTEe2Upt3qQg+Vj9fuhYNVE+1t0KhaUVaYhwZ63kAwBKveiKaGKlTk10BRX4OmForT0gKz3YfBzhAKimvRWF1B4RpoWlvQYaF0dFq0s0rDYkRrq5rKsQU6Kpd+AsvCrDPIOZ1NZVgDVyA09NRAKOBBTWkRGutqoWxS0nVtsHZYYTIaKD0DPQuVZbMKRi19PwY7untSyDq0H0UFhWhuqIU33ge/3owANfRX6nhwsbOzUwwA80fO/g25Ie8VmdBIIJKXk42WVgUqi0tRUlCAqnoFAZ0Nbqcd3mAU+jYNWhurUFxRg/Mnj+LEyTM4e/w4Thw5iIqyMmTnnEdddS3qKa06AsbG0nPYf/AIzpzOQV1DM1XiBhScy0FJdg6KS4qgbG1F4elcVBbmo7CsEkf27SNQ06CuvBEmLYFkYx3qqELmnziOeqqg53bvRiudLzxfBJ2yEVknjyHrTAFq84rR1ExpV9SjLOsUSsprUZ5Healvprj5qKqpRsHhg2jRmFBRnIu6ShVKy0vQUF6E/HOFArgby4vR3KpFVW4+zp05iePHc1FF+covraZnKkdVUTGKq2qhaqrCibPFMDRXosXoZqpJ+D8wVM3HdsGOZhw7egq5p46hMK8KNWVF2Ld7Hyqp3BoUaspvNk4cPUtMvZPAT4nCqkYU5ebAbPQK0Gxrrse+gydQTUBclHsW2zbtRmUp5SknF/tOZBNt7UF5wTlsWb8DFeU1zBmhqFKgoqRcDLaVnj+PfGo8ikuKoVC1IWvvQVGWippmaFtVaKyvx8Ftu6HSmtDfFcLBI9lQqdWUVjWMqnrkUTnmHNuPw8dzcP7UCZzIzkcBPU+Hjdn/AKVfiHoC1yNHz8NDoB4hsLU4fAS6LmQdPQKVSoOq8ipqqNUoy8mhsqAyPnAMeVTWB06cQ0XROWicUeroJFFE32F9ZTmVUx48BLpejRE++v7YDVBjMjBweXbPgMvWHpfqJdxwN9wf003o6+2B3Ubsq1WJ6soatCkaUF2nQDzRKbpo3I1NRIJorq1Ek1qPBgIiNVVKvdFEbLENdrOeWJINGiUBbnMrMa0BeJ02YmYKYo0WOB12NDUqxKCcnliXkbqvvkAARmKSrU31ULV30DkDgYwBLXVNdC4Kv02Pw4eOoKaiFs5IFGZiqqWFOQS0RQRO3TBoVFAqNfBY7NQddcNodaJDpUQHNRQt9XUwk69sbKKKroOVWHirUgm9QQ+fMwQjMSyrgZh0XTM6qdsf9tpRU1uH9pZWNBCwKRU6aJqJZbfpKe9W2E0m1NbV0zNrBEtTNCng8/ngcbnhdrgIdi7tkiG3GOhqofIxUb7ULU2oLi9HZX42Kpo0VA4tqKTnZBdwWlFMYGcwGBF0+VBBYKbrIEbY0ACHJwCLXkssuQ1mYuNKynMlMXx2IlxNbN5GjQE5HZVFeUUdvRtitfUNxCrNVO4dqKqoRDv1LJSUF1V9E0pKyqg8LGiktNz+GAZ6Emg3OEQaPgeFU4+EVStt1Cjp6BncLicaqRG10DuLxlMUa5DeWT293yYoW3SIxJNCTcDgmIhFYDGZRVpuiwFNChU14h5oKW/8fJynpsZmYu1W+BO9GOzvJsAto2+qVagl4r2D8Go7EIrG6T0l4bFZ4PEExTc5luNzlwNc/p453qXSueFuuHfTXRhIo49RVhNmYhTDrE6OdJHj6zOfGxgjnLv36U6+PhH2S934LlmfN0CVlUDc4R36zddm1vXJaaZXqkFiSSMc3Sc9T8yiJF+6ZnS+OL4cWzrF+tb+MfNwWTfYh5DPhc6+AfI9CKZ1odPzLeyi6T7s+ke9k0vrdPn5ZD/tOYfyK9+DbXn7xTED0cXpjb4nOzkN2XHZ9Y4urwwuE8iNTovBMv2e3dQo8vPztf187jL3YXtnBt1MjpPtJIn1DSLW2YdOikZ8g9IeinDD3XB/IHfDeuGGe984nhzCutzRjgE3EYsh2taEhKIWAasKOl85dJ4yBGP+G8B7w/1B3Q3QveHeN44BNyksP0a6FIFuRNuC+P3/jZ7ffgVtu+7FvJrPY0b+x9BkPYS+C2PGGV2q8zIR0lw0Ehk6GnJpPY0+YuLpritDA3E5Nj+mo95T92jToPep8/p8GXtOmRz3Rr0+yRrnSlwwFEZ1bf24e7PxeAKRqNRj7aTGn68fy90A3RvufeMygS6rTWJUbxKtdRj48ceAH/01NBtvw+TKD+CF7AmoNm9HbxcBYlrl8tn1KCiqgNftxKncPPj9Ifi9HvipIoVDQfDUebfHi2QqBa83gN6eLjhdHnitGpw8fhhlDWr0UnqNDVU4U1QjJq34KA1trRJqnV6YEPr9PpisdkRDfrgpDcZarboJ53MLoDfZ4XG7EEt0Ih72C2scfzgizC5dTic8vgC6u9n8qI+AOwGXy4VIOASjXov6ZgVSvYPg6eaj1Td/6o5VajV19ThfUHQFoDuA7HN5aGiSxj/G60L0rqtq6sYNuvyOz9J9TGYrzucXCX8sdwN0b7j3jcsEulxpUl09cNtsOL9+DfLXb0FT6UZUqX+O0vofweY+T+A5IGx5ZefzmLF352acKyjD/lMnUJFbjbr6BmFGdz43G83KOpSWN6GQjgvKa1BVXwulogFnjx1D9qmD2H2mUNgsF5UUoKBGBXO7GoUlRTi6Pxs1CgXOHDyI6noVSquKUV1TDpXejFg8hrLKMrr7IIyGNhQUlKO2vgrZ588gK/scyopLUXi+HGdOncSZvHOoq26AosWG8rJsZBXXobYiDxWU1tFzuWIgvLZBgURqpN36n7ozmszYtG2nMAO8EsfrnGzYsh02u30o5PLOR+y4gMr8SqxgLFYb5ixcirqGxqGQzO4G6N5w7xuXmekOYLAziQpXChOO9WHCcWB59Vmg7KPA+Y+i27oPEWa6aZUrGPKhNOcgjucSKCrrUXy6BGVlpahsUkOhUaOjXYGzueXCDvnUmSycyi9BTVUZSvPyiZUaCcyVlJcUFGoVXKFONJcVYuf+fdi3JwuV9XXI2ncMTm+cgLcURUV5aGxtJ5DuQWMdpVFeQWBbg4K8IpRUVNA966Bs08LY1Eh5UKO1RYHmlnpUUn4OHMpBTn42WhwRNJUfR32rCtUtWlQWFSCvrJHg+/3leCGus9TzqKypvcxA8gXH8UrLK4l9Fgob2fG6cCSK+samcTNqntCURwy8sroWOefz4fFemFA12k1gJjBCKLA3Gkd410n4Vu5CYP1++NftQ3DVHvjX7EVgLQmH03FwDYWvpt98POQL4fjrD1wkARaOu4rirN0HP10TXL0HAfY5bA3dg9PfQPHX7RfC978oLQ6neCmVTuT3omfIION9SZmuHUu4+3ZDro9kKt+xZCw3lk4XPZ2ocMQxYU+UBFhYcgQoIr6RPQGd5h2IUV1M/z64ojFTFau/9feJ/MWpax+JJdBP0fqIaYUiEXR1dSKRSAkrkBB1/3s5Ll3Lulru1sp57e3uonylBGiwGqC7S4rXT/fsTCToWskWmc0hWV3Bq8Tx/VKdPRSPZ2jSc1N+env7RePQR/fhleXCnIfuHmHx0UfXsoqkKxlFW2sz7MEM5fA+cNwjUWu04wZDLhM1NVpXqiv3EmiyGmO8TJcnHpnMFnHMgGuzS6aXmdwE/lDTpYvax5jOBM3nvg3FhP8L5YR/If/foPrrm6D++Jeh+dhXoP67b6P1A1+E6i+/hBYS1YdJPknhH/syVB/9HzRN+Fe67p9GiGLCP0I14QtQ/dV/U9z/heqDX0QrxW351P+ilX63foKu//Q3KfxLaKa4Crov31uSfxxOR5J/oPN/B+/2w+COxuhnGC08qs1yqQrLL5FbQnkEfDwyyC+Ezc04XVn4d7qknxtLrsc145FM6VxPuZp7iGv6xl3uHI+7l5kaUT6fEXTpHq5wAps0MSxTd6POQszStBqdxnWIBw3oGX8P8k/AEZBTGd1w1+7GMnW9VjdBBiRZuumlJfRmaP7ph1B95msErv+F1o9/Ddof3Q/DTx+D/vsPQH/rg9B+4Qdo/+JPof/qL6D/5i+h+e4vof/BfdB99zfQfPYbaJ3w/whk/yNN/p3C/hOar94F3ffvg/4rfN2v0f61uyjN+6D93t3QfedetFNYywf+E22f+TraPvJlqP/qK+LakWlx2v8Pgf2nBeiOfoaxhEF1LMbLFVmu1JeTHmIZvJ7tc5v24YfTluHOOavxU5Lb563CbfNX4naSn85dibtI7pg3Uu6ksBEy6ryIQ/LTuSvo/Ar6zXJxnNHC9xwhFHbXnFVCfjo3TTiv4ljKI+f9WuWO+UulPM+mvM5ZiNsp3bvmrMEvZq/Gz0nunCuVz11pwr85/LaZK3D/si0IU++KJ+pkKu9Mkq6Dld2YoEuO2Sq6UxjsSog1PiIpIEbY9P4C3BvuT8FdDLqDA0hY7TDc+SA0/3UrNF+7A+1fvRO6r9xOAHsnHd8B7Zd/QqD5U7T/7x3Q0e/2/72dzrMvnecw3dcIkL9Ov4dES+loOK6IT2nQNRoSNUkby1d+In7zsZriar9J6VNcPccfun5YKI72yz+G/0Q2eghERz/DWMKVMhPbZSDOFH8sYdDlLuZXX5+HCb94Ah+893khH7rnOXz4t8/gI3c/K+RD9zyLCfeNlL+49zl8IE0+SNeI+L+VrmH54L3PULxn6Dz590kynMa9lAb5HxbXSfJhkg/e/QyJdE9ZPkDXsfzFvU9jwj1P4S9IOG0Rdj/J7/heUt6vRf7ifsrT3S/ir+55AZ/7/Yt0r6G83k33pXxNEPknoXtLz8DHdO/7nseEXz+N//Pkm/CHokR4ezOWdybJ1IBeCnSFo/jcXeRFlVh9MFYDfMPdcO+muwh0WfjjDUfCcIk1XL0Ih4OwWS1wOR1wkrC5SzAYgD/ghYvOe7xueD1uYeYSCPgRovgOtwd6mwtut5PS4bVjPeKaYMA3ZHYTShP+nS5D4ZGhc7IvC/3mPIRDoWGVwHjkeoPuzVOW4MP3TcRnHn0Vn37kVfzN71/DPzz5Oj710ER87KHn8dGHn8dnHnoBf/3IJHzmwYn49P30+4EX8bmH6PcDL1H4K/gsHX/20Zfwuccm4VMPv4BPk3z+sZfxmUdewqcfmIjPknzuwRfwWZLPPczXTCL/RXzq0Un4+MMsL+FTv38Fn3/qNXyG0vjkIy8MyUR84vfPkTyLv3l6Ev7u6ZfxD09Rug89i08+/Bw++Tjd7/FXRd6vVT5FQPvXv5+EH85ZgN+uWYyvTp6Cv3/iVfzn81PwH0+/hX+i/P3TE6/hn0n+4bFX8C9PvUF5mYxP0fN/jMrhP16YjkD4DwC6N9wN9x5wGUGXJRKJwmqzw8sgGomgw2KBjQBXo2uH2+NBKBqFy+uFwe6GxW6Huq0N7Xo93BTGgN1mNKOh3QwLr6ql0YgVv1jxz4bNvGRimK7nEcJLSYTiRGIxIVL8iDBA5nBOh23j3iug+xHyf7Z4E6YdPoMnVm3Hi1sP4vkt+/Hk5j24e8k6PLJ+B57ath/3Lt+CB9buwpPbj+K2Gcvw+/V78PymfXhh8wE8v3Efnlm3G7e8MxePbNuHxymNiTuP4fENe/C7lZuEPL11Hx7buIfC9onu+31LtuChlTsx+eAZvLKb4q7djkdXbcPvlmzAvUs34JezVuAlSnvu4Ty8vu80frV8A+5YugmfpEbgU7/PDKJXJq/hE9TAfOnVKbhn9Tx6psdx98qFuHXOCvx+w348sXafkEfW7sGDq3fhtmlLcP+K7bhz4UZ8lBqgj94A3Rvuz8yNyXRDBGgRAjk2BA8Gg0L4OEqAJ0lE+HEGRYonxx8+z8cEvvJvPiefl48vJRyP0+T7+hn46ZiFt7uQ88IVLFP+x5LrDbq3TFlMYPscMdWXid2+hH9/4S3c9MYU/GTmQjy74yB+RwD3i3nLceesxfjp7CW4k8J/NncFAdNi/HzBatw8eTZ+Pm8lfjxtPu6gOL9csAI/n78c/zvpTdw+dznumrcCDyzfgnuXrMft0xfgJxTvZ3OW4K45S3H7nGX41usz8P0p8/Hdt+bg269Px0/nLhX3Zv/WGQvwbYp/05R5+AbF++HUBeJ+t7w9H7fOXY2/Job8GWLNn32U2PY1ycvEvCfhC4+/ht8uW457ls2hvM/HPz7zCv594pv474lvS/LSFPzXi+/gP6mMvkTH//LMZGL1L+HjBLxffGEaAtTI3gDdG+7PwY2tXiBQsxJL9RJzZRDkjzmRSAhfPs4kvOCIHCc9bro/WtKvl4XDZbDnGTecHxbOD6/yxaDMcTLlfyy5bqBLFZ5B95tTFmECge5fPvIy/pLA50MEvB948AX8xQMTMeF3z2PC/azvnIgPPEBh5P8F/f4g+SwfoPMfJsARx7JQ2Ad+NxEfoXQ+SL74fZ8kH7z/hSGh6+kc+x8S179APoWTcBr8e9jnsAdfFPIXfDwsE6U8Xyf5GIHnx4g5//VTb+DfXpuLT3BZ0D25PD70EPsk4veL+DDF5XD2/4qu/QDl858mToX/BujecH8mbkzQZbAzm83weDyIEZtlMB0NqCKsUwqXz/HMGgZEBk75OrkycFg8Hh8hHIfPpd9bjsfn0n05zfR00/N9OeH415Pp3j5zOT5HwPFPT02+KvnHJ+XjN4X885BIvycP/74QdkFGx71w7kL6fyj5ZwLbLzzzBv7usUlC/ump10nGl5e/fexVfO21Oe8K0+3n3Sf6eAcJSSTb2ZG/L3ec6fdYMt54N+T6Ctsv85To96awbTmv4scTcCRb4UsyXWa43KWPx+Ji2/Ak+SHq3nuIeYb81M33+cVxhAC6m67pTCThcbpgNnbAYbUJn+P3UJoc1+tygzfCdLiccBGY8/x1K/32B0PoIhDr7u1DPJmic16hG7Y5nHC7vQT8forrh4uOnU6PmAvf2SXtCJAp/2PJ9QJdlm6SNpMNDVojmnQd45ZGkoYhadR3QKE3QWm0CGkZEvm3HJb+Oz084zmDmcQEBUmm+78bIp6HnoWFn4klU7x0kcuhXmeEssNCjSjv9JC5rDPJeEC3s7OXGuhuaqx7qGKCrhmgMF7knHeWYNtgXn+Xl4Pspd/9dC2vZ8DxBoXPZth8TU/PoDhHnye99/6h+JwOXyv7sqSHS8fxODXUdH8pnQtxOQ3pvmnxKYzvlUhwvm/IuCTeiWgkTnj1HpRwDBaLg3AsIN43f7OXBF2n0ykYbyQaQSyZQJhANUyMMxSN0cMSc41LwvtjcaVJsU+SiCeGz3E8wYSpMnC8OP2OMxOmNJMM5JRuKpWgexJz7aJ4nXwNgTyFcwWKx0OUDkmC7klhsiRTxI7pmkz5H0uuJ+iyDPbz5AhqveTJB0L4N8ngWEJxhAyA2j9qaHrQSTW8i1Chi2qm8K9C5DS6WQgtejkvfL9L5iVNhp9D9odEnGc/TUT4KD/9urGuGZX2oDjHC4r3i0YsUxmPJeMFXQbcZKILhQVFKCgoRm1NIzXoYbEFVGFhGcIR/nZ7xYLtFpMdiqYmZGfn0rkSHD92Gk1NLTibk4dgKIazWWdQ19BCdSOBQCACEzVyxg47YtEU/L6Q2C7K54+K88FghCRGpCVOgDuI2qpq1NQrKT9EQCicwULXbkBzoxJd3X10TRz6dj30erMA6fcr8CaT5JOk6PlYxG8RTr9T0jOnhw9fM3ScLhwuehdUp7uZVRLj7SZmKUmf5FPZSsfUyHZT3Rg+ln9LceVzzEylc5LIccV1w+FU58YlUtwYkdW6ukb4fNLKY5cEXd76O06+yuPAc/WleKCmEA/XFeMhkh9UnMct5emSK+T7dPx9PicLhf2Y/B9Vnsd3KvPwi6JsWDasRdf61UgumY/U7OkkMySZNQPJuTORnDeLjknmTUG0/BmEtU8grPw1gs0/RFBxB4JNP0Kg6QdI+SupMMYPmNcbdC8SAoI43SPK6hFqhFh40850iVGjkkpFiHl1Y/25Anz9rTn48ewV+M6bc/D9qYtwyzsL8N135uPbb83Ft9+eJ46/S/736PfNb7EvHX93ynzcxHH4mOL8eOZS/HDKQjpeiK9Mnos75qyE0e1BisA4NnRvzltslETZpwYsSed5J41U59CzkB9LdSHO7JOku4cqA6uSuKHrod+Uf54Gy78lhtpJ8SgNajil8pDVPzyTLIUk5SNJaXAZdYtzSTFzSpYR5TgOGS/odnUNwm42Y+HCxVixbDmWLVuJObPnYdb0qZj43LNYtHgZ5s9fiBkz50BR34BVy5cjN7cQ6zdsoeMVWLViNdZt2Aq/x4fp77yNtWvXY8rbU/DmW1OxZtUaTJs6XcSbNXchFi6YhxUrV2HZkmWYN3MmZpEsX7keAQLZaW+8jEmvvEH3p/vNnYf58xZg3kLKz/x5WEn3mD93LubMnIHJr7yKA8fOiO/6/Qa88SGf30so0olAiAga/e7q6hUNo8/PasUuhMJEzmLc8NA3R0Aco+NO8vlYBuZ4XLqOP4FwrBNuH1tTRcQOKN5AXIiHJBTrofPd8NO9IvEeBCjtULSLwiicfI4XinYPxUlQGmFxjRzG8Th+IJQU14dJ/HTsCybGJd4AEUTqHfG+iHrq1bIbE3Rl1UIyHEGd046vFp3FP58/in/PO4F/yT+OCVn7MOH0OOXMAfJJyP/k4W0wvvEK+t58A4lnHkPqgfuQevD+C/Lwg0g+8hBS9z9A/m8ROv11hBr/B/6qv4evdAL85Z8i/0PwlUxAykUfJ3XbMj1DJnk3QZeX0vMHAmjT6aA3mWAwW4QYTRZ0pInWaobBaoTJ7cTDqzfgQw8/gx8vXItbZi7BrXNX4OuTZ+MbbxPAEoh+a8oCfG/GYnz19Zm4Zfpi3DZvFW6dtRw/nLUM35u+CN+ethBffnUabpq6AN8h4P3RzGV03XL826Tp+Nzdj6GguhZWpwsGk5XubRVb88j5kkVvsUBn7KDzZvqYJSAUz9TZDbPDjSatDkqDAW0UV+ewo8VghJpArMVoQCs9p6qjQ/w2uFx03oEmev4GjRYtegN0Njs9rw0mjweNlE6TVg8V+XaHS9zjStltuowXdLnrHo8mcPjAASxduhLZZ3OxdctW7Ni+A5s2bsKWrTuxZs167N1/FA6bC/m5udi9ez+OHTuBHTt2Y+/uvdi+6yASVLH37dqFnbv20rnTYp/AUydOYsvm7di2dTvWb9qGgwcPY+/e/dhD15zPOY99u+n6/YehaWtHTvZZHDp4BAcozrFDB7F40VLsPXgCh/bswoJFy3GU7rd1yzZsWrsBp7MLKO8D7yvQZdbXqrShst6K/UcUKKs2oZTkfJEe2efakJPTgsIqK/UgEigs0uJsnhYlZQacz9egpNyAvGI9zp5vg6LFQe+/T4AuM0/uPLk8QZyh3smJk1nYf+g4jh7PQn1TG44eOY7CkioUFxWjqKgcZVVNKKlsQHFpBaprGqBoM+Ls2XyczyuG1mBFeWUdzpwvRXVVLZSt7aiub6HvJQ8FxZUinfzCUpRV1sPuDo8beBl0w5RXnc4oNnNld9mBtKjfj2a3C5/LJaBlAM0+JMDzA+SPR/6C5OM5h/HRM4cxIecI/v7kHnRMfBq9DxGoPv4IUo//fqQ8+TiSJKnfEyA//ShCp/4FvuoPIlD+CfgqPi6Bb8WnCHw/ipT77HsGdBkEDARALq8PSTqOpagVJ7aY6qJuELFIZpC8xFySfF74pLuvH9vpZf/o7Tn4FYHu3YvW49cL1uKX81bjV/PX4DcL14mw31DYr+etwd3z1+HeRRtwz8L1uHvBhXO/nLMKv6b4PyfA/c3cVfjtgvX46ew1+B3FMbk8Qu3A9+4UecgsvMCKlm2s/QGhWxfP09kDm8uLBgKMWuo216p1UBFwN+k7UKPSoEKhQiN1jxtIqlsJZI0moU9mPXOD1oAadbuIX0MfL+uaK1s0Qv+tpI/PQmDOC7WMLsMrkfGCLlfOJOtQhwCML+GKyrsgJYhVRaMpYlLUC6Bj1qny58HqgnCIGBAxHw7n61glwOeoeKTrhzRLHNZL36DwKYxBnnXCMWJEEWJKQrPSywM+Q5liR3lgXTFfw7tBt+tM4lrW+cp653TAej9IJ7FSc4dXgG1ReQfa9T7o9F5U0O/TWSqcP6+GUutDhJhocameAM+KXALc8/kEtEo7cvLbkZWjRl2TTQD4MOhSWTLosgroLDV0hw4fI9A9A7W2AyepYdyz5yA1uHsFAG/ffRj7Dp/Cjm3bcJwaudySWpw8cQabNm1B9vki1DUocTqnEPt37cSRY6ewc/8x0QAfOZGNoyfOikb44OETRKrcxH47M4LsaGHQjVBe2+k9XxZ0meWyeVaKGG+jy4G/OX+C2O3+jMB6KRkNun97YjeMLz2D/kcfvhhwLwLdRxA+/W/w13xMAO17GXRZb2212aiAE0gRICQojCeP8GBgnIDgQjeautyUjy4CwSSxyQDFD8QjCMqSoB4G+bKEZYnR71hY+PKxOJ+ISueHr+PfcUmlQPdLcvefQJfVBawGYLDqpoZA+OK4S+jEdNxgEFMXumEKE6Dr9KK6pRVNxIRr2jSo07ajUtVKQKtHVasa5UoVypQtqKZzJc0Kca7Z0CH8MpUKhU1NOF9fj2qtFpUUV0Est5MQ6krWuRhLrgR0O6l756EGqKKkFE3NLYL1tFHDYCGmXlxSiarqepQUlqCpthZNyjbqBhpRWlqJiopqOl8OLVWY3NxiVFbViU1KKym8proBNQ0KKKii8vb09U0tKC+ugFKhxbazCszZW4GNxytxuEiBI0WtVFYW7M1pwK7sRuw9r0BTi5Geo0/kjYGWgYmZrSyjQev9IKwaSJLPagGhKhh6Tll1kK675d+iwRyKc8GXzsugyzpdmXUGWWUxrD7oFuoAoRIQqoMLzJSPWd3AcVnsTj9MNq9QIfgCXHf6ERxKI5ropbomp0XHFC6nyeHyvfiYfc6DfB8WTjNKeeVv6LKgK9vEJgh8G5zXE3T3wEhMt//hh9D5OAHr+wh0zQS6IQK8TgIEFg9belAZ+gM8GBkTQJHqSiHZlRRgyADc190plum7ZqG0R/tiAFPch/KYYhnSv5KIcIrDaoReZroMusELTLeT4ts8XqgIcBU6A5p0egLbdmKrWpg9HjjpmTyhMHzUKPtJ3NQzYnFRz0iIzw+3j54/GIJn6DzPbuSBUtbpXukg6Gi5EtDlChsJJ2Cz2GEw8C7WGtgdHmKzMVitLjgcXljpnJXVP+1GCnNSPDNsNjeJCy6XD62tOmJmJul6RSva2vRoa++AhVg8h7XTOT0xeavFhTKFBSUkDWorypqNxPKt0FsDKK7Xo6jBiIJGYnpGJ5UBD/RdAJo/B5EaFfL5ePi3LKPipIWPjpMOugx8HSYHseZGqDQd1OO0QdGiRWNzK1o0JnRY3ENAO0qGADhAQMlgyeno6L3nFVLj2apHo6INqjYjmshXqHTUUJugpV5JfgE13kotVGq9OF9aUY/GplYoKY7OaBdpSuDOA64hAt2u8YEuM11WL8QIOBrdDkm9cLWge/YC6P4dMd2Ot99A/8TnCHQfvTzoCvXCX14A3cq/g48A11/2V3980B1ikHzMW7d02G3EVglciUmK8wRgvNYqz6JjHTkzvBHXX0+R88JCgCSYdTIlWHacAI6PWcXg4WnY0Sh9aBGYHQ4Cngj6iHG1mToIGANSHikNfga7z4Omdi2a6YOpb9ehho4b9Xp4CUx7qOB7eMsYkl4Wui5dOJ1eYsu9bNpHjQD/vp7PfyWgK1dkNseSTMUksy+2bEhRHGHCReHyedmcS4SnJBMuvobDxPXETOXf8jVChtLtJTBg6aFy7Rnymc31dvcPn+ukeKy6+ENLbMiXQXAs4UEvWTKeGyrXSwnHke93vYUH15gxs+0rD26p1e1CtcA69y1bt2P7zt3Yd+Aotu86gFNZ5+mbH8l2Mwkz2GbqCS1ZtAz7j5zGug3bsWHzdqzfuB1r127G3v3HCNgbsGf/IWzdthMrV2/A8aw8usd+bNuxBxvWbcCho2cES5aAPQE99fyC4eT41AvMdFmvm4pEiena8K3C0/hs7mEC0YP44JnxywdIPkFg+9HsI5JOl0H3nTfQ++LzSDz9GBLPPDlSnn2SgPcxdD46BLpnvgZ/PbPbT8Bf8VEEqv8Vwdr/RLD8s+9t0KVwZrsMNH9I0GWwTTD4kM+6WjP1Ulr1OqFCsHv9KKlrQhF1k+uJ7ZmcbjHI1EcgIECX8skgyumxxYHQ+dIzJBOSuV+SnitBv7uSnUL4PN8nxVYMxF5lSZLEKSzJqhTO27sgVwq6oUhKVALBbq63cLpDlexq78GVXhynp3M9hdIOkM/lwIA1EhwlMOZw4Qtgk8IlkQB0dJgcV75ODr+QLnW5o9zll1nl9RMur2icrWV6h8M6qJfBrNZk9cDuCsLpCQvWazS7KA+X18GyikCr1WPTll2wOEOwOwMwmJyw2nk/O06Tem3+GEw26ulR2hYKd7jDdByk62PwBajnF4wgmuiSnpnyxD3cGJXFuNULDmJCMepGNhHT/WrxWfx17jF8NOcwPk7gOV75GMmnzx0dBt2/PbELxheeRh9bKRCzTT7xGPlp8pTEdBl0k089hPDZHyPY/HUEKj5D8mkC3C8i3PhDBCv/Acn3KOjyNGHW2bq8brg91LWh7jaX57sJugyAnUNA16JtQySVJIDsIabajpoWFQwW6nKx5QB19x2+IH0UMWoUKD9CvTASdBm4RXrEjj02G1zUWvuo2+3WGQikw0h2S/dJ9dBz03Gqh8C2J4lUL92zi9UrrELoHspT5vxeq4wXdLnyh6kCeHxReKliXe/Kz8KmSWx6xBWXB04yxRmP8PWcVjoQXIvw83J++Hg02MpgyUApg6cMrHxe9AxYhvStXJbyMQufl9OSrrsAvAKERdoXzkcIfLlBEXkayt+1iBigil0AXZeHN/+kHhw3WsG4MEnzBaJwuALwElD6Q3GpjAMxETeTsP22ze4RagMXgaqX0uP4kk/fjz8i4vgFwEaHfTsBtEbnwvnCNpzKVkLRYoXNEaC4IRiMJsoLMd3xWC8wM9NoNAh7vZL1wnnJTOyD2YeuSFjFcNFAGoFuP4Fu52O/RycBb7oI9cITBLqPPErHD8F/8l/gr/4r+Ms/CW/lZyR9bsVfCRVD0n3uPct0pa68F263GwEC3Xed6ZKkurugs5hRWluNZG8P2gloc8oqYPB4oWjXo7KpEbHuFIEigRblj2cQcv7TQZdVBQyUDKpBlxf6xmZ42ogVl1TC2tAMl7kDXT2d9Iyd0DU0wVBRC7eyFS6VGhY+39IKe6MSxhoFov4wdcXfnWceL+gmE2zKR5XPHRLd4r7+AbpOOs8j36wTvGqhBNhPpLrg9kUEC0oSIHEYp807EXMcvh+LHH8s6e3rp65oQticZgKaqxEBtgSEMkDKACsDJIcxgHJZ8bTV3l4pL5z30eWb7vgcx+PuvZhQQOAnA3E6kKffh0UG30x5vRJJB91gtFvMfi0rL8Xp3HLkZp1DTlY2SqlHV1bdIHYDzmITv9M5qKhphk/0JjLnIUjlFU/1gm1/Q1EelEuJMGausu/yxmBzRuibIsB1RbB9by2ee+Uo7n54J773k9V49Jn9OJPbRvHjaFVr6JrE+ECX109gdna9rRf+npiuY/IrwHMEvI8/DDz2CPD4o5JP0kvHyWefReLpiUg89xhCZ/4T/ua/RbDms/BXfgAhks6KCegsn4BuTxaozC/K/1jyboMuD6RFYvFh9QL7rN+8LuoF+V5p95SFAagrwZMyurAv7zwK6huoAnRDSSy3lT7GAAGROxxBWUMNoqkEXc8WFBfS4QW924esF7qH89gNp8ECF3WL7A2NaDh8HD5NO+wdenqWEJV7J4x19egor4KjuZkAtwFmuq+djjsqq9FaVImQPygmZ6Tn9XrJFYEuMRUGXZ6xxC4W5dliQWoYU5cElku5wQECHLYVI8fflMsdhIuAl4GIHQ8Wch55PQkx85IaufHcK55IUUUmdnaNjJdH5aMjmK0EhpJIQMvWE7xuwdWWwWjHyUggzPrwUQCcznxJuDHIlO/xSjroBigtHvysIxJQXadEVXktyktLUdesgpJYa0EJAfG5AhQVlaG2XiG+BQ+9K2at6eIhJmsweVFT3yGkvtmC2kYTcvJbSdQ4ma3AmXMt2He4Fuu3lmHLrkpsJZm9KAdT55zBa++cwJMv7Merb5/A1t1VcNI3odG2jx90eSDNZDJJA2ku53UD3c+f2IMTM6aiavJklDz/PMqefZrkGZQ99wxKyDe++hy6Zr+C5MK3EJ//ImJHfo1w8X3w1DwHd9lvoSn7Dc5U/hzZFXfRQ9WIljnTM2SSPwTohhl0h4Cmp6uH8nedBtJkoJX9HgJaqtTMSnk3BIPdgTqelNBhgqLDjFp1G5wej2CaKYqToPzVNDeKQTQ5DWa87DPoyiZjw3kn32G0wGu1waVrR0teAVxaLWwmPVWeGDp7u6CprIKmvBzm6lpYCitgPF8Mc2E5TMWVsLW2U/c0hSTd491QMVwN6PJUTna80H5NFeWdGDwz36txPBkmEY+LY/6mnC4/MaCwlN5gP8J+N6JEWsJBP6qqatCo1KJd3SryeCnHoGtz+kWXOBPYjEfC1LW+ALYj2aYY6LuOQDuWkwGYGbAEvpSXUWoHPmbmeDXqhhGgS2mw2Ze6zYB2PU8CcqDD5hPx+NywWRf53Bhx2Xrom+CeSbp4AzH6TsIEvD4hHRY/peVHu8EDndELjc4tjvV0jkXEsQaonkVEI8lpFJS04/WpJwmk2+heMbEp5rhAl4VBV6/XI+YPoMntxOcYdIcmRzCQjlc4/scIdD+cRccEun95bA+emjcP78xfgFdmz8WDkybhdy+8hAcmvYrfkH948WQMHJuL5IGZSG6aiK51zyG+9W10UPfWWdWCrNI63F9bj5+WV6Dc5RGW6Znyn0nebdDtsFkRjMVgdTilhdpDEVGO1wq6nG/Wj0pTaumY7sWmabwWRqqnl168DTm1VThdUUb3oZdP963RtIl4rEZgO10Wf5i62ARKzMLCMT9dLy0CL4MuqxcYdBkkWWLhKMz00ThaNbBU1cNc14igwyEaEwbyiM9P4iXxIOR0IuL1IEoS8XiRYJ0xqzCG0sr0XNci1wK6ox2nwxuTysK/ZZFdpjiy4916HQy6npBQEbCLx6IELnGeByHOc3hnMiGuvZQToOvwiQo8GmguJ6zP5IkewyA3BLgJOmbmyflIy/YVucvl+1KO2f8F8JWAV+SLfrNcDetNB90Qpac3WFFaXI2s3GIUlRRiz+FzMNkDwhQs0/VjCasdWI0gqRIkXxahbmB/6JjD7O4o6pqsyDqnxupN5fjFfdtw/+N7sGJdqWiEtdTbvCLQ5Y+mKxpDncuOr1fk4quV5/F/Ss7gA4Un8KGiUVKQIYyE4362JAu31BThC5W5+Fj2YTw0ZQqef+U1PP3K63j8xUl47IVJeGLSa7h/4iScnPcysPVFdG5+CakNz6Fz/TOIbZ0MI3WbbUWlyCouwi8r8nBnWS6qqDF4L4GuyWGHjyqbxmCgFxIhJu4Wg5HXDLosxBijxDBDkTB9bDHkl1dCqTPQ/RJoNXRASaBZ0aIUEyNSKbYo4IEs1ufFyE8SM6a0hJkXMZ2uJIw2DdxBp2DimUCXrRKYSUdDQfjMFoQMZkSdLgK1hLD5ZdDt4/TEOgzMlrvRI4RYMvmsVpGn+b4bwHstoMsAwstz8sxA+ZuQwVQW7j3wM/DgJC/mxOU0Oo58/3TQFcv3DRDAJqJCfcFbU+naWmAy6Ij1Zwb9dHe1oMtmSQyugkEOga2sRujt5dWthm5wGTdA3xkvzFJU0oxHn1yKp19YhZo69aiyvjrk5rLhd5IOvqxqYHtdZueZnmssGQZd+gb99Ow8YKbvsAt9uCcQFZYFzGYZ+MYrrJc32/xoa3eROIXPA2RqPtY5hd9ucNN9PMSAvSKuUm3Hjr1VQvXAaoi9h2tx4owCFTVGoSa6Ip0ugwQPpIWoK6Y0GnAPsdNfTJ2CH7w5Gf/14kT890svjJCvvPzSRWEi/JVJ+MqkF/Hj1yfj5ldewf++/CIefPElPE6slgH3iUmv4ImXXsaTxHQfmvgyTs2bBGx+Fl0EtizdGwh0txPonj8LW34hTpXk405qAO4oO4cql+M9BbqsXggQIOqtFniCQQrvFudGWC9QHtJ1qsOARMcMJN1JOuaJDBxGFb6b0mUVQZTO1bW0CN2ryW6Dzm5BhUqBBuqNOANhdPdRnGRULF6TIukUxxHoTFoCYj+xXxtCCQ/8EQcxAwe0VgU8ETuVSUqAi9YkqRckkzECLwZszjuxaWswDLM/BGc0ggixZDYXY0CJEEDE6BmjFD/SmRD35tXoWJURZ2Amv5Pzwj7FGS636yDXynR5SdL6xiZotBpEopKaQHacLg8k8X5+ihYVWqnXYLW7hs5KjuPI97+I6VI4s1p+bv4dDngRoB7BkEr5ku5qQJeZl8waJbCVWCSzS36OzG4A8a4+eq8ptNqJWJliONTSiXe2N+B/vvk8JnzkDkyY8C184OM/w849uUPXUJlSLycYkcy1eABx+Pvlxlww6csDMut8h4F3KL8MvFECUdl87nIykun2QKdtx9GTOaiqa8a5nPM4c65UrL8w3um66SKZ7V0QeRDN7aNerDOMdqMPReUGHD6pwPptFXhr5hls3lktBtQmT8/C4lVFaFY5hBWF0009QcqndjwmYwy6NgKRGDE3pUqFJ5+ZiIceeRJ33/sgvnvLj/C9NLn5+z/GD398+4gwEX4Lhf/oDhH/pptvxbdv/iFu+dHtePzZiXhq4ot46PEn8NATT+JBkkefegb3PfYkjsyZhN7dUxBb+yxiq59GfB2D7hQ4Sorgr6jE2aoy3FZTgO+VlKDM6X7PgW4okRCWADwjq5c+xIsmR3B8Yk7yddLsNTomIOPuP+tBu+ljZuuAzk5mrdSNiSehtjig1JtRq1DDTM/tJMAsaCxCrbYZPf2s13LB5jHAG6TufTKADrsKzpAOGkst2m3VaDEWQe9ohNmnJV+Jlo4qdDjVlC9iZwS0beZ0O11idwSufnqWFqsbTe4gqh1+NBPwuIMhsT4yz6qrsNpRSmGlRhuJB/W2ABosAdR2eFFKeXUS65amIg9VzOso18p0mcnKeZKY4AWVgnyez/GyfPwO+Fg+P9qNYLr8fQ0SoEXD9C6pwgZ4k1YvwtRj5M1beeW+sYHwykF3BOAO6Ut5EJX1tqMdM/u8c1UoaTRjfVUC9+8P4fZtQdy6OYjvbQjiv1aG8b2NITz49lHc98BsvPzGRsyatw86vX0ohUHE6TvlqbKcP48wp4oQS42T8BKtXRnrVybHKgfZ2kHKtwy8xLQzPOdoGanTTcHh5AZSg8ZmtVi+kxe3UWvNQpfL8dlkUOT5EsI6XYs9KHS3smgNHkrHhap6Ew4cbcCuA7VYvq4Y0+adxXSSd2adwatvn8RbM7Lw4utH8cjTezF9fg527a8VuuME1edx2enyR8bMjCVJFadF3YYf//pufPWHP8a3b//pRfKdO+7CLT/75cXht1P4XRfCv3Xb7bj557/ClI27MWvHYUxavgGvrNqMl1dvwmtrN2PSqo3YuGgrCubtQu6cbTg7bRNOv7YGWVM34NTOPTi9aydWk/xu/w7Mr9gAg9eAfvq4Mj1DJvnDga5JLB6TFGsKU8s5xHRHXsMfDJ0nYGW71ngigqLGSjgiPmKePJCVgtVjQZNOiypmtO1N8MS9UBnUxKYDBKbN0DmVaDXVw+rTQG9rQZulBR1uPTxRB4xuDZ2rgcnbQmmUoN3ZAKNTh1RvJ9whK8VvIlFSmaTQR2y1zWQcAbqd3VT5Kd9Khwe5eitOKA1o9QTg8IaociTQRflT8NoMZjeU1JVTuMNQukJQOoNoJr/GbIOXB9yozHmNZbmcrpdcK9PlNHhXFH7eK3X8DbEpIO8PyG4k6PJAGgFKLCyYrofN9VSt1EMxQdlYj9ZWDYGuuCyjuxLQZcBloOIuutCRDqkTZAuKdFdSpsRP7ngN37h7FX601oGvroviW+vCuGl9GN8k/7sbw3j8cBjFBvoehq4Zy3GjxIsoMfjKeWEb2AQBMgMzO343Ul0bu4HhxkdWN8h6Xm4wmPGmP2cmSQddZqEWG9vX6qDW2cX0bK3OLKZuq9QGdFi9FF+ypb6ccLkzo5WB2EdslX27iydDhGAj3+Fmc7GIUGW4vFHBdt+YdlrIK2+fIHDm6cguamiTVzY5gk1qjEaj8Fs1Wtx297342jWC7jd/dBu+/9t7sLROj52mOLboQ1iuDmFpWwDLtAEsNUSwbU85jr2yFYff2o3Dr+3CgWe3Yt0zq/D69Nl4c+58PPnia3j2uWfhq7gHA8EaqvzvIZMxux1BAqRWg7RiFy+yYjGbRQVlpttNFZzXNBAmZQRq/pCLWGgbtC49DE4D9hYex9n6QgJDM8weB0qaS3Gs5Ayya7JRpcmG2lYFja2OzrXBF3ERYAdgtDWj2VACk68d8Z4YXEErtBY1XCE3sV43AtGAWBSHu/7SqmeUXwLMaNIPP6XB69729fSOmBwhNQj0PAQYtkgMmlAU5zQWtBLg2nwEutQd7yGwbjbb0Wj3otXhRYvTT11UBwGuHzVWB5rsDLoRqUFJEQuiNC8qv2uQawFdJhVarUYs0t9OPqc3Xsffj06ng50aWD35oVCQQgdHqhfodzIRE0y3h1h0J71voR9OxgmP6Tflk4V7M3xvZtWyGw/o8mi/0OFSZRaAJbro0mAZbw2T7nro3c6evw8f/eRP8T93r8dtO+L4zuY4btkUxs0k3yOwfeRgCPPzQzipiKDMkBi68tKO7xJPdI7IJ4NWOJYSz8zvIULfTohYcJLew6Ucq0HSB/644WB73vRnHi0j1QvdMBosyM4+h0NZxSgsr0F+QREO7DmMU6dzUV6tIGC+PINmNYLJSqRB5UB9sw11zVYUlxtQXW9GWXUHdh2sx26SdVsrMH9ZAZasLsLSNcV4feppPP/qMTz01D786Ofr8eCTe7H7UD2ibMZJPaVxgy4PpMn7o6naNAJ0v37rbSNAVZZxM10C3Vt+cy8WVGiwps2LpQonFjW7sKDZgcXkL271Y9O2Iux+ai12Pb8Z+17cjgOTtmPjpLV46rU38PtXXsdDL76Kp15+FaaKh9ETqqeK9F4D3ThU+nZqAb1UyXgkmViAj5luiD7AgBjUErrbvhT0VjUKG/NwqOIETpSfJv8UsmtzUK1Woqy1GVlV2ShoykMrAauJ2KzFr4Mn4kQ4GRGLkvO9k8kgzF4NSQd97PTxJnhmDQEyV/hutslloWdPSfploYPjSk8VnidTMLjygjea0aDbTR89VRq9ww29n2clBtBI4GoKhsUAGasf1C4vas0OtDgCqLX6UW0NoIqOS80e1FlDaLb5UW92EggT+CeS4EV4RpTfNci1gK6JnpU3N2XndDlx+tQJFOTnXV7y8pCdlYWGhnpxLfderFaLOHa40wbSBvuQIqbbRXnxBYj119VDqWiBWaeA12lFs7od1U1qtCob0KYnAGcrnCE3HtBlKwVmtzLgygx3tNqCu/33P7oQEybcgq8Tw71zTxLf3kSgu0ECXGa6L54MYV8dkZ/ikNDr1uoD1EB3D6UwtuOBRV5/OUq9OXk2HQuDIfs8W4u767yoeCiaQA81LJkYuOxk64YLwCsNro1lTjYMujyQRveXFzFnawXJPExqEOxOn2SCJ1gsqxjGFp7KqzN6UFXfQUBtIKA14HyRBkXlOhSUaHHybAtyC9uQV6wVwuHFFXrs2FeDmQtyMPG1I7j30Z14e2aWuI4nulwx6LJwV5LVCz/6zT2XYbq/wLduu0PIcDiB7s0/lcJvot8Mut8n0F1WpcEGrQ8LFQ4sUbqxROHGcoUHS1VeTD7ViEdXncLjG7Lx0Jos/IqOf7/iEJa8+TaWvfoayVtY9/Y7sFU+iK5g3XsKdHmAKxCNwGSz0gcTEeGsx+X95CJhH9QddQSY1C3tCkPn0OF8QwmKWspIcpFTlYfyllroPC0Exg1QmhpwriEfHW4TfeC8ohKzYwls5AE6WXjrIgZ3OZwZtXSOdZGXZ5gj7XQ5vgTozMhd9BxtviDaieVa/CGE6TnFUpF0nZ2+j3avGx3hCNp9YRiCUWjJ1wUi0JNvJLBu9/hgJKCOsumaDLpp5Xa1ci2gG6V31K7Vil4cM11W//C1zIAvJawuYJVCW5tagDb3BH0+r0hzJNMlhkl55OngYisi4V/I6wDlm8tcWEgQeLF6QnaXA11/kDd/pXc+BFCyhcJowPXTO7jjF1MJcG/G//vWK7hrWwDf2JjADzaHcNtWSa3AbDdbGYTWEYXCEiEwjxI4UaNK+b2c47Lvp2fjZ+ABo0zgyMDIyxry+rP1CiP6BnjW3aWBV6hK0nS8zOjHSntYvRDtgtniQu7ZPGSdOoczxHhPnyumd0IYNmSbO/r6sYRVFQySMQJ9lkRnD/XUyKdeRIoAnn8zoDs9UdjdESHL15XgsYkH8bvH9uAHP12HR5/djyOnlGIw+YrUCwy4/GHxYifKVjVuv+d3+Mott+J/vvcD/M/NI+XLJDf95E58965fENjeha/84Ef476FzN/3kp7j5Z7/C//7gx/jiTd/BN+/8OWaXtWK52ovZxHDnNLlI3JincGERAfAD2Qp8Z3sO7thXiO/sOI9/2HgWv1xzBP6ly9C3YR26Fy1FYtbbCFXcg2Sw5j0FumynG+C1Cei3zCgZKIMEPi63He0OFTpCBhQpS3GyLBt59aVotWph95kFWLsD1OWPualb4kC7VQWNS4+4YKsMhBeD7bBcI4hdDLpSeGeKLRKIqcQjVMGj6E7F0UXd5s7OKDH2KBLd9EGRJLpiFJ9n4iUIkCkOSTeHpegaDic/SWkleYseNl8TDcGF+1yNXAvosmPg7egwIhaNDoWM3/G9zWbTMFvmb2qkTrcfsZBf7AUYCkehVrXBbNAKQ3l1iwq80ttY7lKgy+DDC8gIRjgETLxS2mgGmaTKft/DCwhwf4TP/s2vcNe8anxjSxceORRGk6Mbak833sgK4MkjQWSrIjipCOEESU5LEIfq/DjWHEK0a2xwTHc8CBkIZQZdBiezPYBHX9qEf/nGqzieXSeuGeQ99DI4fp2dDHL0XOn2xpksGtJBl2ekWWxeVFU1EPDmo7isGpV1StgdfsFg2RRsPMJxO6jH1qK2C1OwljY7VBoH4R8fO6BQ2dGgsCC3oA0799dg+95q7CSWu3xdEVaQLF6ZLwbXWHYdqKE8xq6c6ba364Q+0mjswPL1G/DW7Ll4/vXJeGHymyNk4huT8ebMWVi0ei3mLV+JF99+G89TGIe/PWculq3fiNenzcCzr76KSdNn4mCjFtl6N/a0WLFHZSOxYy/5B+nBFpQo8fihAjx7uBTPHS3F08fLMPdIHhx79iCyfz9Ce/fCt2crPE0LkQhpqCK9d2akMdMNEjjxylwcxjayTreTuqHEFtupm1JfiLP1Z3G49Bh14xpRqaiDxeUQbIfZqdD1EhjxIFo8GUE4HhYDWtcKUJeTkaB7AdiDITesbh3MXj18MSdcIQvsfiOcfgMcJM5gByzedtj4ONQBe8AIi68dVp8OVk87XHSexerRwszpuI1weK30bFF6F5JFwNXKtYLu9XQX2elikAA3Qt3+uOjpBKlcfR4XsSMv3C6PmKAylhsLdBnUhB6X2Jc8cMaAxOsepDse5HrhlXWY8MHb8aG/uh3fuX8dvr89hdu3U+/DLw0asvrA4I6j2ZbAgvwgSQjuSBdqLUnsqo1ixrkANO6xZ87xPfgdcF55/zdvIPNaEcwaecDpzTkH8ZF/egIf/9enkFPYTHWwZ0zgZcbOzJ2Bly0ZmO1m0u+OBN1OMQ24TaNHS2s7mpqaYXMF4OfZZ2mDZOMRHkSTB8ocnoiYbSYfs88Daiw8gMZxWa3B6g1+X60aF/YfaRQDajwjLZa4QqbLAz+851eMLmpRKlGQl4+6+jrUp0ldnSR8XFtbi+rqalTXVA+HsV9TU0MtUJU4L37X1qCyskqE1VRVjpDqygoxPbO2uobis9Siho6rKY1KCq+sqkZVNV1bV4OSklIxY44BK9MzZJI/BOiGeMR+CHS5SxpJEHgS41FRN/Z0aS6qtRVo0lfD6rfAYCMQo0ZNMk9iEBoCIkqTAbiHQTjtHu+WXAy6PHEgRfl2wO7REIhqBZhagnqYAzo6ZgDVEiBrCUQpzNNGz0Nx/KxbVtN5rQBkZ9AIm1cHG8WXzpG49dQdpO68/KxXKe9p0CVA6eQeAb1/VvvwQvbeYAhep0VYNTjcHnSYrXDYzFRp2ZzsAtu+FNNloJVZLvvcHR/t1m0+gwl/eSf+4qM/xd/+8/34yQo9bt2ZQlmHBKKOcA81jkm0ubtwTBnH3PNBBBJSuShdvTiuHcQJTR9aHFSW3RfXFXZch7gx4UE6Ht3PxHJlYeDlHXe3HizHl26dhi9+bzKMJgelMjaTZnM3Wb8rsfluMciVfp/R6gULlWdpUTHOni/EyeNHUNvYInZ64CUdL6gXksTKUxmZsyy8gI2+w0f1wUe+HwaTHzqjdMz2ufzbYPZDT77REoDRHMDJ7BYsWFGAF14/htt/tRGPPXcAK9eXiPvE4iTjAV0WnklTVpILl9OM+to66NrbEQn64SWQYPbr8/qoi8YfRoBabxcioTACPj+iBNZxotQO3qaGfH45XEFGCFUOsXMADwaJASFJOJxHdC8IV0zpmEfdpYEfqnAEtPwhGw0GkX6m/GeSdxt0h1cZo2fkMB6s6unuJKbD3RwvAsTwtLZWeMMWAuMgnedZY7x+An88Q6BLeWRzHBa2q5TvMcLOlcPSf5PweVFGaTI6zmgRKhASXmVM7BxBoCuXJzNsX8gBs7MNRkcLjE6VAF+TR40OlxpWYrhGhwoWt4bYOv12S2J2tZLfBicBrY18G503O1qJEVMXm44dPhNiSTaf4+fNnK/xCJfxexd0++lbTtB3y0wtIXqKGn0HbCYdoiGquAQQLRoDOvQaOmbg9Q+llBl0GWxk8zAZiDLpcRubdfjU39+LCR+5Ex/7+B343tMHcfehFPbUR6EkEJ1bmMCLJ8M4oYzhwf0BvJMTQSjF9WEQlnAfDqkHsV0J7GoBdir6YfCNZLtc3vx9pJd7NM5s8mLwShde2tBJYL+t3Id/vXkq5q84NnT12G7YomGogRltvzsMumIgjdJ3++kd+CR26g4KczYOM5rsMFkJr6hxEMsw0nvishWDZ6xWEDPRJOHfVgfPbOP1Fbzkewlk2fcIn4VnohktPuGbrPwuvdiwvZzY7Um89MZRPPPSAezcX02gbxa67nGrF7irGwgFsG3bepQUn0dzUxPUPMoa8hNbcZN4iNnQQ4bDsFFFNXvcxGoCxGgojH67KdzgcsITkZTy11uY3fLgRwcBxXsSdIWagIGPATQJn99DDRRXyB76WDzUvYuii9ec5UZGACqDrpSOvJ9ZehiLDJBC1TB0no8l/8J5SaTwCyJdN/L3EDinCHTpAx+9iHmK8heIEZAE7WI2mydkhzfigJuO3X4zsQsXgYENLmLsXjrnC7M4CKjlY4pPwjPgOB77fjoXiXgo/6z3/QOCLi/t6AqKWVPvhmO9JldmJw+k0fG1uGgscRHo8uCZzPhkP9Pkh8XLD2PCX9yGv/nCQ7jl8Z34yfYofrY7ht/uCePra0P4ze4QFLYkNM4Eqk1JRFJcHn1ClbBXNYCdBLZ7VBDAW9TRh1in9CwpYryd1GDJk0YYpOXnTFGZewmw0gFxtPDi6R56hpMW4Jnl5fjHL0/EO/MPEZiNnOWX7mQ1AzcyLNKg2gWAT2e6bDLWoTcgvyAPR7MKkXX0NE4fO4aC0grkFRdSWBHO5hTgxMlsHDx2GmfPFeNcbhGBqFtYO8j5ZPDm5Rp1xGrV7R5qKL1C2nQeKNRO5JfqUFbVgZIKI4rKDKisNaOm0YoFywrwzKQjwmTstl9uxJMvHkJOgRaJFKtGxq1eoG4xdXmsVqpsvH12YwM0Wi1c1C2y2e2wkgTCEbE/VjAUgsPpJGDxw817ZxHrDVCYiVpwr88nKkeme1yLMNDyIMZ7GXRZwrEYDA4GrKC0BgOxc7+Hews++Ok44POQ7xJlLLqgAR8Bnw8++u2nsuY4/Jy8Vx3HcVNj5/FLcTxU3i7+zWv2kvgpHl/HEqBeSJDO84ANn+M4XvrNe5Txbzfdl8956Hc8nsy4c4TY/YEXK+fZcvSMbB6U5C1/GPBJuLLJwvG5bPmYAZ3f+TCwU7nwGg5sgdHPazOwjlqs3/AHBl1iujwHnpnk9ZQYMz1fSAAlz9+/lnsw4PJqZfLC2zIYjGa5bI876tEFIN7xS7ZWuBX/8/3JuHtPCN/anBRWCmwi9pXVYbxwgkhQz4WGx5/oQ5mpB/sIcJnd7mbAVQBZ2l4BsrLTupJEoC7YMnO582Ad++EIsUZ6fl7sW87vaAmF4lDZE1jbBGxtGcRPfr8BEz5zP/71W6+horZ9KNWLnZguTGxXXqIyne2mgy6rD6x2D+qbVNDpzWhVadHYpIRKayRgt6ClrUNsPnrqzHlU1SnR0NQqJlKYbVwXIuK9sfDsuvomM3YfqMGGbWXYvqdSrKvAx7yU46IVeVi3pRTrt5VizaZibN5Zjk07yjF3UQ6mzT2Dl988hoee3IV5S3KRfV51ZUyXP162QeQ1dfkjrq/nmTStMFB3noWNyplp2hkI3G5hfmOxWGA2mdBhNIrzvG4Dn/tzBV0RRvcLxuNC3AyeBGoxnhpLAMZLLNo9BIhBNstL0otJEKukngQBYjgaEWFB6inYiCV7w0Gk6HycwMpNxxZiy75ICFF6N6xDdjFYExhHYlGRjj/IW5W44ed3SNewZYST0mWwjiTiCNM1HuqZOPxe6r4l0D8CdGWWzhtrhqkr5YDZ6iSWwVM+CVycHsq3T4jTR70bahz4OezkOwjsbW4vLDwpxOkW4TxtmKctizCHmwDFTQATo8oigfXVypWCLu8EwOzR5gxQF9JHldR7zcJAK8QpsVweVOGBF/6dKf7lxELCSxQyEIju8BDAyF1sBl32pcG6ka6+sR1/9dlfY8IHfoIJH74Nd710EI8fj+O2bZJ52A83h3BOS9//UJF54304oOrH+kYCQgLabcRu97b0o8JE4E+gnu66iVX3E6inOwZdVquwGswf5F0Uxl54PUigW2zowop6YIsGeGltNT7+hccx4W8fxXd/PlvYE2dy/H65gZHZLj+7bEKWDrq8iLnR0IHa2kbU1KtQ06BGW1u72FwyQI0FW1GwbTOzWt4Wn3/LDHf0QBqHcSPHafNED3khc/7NA2McxrpaHkTjd82DaJt2VOK5V4/gsecP4M7fbsbbs85QY2ISkyOueLsetmDgyREMugyivBaDnVgurz6WSMbhp0rO9qhmkzTrihkZAy7bPzIIMzD+OYGuPJAmg67E+nrERo5NrWpoiP0nedcFYnxOfwBVilboCNDk1ay0JgOqW5qoix6iONRlJSCtVCmgs1nEjg5dvT0wOiyoUNbD5LAK3Taz6VatBtoOgwD8RE83pWlGdXM9AaALnXQNp6dQq9CmbxebVEZTSegtJhHmJfAc6B0g0DVJA2lD74v1zW5iMG1GC1T0QVt9frRb7WjRG8WavSp65230PfAuwa30XK30W2nsgMJgRDOFtdAxh7VZrVBSWINWDwVda6DvhxdSF1vDcxlepVwp6PKeVmLpQ6oAbHMZZztMqkSy8AIuLFy5eDH4CB+L31ThyJfjCH9IeNSeDfIZzJnhxuhe0cQAYtwtFvE5bb7PhXtxWJgqcSZh3SfrGtnUSAACCQ8gyYCbieVKNr/9OHm6El/62jN4c9o23PvAHNz2i6mYurcVW+qS+OqaEObkRyi2dCED6On2fhxSD6Dc2odi8wBKLAOos3VTYzsScMdyDLj8fUeiDKysL70E06WyabSmsIpAdzOB7pvbm/Hp//skPvXvz+ED/+cxrN6aO5TqxY53/E3X7bIlw2jQZWC1WGxoVSpx9Hg2TpzJQ3FBPkqrGocAkt7RkMjmYZmEy95iD6C63oSSClYl6NGssqG5xUpp6ZFfrMHZ863YuL0csxedwwJivjv3VWPB8jxMnn5KTI6479EdmPjqYezaXy3e5xUzXRl0GxoaqOVoEyDHC5v7CAx8xJpsxKa428sDWlaqXAzKfJ6BV2bEmdK/VnnPgG6acDfaQs8vdo5g4EoDZDE4lqIPhHz+Paxbpd9SN5y72kliDQn6TX4XT5tNiHUZ4iSJTgLTVJy6/ARWJBzG4MJTijldXttA+HwfTlOkK6ctPbd8b+n+Un7lMJ62yQNpdmK/nbwEJLNQyruPWGqb1Qa1nXouDheUFita6ONWmq1oJQBu4gXTGVjtDuiIwbaYLFBTGSgZlDvMYjZbK4UJQKYGxUysfXgnCblsrlKuCHTlgTSqwPwu2IQrTN92nFg/x2f1B38XnCaDGD8/py0LL1jOjWof+eLe1GBwGXL3l8GcGVIvU8h+H5DIRyzsFqqCnm5qjHnVNbqP9C6kJSIv5XhgitOUAYtBRqgWCHQYdEebiPFuGBqjU2wjH6LeiOQGUaxwIFcVRJgagKk5IVSbU0Pn6BoCTLWnF3FhncAMlvIuTLhGlme66+vvgy8qfStcJv30Oxoj1jnEDjOJbCUQi8SQ19GPdWpglxa477UD+Og/P47P/ufz+Mg/PYnv/GyWAO9Mjm2QRaMjnl/SaTO75PvKoCsNpAVhtrmp7Hi/syD1QPwwGK303oMEqOOz1eWdI3ggTdFqE/a4jUor1GKZRxcBrw11TWYBwmyz26rh5R5dwi8o0WLXwRrMWXwOk6edwoz5ZwVoh6507YXRoNve3i5YLoOrUD3EqUUmny0UbBTmcrmEyoEZLpubsc/MV2ZO11Pe06AbTwi9GXfTWdK3H5eEf48Mk+OwBYOfGjOHpwMuvwGeoJkatnY67qBjh9gAklcv0xnNYgEVE91PSyxSR6CmMxpFHtLTlSTT/S/85m3ie+nD5vScBEZi3V0CB2brfK9GrZZYrQUaAlb2G7TtxGwJSEka25nlWgSTVeoNYmsgHX0jKmpwVcx2tTq08bk2LZ3Xoq1Djzix7OFGKUM5jleuFHQZyDi+vr0NBfn5yD+fi/zCIjTW1+HI0ePIPnsWp09nobK8BCeyziLnXC6yss4Is0UT5ftsdjayzuTg+LEjOHP8GJrq6gREsf6VGRRj7mC3C72uHbAaW3GK0iorL0NJYS6KC/OQlX0Ox0+eRl1NFfVQxh5s40VjWMXA7JnBRAIaCWwyWSxwWQSCEcLMkeHBzgG4QymcbElA58lkczsyviPcjSY7lS31eka7JLHfHE0c2+sTsFG3OkbsnxuVS5mLBQkYeUH9TsIHV6gTW7Lb8NLqctw/+Qj+6Wsv49P//qwA3U/9v2fxuS9ORE2DbuhuFzt+j/z8F1QMkv2tDLq8iLlOZ0F1bTPyc/Nw6tRZnDxzDkcOHkdjk5rAT9p+fTzCJm5RBnkW6g2xmZnTw9OZ43B62YaXJ1AECZgJiFVONLU4sWhlEZ544RDuf3wvfvTzDXjgib3YtqdW9IyuiemyeoEB10xdSQa8UJh3lfWJeFZiQMxymdnyeb6OGS8Dcab0r1UYLN5LoMvpMsB20LMbbFb4wzzAyFvYh+lFst7nckLxqBz9VG7eALXMQR+BrE/4Ng+xGL+DAJGtAQL08kNCl8pWInZq5IxOB0xuF0wOJ30gnE6m9DOLj4QbTj/bEWu0VNHTQJdA0UllXN/aSgBqgFpP4KlpJ+A0oZWOGVSVBMBtBLRK+jbs1OuJEeizsK45libRBLEdYnx8zGWVqQyvVK6G6fIUVJ60wOTBYbfBRg1JKMgLOxHLdzjoO7bASu/QSCydB4LN1KA4KTxC1/B3zd+0Qa+DyWgQ62mwbpXn9jNLkmeF9fTwAulsXeMTLCcp2DQPJlE50/vy+7zUvRdRMzpeClCyXogKcGGQYcBh4edJd/z8bAfMrDOT49KpNUbFgNnlnC/RL+x0u/tGlimnUmjowiOn+jGluA+VRmL59ExjzUKTAZcbjb2NKWyo7sQrBYP42cJmfP7fnsQn/uUJfOL/PkNA+7wA3c/8x/P44D88hgUrTw3d72LHZcoDajLoChVDGuiy2ogbKt6C3dhhQ7vODLWGvlmNEYYOhxgkYwZ8OWGTP4udSY0b7SR6klatHZW1BlTVGalhMAo/J0+Fw8cbcPBoPfYfqcOqjUVYu7kE85acw7OTDmDj9jKcy28V7/Ca1Qsy0+XwUIQySh8Rs1pecYlH51nVwHH4PPvv+4G0NOHnjMTjBEJG6u7Ryyb2yZVXT+zw8sLxLkg7VXZZdNSg6YRvot8sdEzdez2BAIuB3odRiE3YfwqR06W4chgfD99PhFM6dKylNDi/Vnp/XOF5qq6sXohQhfbS+w0MS5RYBVU4OmbVA4N0gLqOPHDHu1owa+auOguXx0UypOu+HsLpXSnoXm87Xe5qjwbda3XpoBuWrRaGVQsj889mWzyQNRomR7pLqw0u57zxHkzO78WUon7sVPRhXW2PUGPwluaZADcSSUDjiGNidhdu3dOPb+3oxy37gV9tduILX3sJn/y/TwuwleWT//YMJvzNI3hn8fGhO17s0lUMwqeyGDGQFumC2WRFUXERiktrUViuEA0WD5ZJqgieNTdywGws4cbCLWaaScJsntNgnwfxeCBNrB5Gwjp61vdv2V2NN6aewjOTDuOuezZjzuJc1CusdP46DKQJpkugINQLsSh1X4LiPIMus1oeQGPwFeyX4jIIc+XIdI9rkfcK6HJ66SJ0qvS8PCONt73hvIltYchP9faKQS3e0LFzKEwWAVZXKGzaxauKJek4mEogTPfmRWV437QY+XECuCgJ7wQcpLAwVc4YCVtUJDqJkRK4Rlk3KadJeWb1hKzrFc9Dzyieh31+3qHJKcMydI5Bmmdf8apqwqSs60Ia45VM5XspuR6gyyZIbGrlckUI7DheHDzF1uvjNY77xeprHjpOUTpu6lryzCoGv4Swb323QZfn7UvrD8gmU6PvIWYOkrw7bhBqbx+WVfViUm4/au19eKdkEAvKewU4se3taMBlHW40Esfisk58bdsAfkCg+6O9/bh13yB+fqAL37p7BT75r08OA+6n//05fOHrr+K/vv8Wpm8oRs8YbQO/53QrBla3CICXmS6Bq93uRkVVJfLyS5FbWEV5lACTy3G8wtfwxpS82SSLaUh4g0oRRn6r1iV0uIdPNOHg8SYcOdWMGfNzxNTfSW8ex4NP7iHwPSTWZGCd7jUzXQZSeYAsGArA5vVIlgrElpjZMshyN0zS7ZqpC+d8X4Mulw2b1cnCi6dwGPvp4dFYhCRM54gRks+mXbzPmSziuiuUJLWgXLZsLdGobUV1awvKmhWo1WhRp9XS71Y0qDWoUapQ10LHrW1o0RrEsoJNbe2oo3ONbRqRP7Yi4G5qJCKZCcqS6b5CRuWZt7sJkUTEs9Gz0nF6OpcTTu9KgfdaQVerdWDlpkpxnJ/fhhNn27B2YykOn1JixdpiKNRu1NWZMHdxPtZvqcCWPXVYsbkCew42CGbFbjTo8iAd2zKL2ZTUKF7K8dTrTE4GXbbTFbpctnogoGF9bvrz8jFbvbAq43q6MN1LstEdRJa2BzNL+/F8Th9Unj5UWnvRYKEGPJyZ5TIQd9L3uLEmhe/uHMCtBLgMuj/Y3Y9fnwJe2FCPv/3iM8P63I994Qn88JENmLarEZv2lyJALJIHMjM5nqEmgy6zf1YpDIMusVreOUKjJ1Joc0OrN0GlscLp5V16JTAdr7AZmNURGiG8eLnwSdqNXjSreEEcB1QEwAzCvLtEXZNFrLewfmu5WNqRf1/zQJqWKjKDKutuefuZBLErXzQimJHHLVkxcHxmvGxS5na7/qzUC5mEWSBvV9PVlUBXMoLe7k4xSNzVyXkmkOGJB8xWhGWDlL9M6cjC59OF2Skz15hgrsR0KQ1muxGSYJxYB72bOJ9n5kt+IsF213Ek6Dpe0JzNtro66f3QMYMEW0Nkuq8scv5kn98ti1iYnRj8AHiEvAf9VBHkOO+WXBPo0ktYt74QT718jNhZCgXFWqzdWok1BLor15cR0J7H+WID9HoPZs7PFUC7YXsVXptxFssIkKPU5WaXDrrMmC0mAxrrGmDSaWCmb1OtaqXzHhjb22Aw6uh8O1pVCjS1qGG1UwNIfoxANt0Ngy4BALPbsfW5A/Q8vdQDuX6gy7PN9lVTfr1So+KJ96HI2INnz/bBGaVnDXWjzEjda6FeGAm4/DtEYNzhimMpMV0G3B+yENv94Z4+zK0BXltThk/+yxNi8EyA7j8/jq//diWmnYvgaEsKxxQxKtOL6yc7ttrgcmDQ5XKRbWkZdMOxHrQT2dix7xjO5OTh+OkcnMmvh93DpnzJEfm8nLDawkM9nrGE48hp8gI4NmcYR08rxULmdz+yE9+9bTUeeGIPjp9pQTx5hQveZGK6zGJl+1seZbd63ML8xmIyCzBmwOVFaNhqgQGR2W+m9K9V/lRAl0XaMSFOgNuFNpMLu/efg9PiQSTsFxsfRuhDlZ7h0iAl1BXEPriKsfBKVdy48Vq6bPoUp5ebIIbJXfxuAlIWAeoC2IfSSPEWMgnYCIDcnhCioSg1mAH4fSEhcWIa6ffMJPw9MDvle8vH3ZQmz/w5X6lGXrkaGp39it7L1ci1Mt3u7l4CQDuq661oUDgozz4oWxxoaSOG22hFu94LGzEcFf12U+VVtjrh8sahM3iJZUnWAKOZrs7bjSpTCg32bpj9nfD5iZzQ++A1S3j9jbjoBUSoRxElgGNDe2mL9nQngy53jSXQlYB39OI2nQRCSQpjsL8ezh3vR6EuiYM1XijtUkPAawHr3HF6Ht6+vReVpi6h093X3Clsb8MkrFIQgBuKY3VlCvcc6cF3iOUyw73vWA/u2N9Hfi9O63rw2LTj+Ny/PobP/8czYsWxD/3tQ3hp/mnMK4ji7eJBvHGe32vmHgIPWnJ5yKDLds0y6PL9eQ80ngBjdwXhJoYrFrchBsyMmHsNo3W3mYTLnBkt743WJvZI8xBr9qCtXTpWa93iu9AR22Vf2epAfZMVazaV4cCxRgJaJfYcqsfxLKVY5JzTu2r1Aut02WSM2SxXMp4mzBVdZrpul1uoFPgc63TFykoUl4Hxz5npsrB+s7srKdZZPVXSjHsefAu1ZQrknD2N0yeO4NSJLDFSzmDB+WMZnUZ3bw9igRA6ispgPVcIV2UddNSyF5UUUxe4FiqFEgqFgj6MduqBEHAy+xyVhkinpwsWrx+nyuqw73Q+KmuaUV7Gq8I14fz5Qvi8AdFlHX2dLPwuuSFtaWkR92tubkZlRQXMdjPmbzyBT31tMj797bcwdf0RKlViYu/Cu5flSkHX7g4KkBztRiVxRY4nJaQzXTeVbRv1CJXEYE1mCzHCADTadgICLxESD6w84Gyzw2yxiQFNg0EPKzFgg9EIu80q8pKkXgmDLk8hlUGGQZdtjNNdINErTc29lgdIc/bYANSeHrx61ImtFSHqDQ3gcF0A806asL06gin5nXg7N4HX8vvwaNYgslUxsTFlNCINnumccdx1oBe37B7Azw/24Z6jvbib5VgfnsvuxjlNAicUYby4qRF3vXwE/3bTa3jg5Z3YUuzEEUUCR4jpHlEmxrRjHg26bMEwPJAW7YLVbEVFRSmyy5tRXFKOnNNncT6viLr56uHZZ+MRNhtjJptJ+DwPrrHZWDMBbnGFAVnnWjF93jkcONqEmgYLCkr1Yj0GjhuMXKN6gacB80r5zHRZvcATJKxulzjuMHaIcGa6rPNlAGbzGtYB/7mDrrBHJeFV9uubmvDEE69B02qFTq9Bq1oBtbpNNGjci+AeQibQ7eUKrTHizO+fRe4v70fBS2/CotWhtqFeAF8oGKKXK7HPTGArSyd1R3mzy+Pn9iO/LB8mAgC+N79X7smMx66a88ffBb9fvo7VTn5icftOluGXz23Cb1/ehJ1ZRYIlvWdAd2jtBbab5BF/Wbg7zbv3ss861ssKX5d2zAb9PH2Xjer5u6pWGXGqtIUqfgsKFBYx979NQ6DrJIbUroNa0yamq2rZvrm9A82NDVCQqKhudRja0UPAIoMum2Slg+5oywVTsBcaL7PC6wO67LhROk3AeLgxgh11MXx3YTu+Mr0Fzx/24DtbO3HrjiReOB3H7w4nceeuOJ4+EcPykhhc1O3mbnkxMeVKSy8ePdmD3xzrx5TCXryY24ffZ/VhD7HjAyoGYGK+G414fE0TVpdF8NPVJuys9It7c3d8IEP9ZDdswZABdJnR2h1eKFpa0dhmpJ6KEuWlVahrUKFVaxIAmGngbLSwSod3A2aWy+xWsF1iusx8GxRWnMlV4fDJZqzdXCYGz6bMycbk6afxzuxszFxwTuhyn5h4AG9MPY3sPLYPZtC9CqbLFZmZLldKHkBjiccZvSmTFIc/clmny4NqrGZgoGYwZvDNlP61ytWCbqaKKjtOJxPgXbMMgS6nHaVysdtd1M2UdlAQlgIpyWqAy5F7CHw8Og22HGBdbMzvIHERyPJeaxcmQvBzyTL62nRh86JkVxyhmBvxFPVSKIyZhZwO5/FyZSDfg31xHV3PW8bz1vFCh8yMPXF5NcW1SiZGxHkfC3R5cgRXLLbF5CX/rofYqKLbhxanYVCIUpZ8RD793YC3Exjn5gsjnKxe4EEpBhd5csTomWgNzgEUdDAQXx/1Ajt7uBcLCuP46Y4IHt4fwE+WaXHvWi0U5qiYGDH1fBwPHYrivoNx3LQpgf9ak8DMPLYSiBFWJDBAPTpeg3dReQ/WVfMEhhjhSBxaZwLH1d3Y0jSAh0/14ZdbXLhpoQE3L9Lh/76txo5yaScNbszC1DBmcrzhZjroRondDoNuhMrMTt3/Nj2RPjMd+4hQECl0BIiNX6xGuJSwnvYi6wUSvcknwJfX2eX1dDmcdwa28y7YamK95Xqs3FAstup55a0TKKs2IhJPZWa6ckVLF674DLgMoqwy4IXIuUvJzIZFACqJ3ecV8dionLudzJRkpsvMl1UNXEEy3eNahCs7gzzrj9PBYizhPDBIZGK5suPuoQwomdK4HsLdfp5OKQEH/WZAFseSZLpGFj7Paobuvl50EeAIRjsUnin+paR7SM+b6dyVipwOp8lbx7OwNcToeNdL+H78zjM1nnz+UqDLjMfl490ALhjEX4vwWqweYcvJExSuD/iNF3RVngHsUzBAje++XF5j6X8vWAwMYnJ2BP++NIif7wzjnTM+PHvQjZlFXVhd042pRd349eFeTCnowsGmOFZVUHmGqKGNJeD0J2HzxRFJUosz2CcmUNg81Es2xaF3JbCvdQBbmwfx4KlB/GxbAF+frcHX57Tjv6a1YTcxXXa8nkNMrC1x8bu9FOiGYj0w6g04fmg/9u7ei32Hz+DU2SJkZeWgw+ImxslThzPPQBstPPuMdwQWYuOpxSFKg4+pd2dlS4YwLI4wgXBA6Pmr6i2YtzQfT75wCHc/vBPfv3MtHn56P7burpFsejPpdBmIRgt3txiAZDbDIMrgyuySgVVmZrzqFR/zBAkWDpN9js+AnSn9axX+eLiCMaPm40xxRstYDHe0G296N+SPI2MBB7vLgq6oWDz6nJL0dOkVjoCTzw378rH4PVK3J5+T2RGfZ9DltRaY+XP9YfUKO+42SwvyJxGLhqlXIPVoOP4gPYuoX0RgQtRr5IZ4vOoFXaAPi8rYGmZ83zW7sepAvb0HG+u6UWvrxQsnIvja6iB+fzCISVkxTMmNo8acwo7GLiwo68Fdhwbw0Mk+RMVau/wuWHiJyG4cVCRxWJFApJOfvUcw45u2JLGsPIU9rcD6+j785ugg7trkFKD7jbnt+J8ZbTjRyNvY83TjPjFlOJMbrV6IpqkXuPx5Ojav0sZqJN4vjRcuN5pdsDupbIkJhyg+T/HlATceaGM9/GjhCSlGsw+NLVax7kIT+QrVhXUY6pultRd4r7TKWiNyC9Q4c04lFsHJyVcT2NfhnZmn8daM09h3pH7sBW/E/xvuhnsfuEuBLldGXlmM2RSbWgmdLlXk8TBUvqafwE32Gbx4pS62oeUKzADMayIom5vQ2qaB0WCESqWGx+VCfX0jbCbqIVKvr7SiHhYTVWCFAg31tejQ6eF0ualyt6GxqQkRIiq8k8h4BtJc0R4cUsTFfa/F9dHjH2zpxm17OnHzji787lAcWa0JdPi70OLsxsy8ONo9XVC5upGjSWFJeTeWVvYi0dWPMks/HfdgLbHg3xzpwXNZSbx8JooFJSmsqerCrTtS+NbmFB49lsTelj68U9yPH+wdxC+3uPHteRp8dbYW35qnRZVB2q6I2exYswYvNZDGTNZgsOBcfjFqq+upq1+BvMIKlNarcCq3WKyhm19YRuG1sFPjyyDNvZPRwnppaTfgrmHh1eRiSdknsB8K4x2C2Vyvi/Jb12TFhu2VeHtmNu66ewuemHhQ7JUmzUjLALq8clI8nqDCv/zLS8Qi4HVVhY0gd9cv/73+ybn+/jD6B8NDv8Z2PMrPFVB2bNKVXoJsYjOm+QtV+oH3Y+H9kd2YoDtkMsZgaTObUF5ehqqKCtQ3NKJN3Yqq6lq0aTRoblbAYu5As6KFKohOmvpOYGk1G5GTfQaVZcUoLiiAye4R6TOj5dWtmCEJpkvfgBBiu6w/51mDKcpPV28/GlyDKDD2oT1E39hAH2KRMOUtKQaOeDCP1TPsxmsy5on14lRLTKR9LS7VM4ApBZ34301d+N72LpQSY6UcCv5qIOBt9/Vic00SVn8n6ixJnNWmUKpP4K3zKdy0oxdf3NiLr2zuxc8PdAu1w6SzKXxjUxL/uyGFH2yXJYnJOXHce6wPvzs5iInHQ3hkix7fJMBlva6RFeCXcb29Muh2Cz/dZIyn/FpsHlTVNqG8rBJlVbVoaG6F2uAgwG0mVtqM4tJK5BeXweL0w0vvKyPTJTFZ/VC1OSTROKDWOqVdgek37xDcqnUI4XO8+hjvHLxmUwlmzDuLqXPO4KXJxzBl9hns2FstvouMe6S1NDVA2dIKq8lGH5wF9g62ULCiw2SlVtkEm81BH6pFbPxWVVKMs9RyMPjyguUJ+g48No7jhMNG11MLb7eYRCvv8Ehdhj8Vx4DJqhFN+3Go9UcFk+lNxmEwmuB12qHVtIsRZ5upAyajEU5e7rBVK9ZXcJt1qKxTwEwVO+C2oYOu0bSq0ECV2dhhhZ3KKhxLwmO3QadvR4ehA0n6eG646+suB7rMCs0dBpSVlaGsuAhFxaVoo/eUlZWN83n5yDmbjbxzZ3H8VJZYZezMmWxUVJRDrVLi1KlTaCJ2WlFeDqvTK9KX7HSlbb776NjQ3o7ahiY0Njejuo7qVX0VFMoWOBw2NNdV0+9qqJpq0dxYB7VSieqSIjQrm1BR3USgIoFnpskRzO74WdJdrGsAO+uJmY1jMZvRbqSaYRCVFgkwT7YxSeB8kND374v3CjLW5u6EL9Il1A/FxhQCBHb3HOnCT/f3CNvaNdVdWFLVj2XVA2IG2+MnkoLh3rQlhe9uTeHrm1K4eWsCq6s74UkMwhnugtqRwDO7LPjXt9U4r7o8ybnU5AieBmyxsCWOEboOG9VhA/QGK7R6C1o0VBf1VvhCkoqBy5Xf12jLBRYeEOWdfo0W3nSSF9CRhFUO7BtMkj9CeKCNfLbdLSrXYeGKfGHZ0KC0Uv7GGEg7fbYYavoQigqq0NGuhZ66Pm0qFRobm1FBrUZJYSmqyFc2KoX9YXNjE7oTYbTQh9VBH19hdjYKC8qQm5OLnBOn4LBY0NRQh2a1Uby+PxXHnyHbTZ4vWISiyrUCdL0WAw4cPIKGynJUVtYhp6QeOnULmirLUFdTj+oKBZpqykkqUExdx0KSOjpXVVyOuvpmNFdVUOPlQVN5CUzUEmuamqn7U4YmKstk7AboXm93OdAdq+t6tY6BcnhyRF+/GDjmzRHZmsditcPjtMHj9aEzlYTf64bVqIe+TQm3y4FoJIqIn+13HXC6AkK/y24YdAkAZJbLQHPRNGD621or7XV2pS49HX+iH6fa+1Fo6kMBr3nbMIh19YPY19KPRmcfwqk+WEPSt8o69QCTBWLqjkgfbGGJoStcvVhT14cFFf14sxiYXdqHk6oE3jzfiV8fSGJ9VRI57cT8WZeR5jTOFG5ZqMXy827K01DgGG54GnDs4mnAvHOEydiBgvPncfjEaRw8eACnCIsOncjCjn3Hqat/GhqTV6x+xqB7KWHrBdlqwWQLwEwybMVA4Cp+23igjXcgCQoTM16DYfaiXDz/6hHc8euNwmxs4/YKsUBORqbr8fgQDYfgJ99qsYmZTazwZ4Yb8HrE+gluJ4k3SOeiYu8tVi14XXZYHB646ENzu73EIIjxWm3opg+f5/DzXPzLlON7zsXjUbQbDlP38az4nYiEiJl2wKJvIwZUACtVrlQ0BCtVqDDvfuznGUZhYsK8TKCTyozKhMrQSeXg9frh87iRoELvaNcJpqtpbBQrhkXDzIz+lJqkPw13NaDLAHQletGe/hSSPSGSMFLdndJ6uvQd8ESJaCiAsJd7fO1wUo/PYWyn+mOHjnpJDqeL8hKiXiPP1LRQ70hP7KiD6pibeosdSFGvip0Musy8LrfgzY6GTrx5Nkz5H7+qSgDuIH97gwimBjCvcgBvEVAurerF5IJ+PJENPHYGdDyA423Mrkd/p3yv9HIcgMbFg2VJPHC0C0+d7sHLOd3Y10zMkhoKZsuN9m40uqjnyIsOj3JV+igKNVFc6hVwnkdv28N69OGBNAI3bvwMJuqVOwNDs9J4ayk/AaOf3n1AWJuwueAlha7psHjR0mZDi5oXK5fUCXysomMl+Wr6rdE7CSdcYglIjc6JtZuL8fas01i6Oh9vzTyFxSvzUFapozzGBNONUkN1YyDtKty1DFiMZ7Dmhrt2dzWgG6EKu/9wAw6fakFhOVWKwQHkFbajVeNG9lkVikraSfT0W7IldYbrMC/va1hZ/lsCFAJHD3dVpWnAeQ0G7ClUY0euEvvI35rTjKMVBrRrDTBT97e2w49N2Y3YWaDGztxmbDqrwL4iDQ4Ut6GVutvs0kE3EpWWdmTwZcY7egdgXv/21/tiYnbalTi2pa2x9eJQay9mlPZjdlk/Zpb0YdJ54AWSibnA20WD2KvowXENL3YjgbQhSEBMv0vM/WKbn6Nt/VhR3YtNtUk8frITN23txg93duGHu7rwLTpmve+x1m68ktuDbU39omG6GseNSpK3VxoCXC4LX9rSjmECdo26DSeOn0Ye9bi3HMhDeWU1srOLYLQGKd74TcbYskU+5kE1ty8Oj1iPgddaiBKIhwl4PTidoxYLla/fVolX3jqNJ144jIee3CcWMX/suYM4clIpJuOwepIZb7vOeAF0w36fUKbLjndplQ3PeXFkwegCF+tneSk/7lKlu54UMWG60aXgqb+nGxFKc7TjRcB5VpXs4sSURzeMyXhkaNvoIddHhRnOvKldVyohRhbH7waJtVuhNZjRmVYePGiYTIxclGSkG0A4GKEH66PK7aECHmOTvf4e+nAuPWAQCfqgM5ggFyvrCdlc73KO0+aV3pKjRrjH40YzvQSBFm9Ncz0cDzT56dthQBrsJwBMjf38PKDEplR9vd2iN8X60gTPsrtMmaW7qwFdtkg4fKwR5wlYt+5vIhYaxJxF57FpcxkBsQLTp5/EUy8dgd4qfZsDA11YX3Y79imnMT4T05U2kuSBUar7CHQBoR4gTMJ+PO2WsaEw7q0HKR7HYT9Iv5NDn3U66F5uEfN49wCm5kbhCkuDcONx0a4BnCLgPKhIIbc9JZZufO4c8BwB7YsEuCwv0PEr+YNYSYD6RiEwrWQQe1r6sblpAG8WESif68MP9gzgWzsH8dujfdiv6MTvjnThm1u6cesuAt4h+fa2bnxrSxceONaNMgsXxNURF9bncjnIoMuNEJvqDet0qZz4PXR0WKFUqlFcpURzSxvq6luI7fJ2PRd2/L2UuH3Uw6f4TS0WKHjWKDHZ4vJ2lBBrLSU5crIRew/Vil2AF6/KF4yW/WVrCsVuwavWF2Hm/GzMWpgjdhHmSSO8mQHvizeC6VaWlcFg6CAxwWoyorG5DQ6bGVpVK2qrKnDy5FnUNzTBRV0ijV4PQ6tajO4a2vWwaLXiONXZg0TIj8rCHFSqDDBo1OgwWKCm7rSS4vNusg6zEe3qVrQ1q1B6NgdKrZG6aoNUGVwIUvec91nLycoSrMBpNeHw4dNoUrXBbbfBrG+HqkUNVUMFTuVXCiV6b1cSLTXFyCtrEOm2G22iyx6kblwg4Mbpo0fRZpJGmcfrQn4X8nPPi92NK6trUFPdAL2RnlNngt1Ez96uoxa1BQ0NSth4mrPNgc6+HjSX18KgVKCiohg1je3QtilRW1mJpoZm0WC1q9XQNNciN+c8nPQSrFQe8UiCytQGA5UpD7YN9nehpVmJ8hJJH6xStqCltR3V1VVoV9HHY3eio11DL47ua9BRd6ddlB87jYLKWamiMjdA29oCncnOSEzdWsqrQgOfywUVvQfWJTZSnjp7B9EZC6GZjnlnhMrycmjpg9BROVbSs9XUVCFI+Wb9NU8m6I5HYTHSR0PdZN5uvK8rhtq6ehg6LGJFLY2+Ax67FRWVdbCaTVA0KeFxe8VAYkFpFUztapSVFkNL3WmtWgOt3oxeQiwnxTXo9HSNA309XWhrrEZBQZmYWFOUc5bKoRXNjapxV9WrAt2eXlRUdyAc60YRMV1e0ObgkQYcPdGM46eVOH1GiYNHm9CsvvAtOSMtCHQ6CWgHxUCa0Olep95MOugy25InRzDgZNquZ311EmsqMjf07LhRFSoF6Rcx3G7kaxM4p+vBTtUg9quI6RLbfZaAdxh0SSblDWJW6QCmlQJTS4C3CGzfKQbmVgBv5Pfj+3sH8cN9g/je7kHsaO5Hm7cXDx7rEkDLwPuDnd34/o5uPHWqCzuaehDuvPryYX2urNtm0OX6PxJ0O6lOOdBCdaBFRfVPZxFhbFPNg2b8fqR90i4tYtEcL0+ekUCYfQmwJeE4rPdlMA0QuQqGeedgSfg+5dUGvD71JF54/Sj2H60XKkWx/gK9v/Z00C3KL6SKWIeDew7g9OGjKKmqQ0FOFo7vP4bKmlpUllXS+XpUlRRi394DqKpsQlVZOUpys3Fq9y4czy5EiB6utbkZamWdsIUrzDqM3ftOoqW2BpV1lcjOOoPzZ86hrU1HAGaEsqKcwhuohe5GQ1MDWsoL0dKmF+Ckaq5H1skcAvwmdOgUBJ6nUFZWAZ5Zom2uQVFtE3QqIxwGPdpaGnH69HkC/mbU1TYiRC2VnvLaSGlmncoSs2WYjjBbvayjOGYCB355DlMb8ipqUXS2BOXl+WigMqgoLsKhndtR2diAygrKR04OdV/yhYbr/OHjKM3NQz0/69lSVNZWobGoEA31FThfXImzR/YR4OagtakWDRotCgorEaaXqasvxp59B3Eii77mgT5UlZYit6gKdQRoqqoqFBRRo0IgXE/lVXouCwr6qKzUOB7ZuwsFlL9Yl0SJq6nhjFEPw6auFY1maXkNBjrD1Gg1obikEmVns3GI8lhcUoXCc+fgoQ+hQ9OGNkU7/D4XWind8uJiek+ncLawFEf27xeL1Z86fBh5RZRWbwI5p05g66Z9ULdRYxlxoEKhRT6956YmFWoqylBcXIaykmqcyzlD5dCK4uzTKKpUQKFQwkyNhK6lAefyzmPvnn0E7AoCXaCC4h7ZvpniNQtgVdWUYPfe41SREti3eSOqm/Sor66XQJfBg7qZFwDkYnc50B09wSCTk+xxpe9ldHd+tGNb3/RVxq6HSwddth1le1TB8qiLnEnFYPD34o6dUWgI9DI5qScj520QVbZ+7COg3dUC7CDZ3zqAHYp+YrMDgvHKoPvS+UHML+/D9NJBTCHQZeCdRjKzTNL33rZ/ADfvIeDdO4BfHu5Du79P5OEnuyXGe/P2Lrx6rhu7lP1wRi9djpdywzPRhp6fGyBujGTQ7eqWFryx2dyoI7ziBZwamtvhI9AVtrdXKLLN7vhEmixjc0WIHTtwIluFzbuqcfiEAkVlBnqH0uSZOHVjdLo00G2oqYfJ1AGjtg0ajRF6Yl3WDh2a6puE8r+FKg3vIdVGbKqyrIoYl5fOm6Dnbb8J7BqbW8HbKoU9TtQTQ1JRGs3VZcQeWuDjQTafDfl5JegwWmBoU6OdzvsddljsDmFgbdYRo66soAKrQW2jmoC1ngpNA4fFCpVKiapyoukeN5TEkF0OGzqcHmJVHnQnY8IMR9GqI/BVoK29A71Uqew6NTGuGqiJUXWYrcK0y+t1Z9j7aZQb6EFteQlqCURsxOrNLi/MWhPlux1WvYHYWxM9fynsXg8s9IIVFLeBQIud3WiGkZ6tra2V7muAlVifh0DL7abujrodNaWF1L3QCVbXSuyxlNgf79fFpmjKhkZi02aRDi+RGaQ+am93Eoq6WrRRb8BEZa3jdFvbhG+gctQom8XzRkMhoYIJuGyora2jvBqlsqCWHv3dcPk9wvRP00AfIwGxUW+iMquBj0eAw360ECPVaVrpA6mCpcMAZVMzjMTeefEVs14nGrtWjV7kTduipDyohOlNd9CE4zkF0Ovpe6HnbiXWbdK2YveeQ8S4FcSgFbBbrWJt2RZi2DXlZXQt5Z17UvX1MFocIk2HyYDm5hb6/hwEqP0wtmvpGehbo3fHEwyYFRuoB8Mu7KXeEvdiWJUzhhsTdANRMbjCrOh6uq6uHgJI77sKuqwPZL1ufAh0Rm/Bzu6t3ARez7n8RAlWI55p78VWBbCdAHc3Md2D6j5sV9JvxQDmlPVLqgaSl4nprq7pxbamPjGTbGVNP+aWDwi2O7+8H2/k9VCcfmLD/VhU1Y9Njf1iZTK2ZHgxuwvTCnuwmcLUPi6XgTEXJ7+c44aSn3t4UJHNvqhc5O16uPfCPe0kvWtWy0kyKMCY1YvvtvD9xb26+0bY7bP1k4hD5ziYv2c2aWMnpgFnctw6iiSG02EjlYtdf98F9iDreNNHUwf7usWya3wmM1Ph2T0URuE8r95OXct4StJReak7HAjKs1Uuzqe8IpFsbiM7uQJw3ngRDb52PO+cddgpqrgZP5BRbJktFHhWynicXB6cLLPu9PIZy6XHGd54kBKQc8ZlLcpz6Lesh2fwyuTkZ2JDfNnxymd0hbBG4VcweoWn0eUqu55kmBqfkPSDexLkxfxuYr0KdPdeeD7OC5/j99A1PFGEt+/OlEf5STLfl8uAdcSXArdLgS4zXZ5wEI5SZY2Qfx3E7QkIgPS+i6DLInerxR5hxPR4okC6a/X04Fsbo9jddGn9tzfWi8OqbhxV9+JAKzFeYrlH6JhBeBsBL7PSJZW9Any3EGDuVA5iB4UfpLh7WogRN/djTW0/NhAIr28YwOp6AuYGYFkdsLgGyDPwO2ZTsl4Rv40AN9ZJdYq7NVfhGCtSVMf4+eUy4EZoNOjywufXq/zfLWdIB13x/4a74d4H7lKgy/o57urxuro2p08A27UKm4vxwtk+Ash3E3RZhylG74fZbu8oEjGIOUVJfGdTDMbA2GyerQcqTJ042tpNQNqHvS39Qqe7jcB1O7NfAtgD9Hv3ENhuozAG5F3i/CA2N0MA8dbmASytJbAdEgbcDQ392KvsxUFVD1SOlNj2p7+7C9VmYqldVwe6EsuVTOaEXpt8uUxk0OU4SWL/Keo191BvtocapG5i9LyfHRMADpN+k8jn2Cfp6qZrqEFgltolx6ff8nkhQ9dyuhxP+i3HlcKYafM+epmlRzDvG6B7w70v3eVAl3VwDGbS4Mq1C6fFQM4g8G6CrjSgRsDDbHeI8Y1mu85YP27fGcMTJ+LoGnUu3bkp3iEVMd5WZqP9gt0eoeNjxHh5RtohNYGxalDofFn20TGvg8uAy7JLOYCdzX3DoMv+yjqeUDGAJdUDeKuEgLqxB1pXErWmJBROuYdzZY5VJTxwyM/NYMsqFmkAbSTocheep/U2KdpQ39CCZqUWrZoOIYpWPdrazdAZ7TBYXDCYnHRsg77DIY55nIjjOTwR6PRmulYDrYGtFmzQ6m3C7ldca3KJa6z0Xvge7Ua61iyFsbUD54eXkMwkbn8cUcr7CJ2u+H/D3XDvA3c50GUTrCSxRGY4vNtvJ7EUFum3dMyLmEg+/SZhXSFLFzEcvoZ9ZjAJYp7c1ZXB8d0EXe5OC7Y7BLoMRJksGU63dYmVwaRVvsZyg2L7nROtXWhzJAgYUzhMoLqfJFvbjcUVvXjhXD8WVfRhQaWkbtjW3C8Y76YmYH9LH9YSwC4idruEhI/ZFndzYy9mlAOzK4DpZcD8in5sb+5FIHV15SJZLEjsVqhW6Jnl8hBlMgy6/WJt49Nn8nDs2CkcISkorsS580VYv2UPTp08jZMnTuPwCencwUMncPTYSRw5nYfqOiV279mHMzkFKC4pxc4d25GdnYMTZwqwfec+HDp0FEeOHMfRE9nYT9fVNyhRUVGFfYdPYfe+Q9i8eRsqapoRifeMyFu6iHzSc4ywXqgx9OOG3JA/RanQ9aPddQFgxgRd2Xqhtx+pJLESt1ssU8oL9YdDIQSCQWF3zkuR8kJFsTixxS5pvWLWP/O+ck6HHX6fF26Xi8BY0uXzTrw800lexPx6uEygKwuDrazbZdY7ehEcnvGl83QJXeilHJsaNju64PARQIeiOKvpFuz1pLoTD50awPf3ArcdAG4h/+FT/dij6JEG3xTEegl09yl7sJsYMrNk1t0eb+vD9qZezK0YJKAexKrafmxp6keb7/LWIpnc8OI29JwMtqxakXW5clnIoCtmpIXigp3qDDbBbPWCxbqI6Rpgtrph4PUYdGYh7XorxTER83UL5qpq1aFZpRez11rVOoglIS0eqDVGtGk7xPoNLO3EeK0Uhxc4qm9QoLJWQSzZKGa8sZ1w+ntKl4yg645xl+OG3JA/AYlTNzoKWIOA2T8Aa2AA1XpiOmEJ8C4HuoxFOo0a+fn5YmGbvIJCsRzjydNZOJ11BqdOnUZxYT4OHz+NM9lncfLkKVRXV6OtTYV9e3ej4FwWjh46BM2QRQWbjMmTI95t0OXKKywZCIBkBsj+xWZt6Xa5YzteyEZi892osfaiqKMPFeZuvJY/gO/uBn60H3j0NDHdqj4cbe0RDHeXoh9r6oGtBKgnhCpiAHtVwEHyj1CcNXVsxdCHAwTKSjfn68p1uWwiJqsVWJfLz8sWC+llIZfHBdClnkC0a1h4TzQWtr2Wji+cS4/DYMnH0vrKqbT40rWhKMuFaziOP8RxO6UwinMpwGXJCLoV9WrckBvyJyF1ajS1muAO9yFE2BpMDBLTHaBu8vhAlwc+ePEZZrl+sSC/j85TxfDxIv1h+u0hJusUa9z6/H6K56dr/cSIefdkL+KxKDHjIIHVENP9A9jpjqjAJGy3K00NHmKBdHzt92ZwlCTZM0hAOiCY68bGfqyogzD92kmAm9PejVySio4u6FwJmDwJKG1JoSPe39KLlRR3ac0gqgjEr8ZJ1goXAJcbFWb0vIvGRWUxCnRHnx+vsL6cF7fPdO56SEbQXbBkDf4UZP4Nua6SqYzf68L5XrR8PfYePgOLOwEiGdA6B4SwuxzoZpqRdi3uDw26LPIsNe5+y8CUSb97bW4QA/29wpJhh6IPJcaUANkgL+ASlvY94xW7ouQ3WZPClndXcw/WN/TjpLYfvVdZFrIeN71B4fUP0tUKslwJ6DI75WUdJZEZK6+vIG3Rzrr+C3GvLwBnBN3la7bgvS7LVm/BqrVbsHHTVmzcvBWbLiF8Pl020TXpMuLce1g2bqbnZeE8Xw/hdMnftGkL1m7YKso0U1m/12XZ6s2Yt3gVTuWUgHqB0BLTvVrQZXMjtycGhyMMi12adBGkisgA1mEKUIXshE7vhYvihLgy+qVFaWT3xwBdFgYKBt10/S4zxOsJvOHOfhxR9+FMew8BR0ysjCdvU8R5YJ93tyjUJbGoehBzKoE5FUCzsFaQ8hHv6ocrIlkvXE7l0U3gOazHJWG1QjiDWkGWTKArASkJg2o4SeVEYOoPo0nZhoKSauQV1yK/qAzV9U1oaVajuLQcx84UoqpOJaxR2BLB5U+KQctwmBqZtOcdkT6lK9QTQkUhAbmskmBfjs/yJw26q9dvwbatW7F582Zs374NO3fuwI4dJNt30O/tQqQwOt62TZxjf/s2/r0dO7bx7+0iDSk+nRu6bgcJh2+htLdsISGw+2MLP+fmTSNl0ygZK3y0cJyNGzZh08ZN4jnXb/zTBV0WZrtbdx2GM9AFvUdiu+yuFHS7OruxbFUhNUIl2La7FidPK7BxTwOdGcThI/U4dFKBJauLcPhoE6ZMP42W9pGLD/2xQJeF999iJshbBgnGOwS81ysfjJFBKjurOwyrJ0KNDrNcZri8JxwDP+WBfmdrOrG0ZgArawewuHpArOkADMCd6Ee5uYcaRik/lwJd3opIAC6xW2ngrEc8U6bnliUT6IpFa6jc+H24fbw+QqdYXlGt0aO6QYWKWhVqG5Ro7+AlWF1isXOl1gSN0YpoqhNOb0Ashu70xmDxMmgn0BmPIxmT1lmQTAUjMNG1bFJmsfug1ZnF1PuWVh0qquqFCdpFA35/+qC7BTNnzsJrr72ON998C++8MwXTp8/AtGnT8eqrr+GtN9+m4xl0/g2KN5uOZwp55+2pmDF9FhYsWIQpU6bRNTMxlfwZ5E+ZMhULKXz9+g1Yt45k7bsja4W/cUjoeJ18vCnNl8I3rJfCVq1ag9Vr1mMNh6/fiLUk6+gc/15DeV2zdr2UDsfn8xS2es06rKJr+DpZVq6krvmipQLM1xPj/VMG3cUrNmDzjoNw+FLXBLrsdu6uovIow/Zd1Zg+JwcLVpcJ5pKb24rsc2qczWnB0hUFeGvKKaj0gaGrJPfHBF2W8NCkCQZcGXgZsK5XXtiZAt3YVN8jzMlySCo7qKtOAMwbZ2qdcSyv7sUeRZcwQdve1IcmVz+ixJJPaPpgi146HwzErFKQAZdX4+LnYaZ7OZXBSNCVGGh1eTVOnzqLYyfO4/TRM8g6X4ai0lo0EtBW1jWjIO88KmoU8ND1NlcQHt6tl76RdlUYJ3faUXlyEZzHbsE7q3Lwrf2DuPtoH94poGdv65IWw7HZqdcTFItD5RWU0/dRgOraZuSQX1hYJkzRistr4PBGRW9kOJ/vB9BlkHzyyafx4osv4YUXXsTrr78hQJePX3nldQGwzz//AoHyO5g06TVMevk1+v2SOGYgfvXV1+nal/HypFfw3LPP44WJL2HmjDnYsGGzBGDrCMDeBVnPYLl6A2bQvebOWYDZsxZg/twlWDB/GWbPXIBZJLNnzSegXUesdAuWLlmBNya/g6kzZmPKtFl48+1peHvKDLz1znRMnzkH00j43FRqTN6eOgPvkEydPhvLV63FytUEtCQrKC3+vZqOF8xfRKyX8vE+AN0tOw9dF9D1U6VobXVCpfGK+CYzsR1bCA3NvDB9CM1KYkXWEFyuCDGb8FDHWXJ/bNBlkex3efBJ1vFKwHW5xXrG6/SBfiyqHBSqg1nlEFOAj6lS2NTQgx1NXdjS2Iu9im6UdXTBGeMyGIQ90gdP/NLlweXFzHxYpcD5HgJfBtBMz5oumZiug4CUWajB7IbJ5BSTGkwWD737IIFsQKwbY3P44SXW6oolYK3ugGdWGXb+thBP3tqE7W9PhHvnBDz8xh5MWAV8aDHwQZLPrATuPNCDE8oEUgludOLC7tvp5R2EiVmTsM8TZWQZkc8/ZdDdSqDLDHANMbnly5dj2bLlWLF8FYETH6/A4sXLxPGSYZ/Or1yLpUtXYRGFzZw1D7PnzBfH8+cvJua5kYCQut9btmEjgdwFwGXwHUMoPl+T8dxlhK/je65YTuyVAXHFWqxauV7IyhUs60jWUpxNogFgdjqbwHn+omWYNXehkLkLlmD2vEWYv3AZ5s5bjIX0jDPouabPmosZs+cJ4bDFy1ZiIZXB0hVrsILuxUB+A3Sv70Aar+sxDLpjrFNxpe5KQZclHJEWg2GRgZePu7p4K/hL61Iv5ZiJ5up7sK5uAFubBrCxYQA7m3oJeCVhe11eyyFbS6A/tOLd5RxrGeT1cWUrBRlw+fhyDFeWTKDLulzWs8pmX0LvKgbNJJMwIXSNL9EJzzENbL88Dtd39qDqzpN45WfNWPbiRjj2fRjPTN+PD68FPktgy4D7qRUSAH+GfGa+3CjEopJuV2bZ6XJRPv/0QZcATHS7VxFArcZqAhOWVQSuQojVyccrCXBW8jmSlSvXEcitwXICsmUMxHQtM8E1BLRr1q4jIJe68GvW0O9MwueGRIA1M1cB0AzUJBSWrkoYVh8Mn6OuP4m4nsKGhQB2tPD9GKBXr16HWbPnY+q02YLFMoiupXuuJrbMoL2W4i0mNjz5zSmCCU+ZOlOA9FtvT5d+k8ydvxSr1hCA07PPn7+AGDSl/ecGukML3nAl5QkNvAW7LPxbltG/M0n6deFIDFaHF7zNCy+tybsAy+evVDg9XhTI4wsSkPNml+MHXTFjjQBFBl6ZOcrqhmthvQymObo+bGoaFPa6p9u6cYZAttHMgBJFkMCne9TeZ2M5Zrf8Ti4ALu+IQXmk32wKl+nZxpJMoHtZCRMgEuC6diph+cEBWElstx+G7Y7DWPGzCrx1/2m0bfhrPDd/AwEj8JdLJcBl8GX5BIV9YBHwRFafuGc4kuEeo+RPHnTFIBCBDgPI2rVriA0yqDEIEgCxblOWIb0sh7HOcyUBsdCnyvpQ8hlsGfT4/Oo1Eliv4G45gbMszERZVjKAM5gTCA7rV2WhNFhtwHnZuHFDmkjhLFJeGNDpXuRzOisI/JmFX7jHhfuyrFkjASuz8nnEbucSM589byEWLFw6nCduTJjFL16ykvK+HssofOny1VhMYQsXrcYrr0zFM8++TkBMPQHqESxYsODPk+kOTQNmIBNdTWKn10Os1F3lLi0PsLg8Edi5C0ss9WqFAZyFZ7nxvH0G03ELVW7WIzLgCuAdVjcQEJNwV57XCb7EeNaYLtk9CK23B1Ye2Y+mkEpSA8Mr02VcLe5ixxMemHWns1sW0UhQ3kLESDM+0xgyDGZXALp8XYjyHDprgP3Wg7CyEOCyuH+wD+d/cgazn62D6tgL2J19Br86MYBv7hzAp4bAVwZeBuEPEOt9J5/YfZQtGjLfT5b3Behy959Bl60MWMXAg1/btm0TLDhdtmwZsgAgf8WKVRIobtpMgEdgR79ZN7x1q3Qdx1m5arUAwnTgSwddBkoBtkNgvXGjZA3Algbbtm0V1hK7d++i9CRGLuVBEs4Hx5eZLwM+p8dAPhboSoyX9b/zhB531uwFmD5zLmbMnEfPzc+wVvgsixcToC5agTlzl1C8hSLOlKlz8cLEd3Dfvc9i0qRpWEKMmJnunzPoikrg5x0CIuRHhO/xERgPCW9mKPmSyGEXJDx03YW4nB5PQ+XdBDi9kfGvVKR7+ii/bI51NcIDXFECxjgx75jYAjxJAJeiY2aVXD5dglXz9ObxCqErMNiHwf4+AbRCBngJz8zxZeEZe7w0o5SXtPzI+SMJhtksK/OzjCW8RCc3oGOBbqZufijVhfYmB7Jv3gkzMVz3XccE4Fpu2Q/7fadgP9IGiz1KbLhL6MkjxGJtvgQOKLrw3V0D+PASSdXwOWa8yyTwzVJ3IhW7oL/NJO870F23bh2BKVVAAs0tBHbsbyJQYZATYSQS6K4U4LxuPetRVxKorRJpyeA4FujKwoxTVgts2LBJgPyunduxZ+dW7NqxjdLaggXERF979U1i4kONAIGtnH76fTZspHwLKwMJVGXVx2jhczzoNnvOQgG2S5etxiqOT2HLBVBLwLuMmO2ixSuJ7RLDJVmydA2WLFtDILwSU6YswtNPTcbrr88gRrz8zx50uZIzGPT09FCXnpkfr9ErAcR4GCDrOHnt4cs5jpcOPn8s4X3bMoWzSKD57kqm+7JI58Y+fznhNaGDYcmCgpdOHAG6QwNZ6aDLx9HuHux99hQen/AGlv/1EjTevAeuWw/B/mQOPGovAj3dCFKjwIv0c3w2F2Nb3Z5EHGZPEvcc6xsGXma8rOO962C/SJ/teYfvP0reN+qFVQSOzCjXrSPQWbZMgCwDHQMu/2YwTgfg5ctXCnBeT7JyJXXFCXj5HF/DwnFXrFgt9L3LCQRX8MAWD3AR2LI6YN3qTdiwjtjq1g3YvWsbAd1KTKPu+4szVuOBd9bgF0/Oxpe/fAd+cPPPhHqD78n62LVr19E9N1L6xHgZeLcws95I59kkbCudJ9a7RhrkWrFCEhl0WW/LPg/+zZg9HwsWLqP8EdiSLCfAZWHLhGXkL1qySlIpEOOdNWcx3nx7Np5+9k088uhrePTRN/HO1AV0n7VYsGChBLp/4na6V6vT7aOKbuowoLK8DAWFhagoL0e7wYTm5mbU1zdA06aGXqumsA6xnb5G0ya2TDeZzLDZHQj4fMjPy4VSpYbZbBZ70ukNerFfnI7iGo1GmMxWuu/4N4q84a7OxeNJ6hUEkSQGy6DLQMmTE9hWt6KuEWdzS2B1BsTgWTDRCaPajbc+vwDPTXgHz0yYglc/NB2nbtoOf6sHAQLkTIApSyrOwJvA94jxyqqGTy6XAPhsG31zl2C77yvQZaYrBtMIRBlQWYeaLmvXcvd7uQBgVicw0+V4fM2iRYvEdeuJ+TL4jgbdlasYCIndErMUemACTp5MsWvHdvz+yZfx33c+h/94eAn+5d7V+NKjK/DodMlKYAPlTUyuoPSYka9YuZrSYt0zgTYx3E2sitjO6gcpDoezXS2z6NGMlwfTmGEz6E4jpsumYAsXL6M01wnwlYUHBectWIq585ZS3EWYPHkmXn9jFl56ZQbuvf9F/PJXEzH57bmiwVnIoLv5zxN0ebse1i22qVtRXlqM3HPnkHXmDHQdVgG6WafP4Mj+3SjKO4cDBw7jyInTOHTwALJPHMLZnFwcp98abTsKCvKRlZWFoydO4tChg6iqqsKRo8dx5uQxnKHwHXsPEksa2lXjhnvXXIxA1+UJIE6AysDKi8kbO+xCapVtYjKE3RUCryRm9XmRv7EKEydMxYsTpuGlCdPx5ITJOPTOeUT6x6cTZsZ7WNEl1Ary4BoPqk0v7BETKNJnrqXL+wp0NxF4LF26FEuWLMHixYvFcbrwoBEDK6sSWBh0WRh0mQ0zIK9YsWKYFY8EXQI9YprMQlkXvGX7VmzfsQ133f47fPY/fo4vPbAI//7wMvxo4gq8On8pFhLz3bqFZ7exDneTYOGbN28VgC1UFkODcIvYtI3Y7LbtOwTjZZUD63qlwTwSAvqLQHfmPKFeWLiIr5XYrSwMujxwJoHuMsyZuxRTidW+SSD7yuvT8dt7nsFPbn+cjmdeAN0/U6bLoMv7VfG2P/E4sZcUTywgn1hpdzcP6iSl7Z16exAj5sJb0bMqQV7ekbeHZ7VBKpUU3VteAjLVyVOGeUS+U6gq5HjXy3zshhvbpYMub0xpsXqQe/ocNXx5KKhuQkl5JUx2PwKRFGK9vTgw6Qwx3DcF4D5PTHfyp+ZBU2NFpOvSLFcWVjVYvQl8c8cAPjrEdlndcPcxyZJhLBXD+47pMlNds2aN6M6PFma7q1evFqAmqRfYmoAtAlYLUGbw5XgMkKNBd9WadYKBsmpgM53ftWcXfv6zB/HhT3wb37h/Gl5ftB6vz1uDh95cgrcWrcSrM5Zg9uL12MG6XFYj0DWbNjPb3iDUAQyirMOd9Nrb+No37xIAuWsXPQ8PslHcDczM6X7SzDEJdPlaVjFMnzEHU6bNHAbcdJYrmC6FL6O8L+O8i9/rMGf+MkyfvZDAdhYeevgNYr3TqAHY8GetXpA2pry6XQxuuD+MEw1YVxe9Nx7s6xGNnmSq1wNe3zh978J00JX1t7yuscsXFZYKPNDGFiBCn0tpbL7noGC3LxLoPjPhbcz90jq4HBEEopdemlEWadpzAg+c6MNHCGwZdD+6DLhp54AAYwblTNe9bwbShE6XgJLXTZD1sheLtMYCA+vy5SsEsG3YwAySQIqYLoMuM13Wu7LOdfkQ6LLp1erVBEzrJPDeQ4D74qQ38YEPfAn/9t0X8Zupa4jdLsdrs5birTkrsGjlRjw9ey1emLsGG3itgy3bCHDZp3yyvnbFWqxh6wRiu8sJSO979A38+M7HxEDbzh0M+puFvpen9wpzMsF26Rq+ltjxnLlsjUBMd/FyLFnGutuVWLKU8k7ALOt0l1AYh/OA2qLF1KgsW495C1fikcdew69+8xzemDxHNCA3QPcG6L6XXU9vNwI+ByxGFZoaq9HSqsC5MydQWVsnltlk8JVdJtBlP11EWDiJSGc3Vv/sIB6Z8A6emzALT5G/6JubCBDjggmng+RYwqAbIWB96ow0oMag+zEC3S9vGYDJk3wfgy4BKa9PwKDLLPfysoHib8SypasFc2TLAlYnSHa9DMDSYBdPjuDBMVYFrF5NrJPut3GDdD8e/PqvL34Pn/7Hn+B/H12L/3x0CR59eyEWEzjOWL4Jz83ahMenbcL0ZZuwYfMmum4dgfVGAl1i4mvXYCWbd63chCUE5CsoP1NWbMN3fjEJ3/r+PVi2agV27pTYMet811CDIul3CXQpj6tWr8WsWfOEPpdVDDxJ4u13ZhD7nSsAmJkt+zNmzseMWbymxDyh033rrbl47fWZ+M09E/GzXz6Fd6YsoLK4Abq8iWAyzqZdIxeuueH++I5JLJuDVVaqcexYARGUI0RojlL9OA6Ntg2RCE+1vmAXnAl0MwmfC3X249wrm7HrS/fh9A8eRMFPfoGmSRPhcwfgj4xvUobEdJO478TACKb7bWK6tvc702X1AqsCmKmyqmDVqrGFB9CWESvkmWtS2Krhcyt5kIuEw9hcbPmKlXTMDFOacMHqC2bKixctxze/diu++cNf49aJi3HzE8vpg1iPFQT+L81Zj0kLNmMBMUtWUfA127ZsoHwS+BK4rVvNXX4C9FXEYgnQ1xJzfWvpZvzyhSWY8MmbcOudj2Lnrl2C6UqDb6ySYLUINwSSumHWrPkCdOfzpIgh9QLPpJPVDazTnTt/CeYtWI75JDNmLMQ778zB5Ddn4/6HXhWg+wYd3wDdIHr7BuB12dDc0joU44b7YzmnK47qegcqaqwor7Eh65wOJ7O1yC/pQHGFFU0tHjQ0O7HvaCuCoQtby8vmaOMFXSH0SQRPrEL4pf9C6I1vIPTKVxF46/vwalrhSwxkvmaURCJJmNwJfG3bAD62hkB3LfAhAt/fHe8TgPy+1+kyKK1ctRK82tiiRUuwcOEiASjzFyzAkiVLsWDhQsybN59AVQLZTZvYimA+5s2fSXHmi7irCRDFko7btgnQkywN5HUP5EEuXv9gLbHQbVhDLHX2gkWYs2Qtxd+CNRs2YMMWAtZN67GajjdT/K2U1rRFazCfQIFnvi0nsF3Bq4RRXtfS/RYs34CHXp2P//nh7/GXn/0e/uYLP8T8xcuwfScPrG3BJrqfAF0CW6HTJSY+Z95CTJs+B9NmzBFAe0GPKx2LgTQC3bnzloiBtFmzlxBQLyJGPB8PPvI6fvnrZ/HG5Fk3QJdAl/dIC/o80LZribWEoWlrRVurCnkFxYhE4+KaQarQPGDGFVv4xK7kij44KPuSHe6IeKP9tPPp50aLFH6x3eyItOj8yN+jwkfdKz3e+OWC/awcln6v9OeVZXxukICxG3ZnFC1qD84XGnE8qw1ncttRWNYBhcqNljYPsdykSD/d9fcmkZtfh7dnHMSxk2Wor6uDscOEeDwuQNftHSfoJvrhq8yF+4VvwP3STXBP+g7cz34ZniOrQZ/QuHaO6Onrwc5DWnz6O9n4/ONt+PzcBD64HJhT2ouu97v1AqsLVhM4rl/PtqyriR3yGgSsKiDAJJ/tZKVBKFZBbBCLy2zazMx1HXX9JRMxacquZKcrT1pg0GWzLR7wYrDlezEI8lq027ZvFXHFxIYtDMh8fjOB7GZJV0xp8gSJ2Ss34pevLsHE2ZQWAeeKlRuwdtUKzKd0f/3WBtw8cSP++UfP4yOf/Q4+8fnv4y//5ia88dZM7N7DM9k2YcvQrDVmuWLKMDUuvJrYzNnzJXUCT4og5sxgy8LHy3hGGut5l63GwkUrxCDdjJmLBLu99/6X8PNfPYM335on0v1zBl220xVh8QgMRiNVcKpsXi/8HhfUbVph78mOK74kI0FntIwVLsvlzsvgLskl4tLf5fIw5r0yhY8jrUu59Ouj0S5U19mIsdpRST5LXpER2ed1OFeoR06BnhhsO87m6XE6R0thBpgsYXovrJu9eDaKnC6XB4N/wO+H0ahDfX01ps/YQt/uLiiUKiQSVwi60R747A54pv0C7ue/JoEuA/DrP4S3pQE+ItKXAt6u7m5o9AF87daj+Ku/2YTPf2ErPvOlg/i7u6tR0BoTli+ZrmN5nzDdDVhFALltG3X9iSXOm7sI77w9B6+8PAVzieW98doUTHrpbcyds5jAdDN41harC5g1MkAy6G4kZso6X7blZcBl+1kBugRyvBoY79zAA3WbN22EtLA5WyRITHYL63npmNkxs1sWtgxYS4D86JSVeHLWary5aJ3Qx7JqYePa1Zi+eC2++Pha/NtjG/HNB+YS4N6Cv/rczfjizQ/jrZnEdLdvo2fjhmGLYMjy7DdWd0ybPlusIiYz29HC4bz2wiISnpG2cNEqzJ6zFFNnLsDTz72JX/36Obz6OjHdP+OBtHA4SR9/HB0mC06fOIa19L4aGxrEiPgNN9Ix6HV1diFF5cj7x3UmCXTYoiCVEustpLucfANyibk2t7jRTIxVrfXB4YpRI5einkSnkAgBMy9SfjWOzfB6e3m/tQGUlBtQXm1Gf580hZlB1+OVBkcvC7rEon2JQXiOroX76f8m0P22BLzPfxXuGb+GV9WEIAFvLMk7P0iDcAH6ZmIE6MxwW9v9uPPes/jI32/F5/7fLiEf/Pwm3P3gGXrGuIib+b7vF9ClCsMqAwbd+dzdn7OAutML8DYxxnlzF2M2r1EwbS4BzBJhtsXLIzIAzp3LqodlWLJ0KRYtWijse9mKge1XZdDlbj0v3cg2tmy5sI7OiZlkmYSAeNvWbXT9Jrw+dT5W0HVsRvbKvNV4bvZGzFuyFhsI2N9ashG3TlqN/3piPb797Gr8+pWl+D//+VN89O9/gJ89ORMvzVyNNZsoPQJzBvC1MuiScCPAJmPSxIjl4HVxhdWCLEPWC8JqgYF3MS90w8tYriWGvATPPP8Wnn1uGqbOWEjPtf7PEnS7uwbg9YWxcfN2THzhRfzm17/Cj358Gx5/4glM/f/tfQd0W9l5prLJbpLNJid7sl4nTnwcxznOZrOb7G7K2k42TuIy9ng8Ho/bjMbj6RpPUdcUSRTF3nsRqS6NRo29V4Ak2FAIECAJgARAgAQI9t6r9O3/34dHQRQ1I0+RzRH/c/7z3rvvvvvue8D77nf/+9//Hj4sJkZ8EoQZ6toqx0i4xSAZQP0Hn+5FOP/Y2Bj0LTooFDVQ1jWgpqEROpMFczNTvlyS5BRafXsfv/CjzczeWvCSQXdoeJwAnSc3vB/okk6vYKjHLUB2YNf/lECXdddfY/jgV9GTfQY64yAGRmYxRWDLQNpmHUHqmTb8j3+8tg64f/Dn5/A7nz2DT33xPKrq3JijBmnT+/n0k2FeSGGXKmmyAw9WMYPjQDYMnNJW2udlatgzITaWQI0ALCw8kgCXZ3TFC7MED6DFxsWtAy/PHOMuPbukMaDyLLRYAj0JdG8FsbkFumk4TZpO7PeVwCj8YG8k/u3ZY/jWK+H4u10p+H8vRuP1wDhExMTie4fi8a+vJuGHbybjqWNp+Oedgfhf3z2EH+0JQwSHcaTnYPPCycwTUrzgZPbbZdtuigjVyN4KQcTomdnKYLuudMxTgJnthoXHU94wYrYB2PXzt/DiS29g50/34Qg1SskPIOhyZKvFxTXqQZzBo49+H088+SReeP45vP7663j++efxJB2/9NJL6Ojo8F1xd2Ew4i4vA5kkNwUTu3V8uwgQpGtkWyln4/x3675zOrtE8cQLvo672Ct0LDG995fpaQ4z6YHJYoG5zQQddcm7OrswPj5+13tuKlRRLsvaZaMutZ3AohOdti50dLrg7R/DwOAMuhyjyC60oFwhgcgvQzYDXd6+JwDP3cRQc7Vk1/05mxm+JIB3dvdf4cyjP8Rn/uYqvvJwPh76YTG++mgBvvgPV/Dbf3wa//FPTq8D7u997ix+8w9P0Xerxxz1CN5vNtsnxrwgzzJjQBWRttjHNo5BNFEEgBH7lM5hD9m8wDZaBuQMAlPuwrOJgZXBk0GazQ7MdMW0XwJdvk8cA15kHDKJUW8KumzTpWsTTmTiB2/E4Ys/CsY3Xo3Gk28l4+9fTsVjBxIQSN39hKRkRCSmEvgmYX9oCp49noYvvZiETz8chn97IRSnz/BEjhSpPKqbWF2CGgm2wTLoBhzjyRHHcTw4/NZKEH6mBVmjY9l9LFn46EZGp+BYUDRe3PUGHn7kBby+9ygx3QfPvMBAZzC0YefOn+KJJ56i/0I8ampq6M/fhdy8PAQEBAjgDQ0NfV9wm5qagrPbAbPZAl2LAQZjm1jC3d931F94ZhrHZ+i02WBu70B7qx5er/e2+vkL2w09vQ7o1A2oq1MiJ6cQFqsdszPSAN/7yeLCLHoHelGnbUZddQkqS67DoFdjbv7W9XPzy3D3TcFqG4W5cxh64wA0LV5o9F5U1TqRV2zFpettOPtuK85fMdF+O67mdOCda+14N6sduXSe7bV1jb1o0HiE6eCXJRtBl5UnRMggx0susfL+elDzqSXhrTBUnYVBNjEQyx2i7cie/4tHvxyGX/vMRfzWZ07hN/9I0t/57Gn85z87u25SYPD9DwS4BwObMDk9L9ap2wiyG/UTArps62R/2kRERfHKEQy8DLJxtB+H+JgExETxfrwALnYHExMi4ngVCXYLI2Am9immAhPTjfe5jLEZQoBdqmTDTaD941EJAgh51hgDrXDton0GbjYHpBKYP/xqBB56LRZ7QpLxekCkMDE8dTgRLwcl4idvJ+KhPYl4bG8c/mVPMv7mmSR8a38a/vb5OPzJdwLwyCsROHOabcrcAEiDegJ0CfyFTZeYNsdeYPNCQGCw8NXlqGMy8IotNSpsWgiPlDSS6hxBYB8UFotdrxzG4z/YTaAbIN7Fg7ZyBBO8S5eu4JFHHkVQUCiUSiUCA9njJUKYWxiAd+3ahZdfflkA5HsJTw1uN+qhVChQUa1EjaoeExO8ZtrdWOQqlWmHvlUHo64ZmroKjIwMUPrm4M6MeGSwj1iqgZi3Hs3Nzeh1ewh0Z+ncTQLMFQFyHHt2dIxjDczAQwDKIMohCW3EPk0d/TC190Nn6ENNvROFZVZczW3DxasmXM5uF+aAcmW3AM1GjVuArrlzRABwj3tSlMv3ET2EpVUs0FZWXu1h7SNd5v3DyR2gSwBnpQaxvrEFFTUaqNV61DVoUaloQHmlCtV1Guj1FgxRXl6h2K0swMDhb2N615+jfOd38F/+/Cx+7/Pn1wFWVgbd3/3cGfz6pzLxR395ETGprQSivPLvPIYJUDcDWn/9hIDuCWm1CALdkJBgYrMce4FdxkLpYwomwI1AOLuORYcTQJ4SDDaBQJdtuWxeiCXgjYika6LomMCXGTOzYPb9FTbdFIlxJqWl43Akez4QyPpAl22uwtxA508TM02k677/ZgJeIqBNJCbJ7mERxLCDEtPx08OxeHh/Mr67/wQeejUd//vZJPz103F4fG80jsel4qn9kXjkxWCxerGYhMHl8vP5gS57L/DyQjwpgoGX3cZ4NprMbhlw2XtB2HN9wCsG1GISERweg1d3H8aPf7Ibew4coXIZdCMfKNBdWblJvYhMPP74D3HgwBtiIVNuMIeHh/HKK6/Qb52CF55/Hk8//TP6IPW+qyRZNxv4ttzlZzbMg0rNLR5UKGyorrWTdosR+3LSCqUDRWKkvhPX8xjkOlBSaaU8DlTVOFBc0YmCUiuyCiy4lteB6/lmymcWx1n5FnGcU9yJ7AIrsUremqkbT2nUlc8psgpPAC6/tNohBrDKqun+dU4CWBdqG3oISD3EWvth7BiCrXscvQTGQyPExkbnxKAW27g/apHf093MLJuJ/zX+1929rDvL3ozp9vbSs7d1QddqQ6vRDG2rlRrHFtTVa2mrRYfFCbd3FI6eAXgnljHS48L0lVAceDQQOz59QQDrv//0ScFy/wNt+ZiZ7x/+twt46uVq1DV7sUA9m+m5ZRFkR156XWbVn2jQZXbLA108eYFdv3idtGSONUtgzLEHUk+kIzopEKExR4Wtln1tg3mNMWKNDLjRBL4hoWGUxiETI4RNN5Z9etl7IZldt1KRQQz01WPRCEtIFQArMV1mvRI4ptE9Xg1KwY/fTsPD+5Lw2IEkHI2RvB14plsMlROYQOf2p+DvXsnED95MwnMBCQiITRfhIdMp37HQWAECsuuaFE9CchkTA2kJPCDG5oVAYryhwjXM37wgmxg4PTwyjp4tTmyDQqKw72AAfvTEy/jOIy9i/8EgYSd+UJnuo48+hkNvvC3MKxwIqbS0lBrZOOzduxcPfePreOihb6ODWJJ0jeSDKtljad+3lYGAWWd3zyQszBCtEktklsl2zi7HCIHdKLpd43A4xyjfBDrto/SxD4v8nM/hZB0T+eykDIz9g7Pw9k+LkX/vwJS4vrtnnPanMTxCH+7wDHiVBQYYjv97Jyjdu8jPx2XI+6zy80r25Fvly+5s/ufvdp1/uqz+VZXT/K/xv473JXexjWVJdfKv18zsJjZdHxCyThHQmW19KC1XoaxSiUuX89HUYoa8Sq+4ZnoFo7OraG0fwonz7Xj1DRW+u7MUX/t+ER5+ogQv7KlBfIYJtU298HiHMDO3IFb4MHXY4XD1o6PTSb+pG+1mB9qtLgGwcl0+caArBbxhsDotZpsFHqPWat/b2L/3CHa9eAjBBC5hsW/icPBriCdGnJzCPq8c6Yvdx6TIYbxED/vy8mAbD8gJ74VEXu5HciljN663wuNwKCIBZ0/JNt0MZNI+eyrs44A3R1Lxtd2p+KfdmfjXfSfx/YNpePpwOgFsKr70cgr+5bUkfHt3HP70iWR8fifl3RWP4NgTOHsyFSdP8TLibC++xXLZzixCPVIDIvx0hU03WLiMsffCbYBLLJe3YnmemASEhMUgMCgcbx0OxIFDR/E6vYsXXpZcxl557agPdCPxIK2Rxt8o23R//OMn8Nrre1BVVYXLly9j9+7dYqUP/g89/vj3cezYMWKw7x+cnGVuchTWTgvMHSY4nTZf6geT6ZkJmFr1aDHoYe/x+FJ/cWFgGnHb0aTVorGhASPD9FI+oNy8sYoOAocGRRV10dUYm/7gdtvFhXkCJDNUzVq0UN1WCVA/qEyODcOgaaL33gaLzSXsqSOjt4Ouv7K5gYPfuHqHxJpzbi8v0zQqnfPPT/sTM4tYWKJGbYUZ7Bz6qLHjoDmctkjMdmZuEZ5+LoN++y4nisuUMJisaNYaodXpoahthlKlw+DYHLHgVQLZ5XWdmF7G/BI11N299H+RfuOtadMVoMvsk927pIkO0mQCniAhrZF2km2lmScInGKFzfQU+8JSN55NDsJEQOyS09iWyoNpPGWYZ6QlJRHwpfF03pNISMnA02+GI+kEsWphApCijh2PS8fzAWl4/ngGvv9WJv5ldwa+sScN3zuUgYcPnsRDpP9AoPvll5PwcmgKvr0nBl9+KQEHIgjQqVz2DWYTxbr/r0+5MZAmdsgrVaQhKjqOGoQkscQPB8TxV84j9hmkqbGQYjfwckC0TTuBmIREYskhCA6LFq5tEeHR4l09KKDr773wnUe+h1defVWYpJjhPvPMM3jqqaeEPddMwHCvsrIwA5vdAb1OR1sb1j446cT84jxMpjZoCJBs3W5f6gcQal1mRgegJ/BuqK8nMPpwsSVc3kGoG1T0jGoBSB9UZqanROPUrNWjtdX4oUCXJ7HodS1ob2+F3dmDiSkCzpG7gy4rp8srAsu6WT5/ZT9dXgdO8te9lS7fg7fMpG3dHrSZ7Wi3OKi346ReT7c43qjMiq22HqjqG1Ff34SBgYEtCLrCT5cH0pIE+HIXnGeoJSWm3KZihWBmg8QCeT00f7vpRpX8dNkjgsoVAEaMNk2KUrYrIAbPvBUlXZ9JHzuB+bGYdDwbcALPH8vAc8dO4Im304n1ZuDZYyfx7NFMPPX2Cew8nIEfvHUCTx7LxBsxaTgcnYw4YtmbgS1rxolMMdtO9s/lbVq6NHGDzwlvC7qOr5UbDm4smKWLNPF8vHoGNUbUoEjneDYds2nKn3FSgC6v6/aggO5GP90XXngRTz75BHbufBLPPfccjhw5DKOx1Zd7W7aS8LTtjeaF+6F8L16hgv3pf/7K69iz7xD2HziE1/ccwO69+6mHyXoA+w++iX0H3hDbvfsPif/eiy/uwpHDh7cm6PLglwBdAl8GXWa5DFJs1+XBJ05jZRBllRahvBPoZGVgYzczMZiWyMwxHSdSMnGawCw2PQM/2x2AaGLRp04xeFNd0jKxNzgFrx5PxUuBqXjqSDp+SED7xJFM/IxA9xnSnxDg/uTtDOx8Mw2Pv5GOV4NTEUd142e4ow50n7RUCXD5WbjOzNajomMJGI7haEAgdYGP4+jRQBw+fFTsBwWH0jYIAXTu6NFjtD0uNCgoBEeOBiAkNFyYU+R3weyZzQuZBMQP1Iy0OZ4GLK3U29bRhbyCYly5eh2VVQp4+wfFqDwPykxP/wLK+Wfmf/HrNlNRlk83O3+vul7OR1Cv9bL80j6I+pfzkZTFC1rOY2p6Ft7BUbFOGi9f/8sA3UQiSMfDYxAdS9/o8QjxXaUkn0JaMhEk6pW+9dZhvPn2URw4+DbST55DfBKTwHikZZzaeqDLNln2XGDg5YA3vGoED46wryVv2R0ohPbDw8NFV5ptvswU7wA6P5WYrm9hSmbIBLypxHYz6Ho2U7BnQiJ1zyU2yfU4RV34NEQkpmNveDoeOZSA//NsJL61Nxk/JWb7MwJhZsIvBhJgH83AY4dOYH8osVy+dhPGzeyTl2kXgMuNBSmbDhh8eQn2MA7qExEttiFh9Lzh7LERs57Gs+/CSXkbGRXrm33H7nBSWULjk30DaQ8e6HLYPb2+DdoWE1pNFpjaLDC0dkCtoe54o5ZUs61bSrXUVdegy9Yt1r1jIBRL1t8HZeAdn1oCLxJ7PCoGKefO4lhYEqqrKlFUoUD+lWJcPXUZQSERdFyB6Mg4FFWqUKNpQrOqCtev5W1N0GVfW2m9M/bFZSbH0cTYPBBPbJHXJJPiKnCXnD0bfiHQjU9BEoFUMrVYbBtNP5EuQJYnVqy7jJGeymR/Xmrd6B4RxL5fCUnBM0dScDAsFYFRqQiPS8ehcGK7hzPwWgiBxEm2C99ZD16zjJ+FQVeKnnYLdDmmbjwzd/qB4xmQSRN5IDGBWHMs1VXYftMlswSfo3R5bTdm62JLefiZ2LPjQQTdmZklAbzj49NiMMNhd8Hh6NnWLa42mwte75AYLF1YWsXU7BKm74PO0H9pfnGVMOMU3jh8BMFR0QgIChNYk0LELJG+taiwGBwLDEIEnwsMRlrmaSJIEUhNSSEyl7LVB9JOISQoCm+9GSziLkRSq3L0SAgx4BBh92S7Ji/Vw1tpYsPtgCfrRtBlGzEHM0/kQTUCuRN3BW02QZwQ3g1pVAaHfWSwTSQWnEgv+LXgFDx+iIA4mgCUGgf2HJDdw1jZ7MEz4KQYugyY0lI9AvgJMFmjqP7MdqOj4nEkMBRvvHEYQaEhOB4UifDIaMREhSGEWG0Ege0JukcSNUQh0XEIYReyUGLAURGIE2WnPXCgOz+/Ql3TRQLeRQG8CwurQufnt3WrK/+Oc3MrtM9L+SzTPv/2H78uzPNSQivCzPnzl3+OvXv3Yd++/dizZ6+keyUVabv30HYfXnjhJTz7zPPYvXsvDh48uBVBV3IZY8BjEA0LjRagGxAQIoLfvPUm2z0DkUZddvYSEKDLAM1gxx4LmyizWH/QZabJACi8CIgx8kQFEQqSgPx20JWU68WeEIHRKfjZW4l45Xga9gUn4oUjsdgbnIZQKiOayuT7yOYFHvDi6GTMVMVy63S/9fuTclxfTg+NiMHxwBCEUHflKIFtQPAxxCYmI+KNcLz28EG8svMx/P2Tu/G559LxrX3EsiMSEBXN5oZwBBNIHw/nGWwMxg8e0+VYCSsrvIjkRr2xrZ8I5Qkra2IwbWFh6b4p36+zk0NO6qDXG95TW1qkrdFoIjXCZDJtTdBlOy2bEFLTUoSbVVoaxy8gek8gxsua86g9B8LhwajomFgx+YFBmGMsbFyqnZWvEwNp66B3ayCOB6PYX5aX+OF7bDYoJ0D3ZAbC4tPw7JFkvBiQjgPEco/FJCMlnc0K6ThBeYTXAV3PdWYzCZfJngrygB8rx4pglZkur9mWEM+DcEmISqbnpuePey4QEX/5M7z0uZfw1De/jr/40T7seDQTO76XgS88nYKjUfReiPVyvaOTM+n6RCQnJCL0AQPdbdmWX0XZeqCbSqBDoMv23ISEOAItjoPL4EjMlCc8JPF0Xj6W0kVwcwI4eUkeDnqyUUU6ARPbVJndsr+vNJmCy5EmUDCAM1CK6GYEvuxYz8qgK8wWwsZL9STQT6BGIIXAlZduP8nbTF7OJ0OYKfh6BltRHm3l+4h7Ul2T2BRAIMuDagJ0CcjZNBDP9UjJxPFdQQj4wnOI+fxzCPjmPgQcPEqsOhLfPZCMT/84BTu+m4a/fC5RTEVOIJCOi88QTDcxIeGBY7rbsi2/irIlmS774HLAmqDgYISEhQkjdVhYJHjpnrDwUERwLAbqVrMng1i6JzSUgDVOmBtksPRXTpeUJy6w+qfJ+Qhchd5+razSIBvHZGC7LU+ikEI1Muhm8DRiHyjfcd26SvdmAE8ncOY4ENwAxBDr5qV4IqMTER+Zhu984Xv4+r/7Ko5+bT8Sk4mNE5NOSyDwT03CayEp+P0n0vHr30vAk4cJwNOo4YnjyGTMqB8874Vt2ZZfRdlaoHvqJLFDtuly9ztJihQWGyuUAVZoeASio6JFGgcql9N5rv1Gs4Csknlg83MfSglEb1MC5duVBwP5uU5Js+MYiOmYV7yQ2G8KjoeE4Y03jyCK6n/87Uh8Zccj+NKOh3F8fzjiiEHz1OBEAqEk9l1OS8bXXiW2+2gavvxyMmIJlNn+Ldmp2U93G3S3ZVveS1bpr7Sy9uGVy7mbbNGBNMkdjEGYZ41tHBhjZdDbeCyzy9uA8ePUjfei+kr1kerNEcbYR/f48WC8+eZhhIaGiwE2Zr7CtJGQLJguA2tSeiqO7T2Gb/z6V/DYpx9FVCSxWDabxKciMpn9lnmJ+QTsPHxC2Hb/+4tJiGK7MAGUWHEi6cEbSPOX2akJTEzNin3/wCl3l9sDrAxz7Fzfl7Q0P4PR8dtXUZBldXVJLHq5uHxnRK/NY+/evGtM3o9Kbq7xgNPGJXNuYmFxCYuLC5idu7Xa7i8ia6vLmJqW4/Xeel+ry0tiEdDNhK+ZnJzAwtLmEc8+7ndxN+EVhcY5yPn0TQxOfngdpnImqLzNXsPWBF0GkbhYsC8ur3Umpsj6gM2/634/1R9c5WMGV17UksGWVQz2EVDyNOWI8EhEhEUhNCQagQHheONgAN48FEAMPgUpabKtN4UAk1cpTkFc8mlEHTuGI1/5IoK+/leICwlBMr0bDicZQ6w/MT4diQTM33wlFr/x3XR8+eeJBLSURumc50EGXUenEYVFpVA1NMHTN4Y2QxsjESanpjEzPiFGmHmWE8viwhzmFpYw0GOGxTtOKLEIRXUVysoqoDZY0NttQ3FJKcpKSqA3d6O/x47c/CKYOqUIUnXldE5Ri/7hSSwvLYrg5Ly+GIOxtctOdVzEtC8w+fzcLCbHRmF3dOMG12dSAvKbaytiBhbL3OwMlpZ9gLm2hKvvXIJ7XKorBzjnduAGARnP1loY74PG3CXOsfAikrxy7siAV8TmXeL3Q/dnGXB3o6mhnp5NiTx6N21dvVhenL8rAPO95HC6c3PzIthis1KBkrIS6HQ6tLVbMTy5ipmRfly/nk2gs4DpqUmRjwF5nt4B1RTNqhrklVTBMziOtZUlzMxyuiyr6OjoxMoqx8xYFOuhTfp+l49TFgn/h6ZuYoDAkresw9PU0JLKxx9EubwRAt+NwLvlQJf9Whl02XzAkyGio6OFqYGZ48cFujKA3lv5ksmAGWtYWDSxV54pFo1IjnUbHo2Q4DAxe4xXLuZVMDiU45nTZ4jxZuAQz9Peuw9iSSE6L3k2sGkgBVE8eSI2GtHf/wdE/uOnEP7sY0jlMghA01N5CfhTOBQQhU999ln82p+8hp2vRYMnXcTyIBxdz/oggu7K4hTycwowS2Bjt7ZBq2tHSX4ZmtUNKCouQ02NihrEMygsKYe5uwdGdSNycotRXVWC1r5J2I1aKJu1oqylhSkUlRTDOTgjonGV5ObAMzKNrvYWXKcyWa6dvYAadQs8nh4UX72OrOxsZGfnEeA3o91oRG1VBbJyy2A2d+D61cvQtbSivdWApuZmFBSWoEWrQWlZKQF5MZobm5B17ToBeo8oe7CnE8kJCWjUm+HqbMOld65C1dwCm9VCZWVB01SDqwVFaLO74e1xoLioCNnX8wUgsntTXvYVNNC1Nwk9Nc216LTZUUjvJrewFOcvXoJSUYXSimo01KnQ29uNqsoqdHX3oqaylMq/htr6RigrK1Gq1IhQ7AXvXsa7ly+hsCAXCmUj+kZXYGmuR/qJUzCYWlGQV4AmrRElRXloaqGGjkC3iN5HTmkDBnqdKCkoQEFxEYorazAyNg6jvgX1Bj2qKL2qshY11NgV0PNYnV7x/P7CITfnZucIoDdn1Pcqa/TXGZ2R2KkMlgy2g5M30D9+A+PUJoxQG7muDMa+fc7HW/m6CfrrMcOVj1kZeMdnqRfgux/LlmS6zBQZbJNTktfNCwyIMijevr8ZMEp2U9m2ykDEg2TsDuafRy6DwSs5KVm4egnzALt+cRkZPEAmBaOJjIxGcHCIYLA8Ay4qKgYhIeHEWKXgPOy1wGaD0wSwt5tEJBYsBUrPFA0IB7HhZX4SeEZaPGniCWK66Uhj17Z9uxD6T59H1Fc/i6Cd38PePZF4681IPP3sUXzmC09jx2/8CH/6hZ8hODROeEnEMksmfRBnpLGsLE0hN5tBdwmtjZX07Odw6fwlXK9owNrCGE7Q/+liTgVm5qdx8dxplBCDvXj2HOU7AzN9XfZWDWoJdLnrvLI4SQCTjx4Bussoy8+D0+NFYX4unH2jROhuIpeA0Opyw2k3Q1FWBzWxSZOxAzUlRSgk8K2tUhAQ5qCGAKywIAeFuXm4fPE8rpQosUZM9nxiLLIq6uB22vDuxTwUFeahvEZNT7KGkuvv4DSB+vlzZ1FaUg2zvQ/KohxkX8vD1csXcPLsaSi0LSjKo+PsQgLWJgLaLOTklKCkQoGK8kIUltcS61yERq2Eq38QV89fQFWjHqrySugtDri6O3Hh/BlcungBFy6+iyvvvCtIwJlLl5F1nUD23Xz0DktsufBKtmi8Suj58wuq0Te2gkGXB41V5ShRVotVGsqzLyPu3GWsCtRZQWleIQF/NwYsBK4KNVx2Pd7NLcCVS5egaGpBobIEV85fo4asFXnljVgc70F2oRIrfvF12YoxPz2O+roGeEcnRV0+qPBq8LcBLoGod3SBGLwCNRor9QA8cA0tU9oyeofmqGFZxeA47Q8vYXBiFR5KZ+Dtn7iJRjs9vx/gysppcmeFZUsyXZ4xFsOgm5ws4qL6gy7vM3AFBwcjIoIAkICU005zOoF1KAFhdBQHDz9JaQR+BKDsDREYGEzpccjM8IFqxkmkpaQjNiYOh98OwL49B3AsIEj4CMfFJCAyIhZBgWEICQpHeGgMgo9H0nE4go5HkFJ6cISoD8flFUusC4C9Vc/NVM7DLDkxOQWJKamIjuEFJwnAqW6hEVF0/zhEvvwEUv/50/jhX/wtfuN3n8bv/8Ez2PFbP8WO3/4x/uuf/Rj73yKWS8Avr6n2IIMui9NCH3BeEX1I5dAbrDDq9GhqUqEgvwj1TRrk5mQhv7gCao0a5eWlBIYEUiWVcBCVubmyAGV1OXIJHJWNLegnBlhAYJufX4BWaw/UNfnUOGbC3OkSoFtdmE/d5woYOzpgs9gJfO3wuvvQ3qKDtklNbE6P3OvXoKxvRk1FCTHZHOiIhTYSQBYUFKNJVQuj3YnR4UGoajSoovrkl9dhdWESDY1qLC8uwdyqRWkpg9osOrQNKC4oJJZciNLKCnT09qOlrgKFNTqMDLiRn3UN2QWVxDzbqWwFrueWENCs0DtpQ62S7mXqEgsOLc+MopRYZwHVvdftRjH1AjrNbSiuUIoGIC+/EGaLGcZWM0anJHtsXXkZ9QqyicU3Qq9rIxa4inECcovZSte2EsPPRV2jBqoWvQBKZrqq6gpcySmDSadFZ1cvhrw2WJxuFF6/DvfIBPTUa2hWaTA3OYl6ZSXdtwitxja0UW/AZDBCTb/dyOSdv/EHlZnF280KDKCewWnkF5VTY2vCRW6gy+qpUWxCRakSxcoWXMymRqWyDlX1rTh3Pg8WzwymqJzMugVc0y5hitixP+hy+QzusmxJphsfx/EVuGtO3e4oCXwZrGR2yufYYyEg4JjkShYeJbr2wUFhOHI4EIEBwdTF53TJrsogefTIcQQeCyGwDBfAzAAVGRFD4B4nwJiBmvel41gRK4EnOgiWTFsJOH0smqcd0/a92PPdlJ+Dr2emy9OJOZ4ur2T8dmAQ9hx6G8HhsUiOT0bKwdfxzX/8Cf7TH+/E7//hTvzR55/BP39jD44eixGsPJKui6LGYRt0JbmxuipmqPkLz2qSRSxfLoQHhHy7frK6soIbvhO8ugHPhvIX+RwLd33vKnStbBvlFRL8ZfWOwS7Oc3ud7ya8ooUsBq0GQ5P05VOd/Nc186/XjeV5uPvo5fkL5fcvx1/EChqbnGLmeTdZW7vzeVhu8koQvv33k1VfwGK2T68zXZHy0cjs0gZbLoPu0AxqVWpk51ehoKga5Q0GFGscUJTWIr+iEeeKm9BuaqYeUhVOJZ+H1jYuzBDnGxcE22VzwkbQXfwkgC6DFweLYbsug6w/i+TuOwfCCQ8Pk7r1BGJsAmAG6Q9wzIhDgnlAKkUwXAZPzsMeBbxlNy/ejyTGnJ52AmfPnBXMmlVir3S/U5J5gddo47qIwbPbVGKvPPONGwIpj3Stv8p1Zzc3doVLIpabwEvIJ6QiMSkDMXEJxHSj6XyScP+KSjmN2PgMHA5NwBEC2ghK5zgRvJRRcFAogqjx4EhH8pLtDzroPkiyWaOxLZsLd/v9AXKIbbZTa9AZOtFiHYSjZxxt9Cfrm7xBvRc7pQ2hZ3gB3pFZmDo90Bld6Bu/Ia71jN3A2AbAlT0Z/Nr3rQm6Yk20ZGl2mDQNOF3s+yvPRONoZPIsso3KQM0LE/rnkcq5VZach8NI8qw0OX2j8vXxvhltHBf37nk4DjAvGXTneVm53jxLjtd2S6DGIDae7bLSYJgcMSyGyohNTEISz2Ijls/xG5gZ89JEsZQnNpE9FghsqT7rTJf2mfV/UkA348zlewRd6jKOsLsX79JHQd324ZExYh7vwUbvIqtLvJTLsO+IjpcX0GVph8UhDXSxrCzx0i+3uz0tzc9hcpIo1AYZ6XdDq9VjbOqjaSjGR0excm/EeFv8ZHKe2OjE7WA5vkDvk9jr6CwwRj8PD5qN0bE8sCYfT1A+efCMPRX8y2DlctmE4S9bCnR5yRxmnFGRHASG2NzxuyuzPTYnbHZO1mBWysPbzc6z3kseVpGHGeYm51jXy3mPPKwhvjqzCSOVPRYILBl8OQiyv8ppvN2om6XzDDeJ6W79NdIiYlNx8txVeEcX7wl0k2OjYLD1YXHEgdDweGharRgfn4ClzUggOoKJ0WE43f0Y6OtFm9kmuuS9Dhu8w+NYXpiFQd+Kyek5FF+5gOSTF3D5WhaWVm/C7ezClavnhbvY+MgQOm1OODttKCwuQYfVQV3hNbhdTuj0JvT19aOvx07p7Fp2E31OK3IKStHSohd5Z8aHoTeYBGCLpdg77ei229DjHcbS7BTMlk70uFzotHdjdnYOS5RveWERs9PTsJrNcPcNwMMeB4pqlJUqMDsvDXZNbQL223K7sIWEfWplH9uPUqcI0Df2PLYM6CakUDc+46ToQgvlNcE+gSri4NKWn09EGmNfW45EtpmmbJJ2F+XA7LGxSUhPz0By2tYF3ZjEDIREJiCvpAaTxDKs/TfeE3RvrN1EFvWQCmqboFMWI/PdXCgUtSjKzUWd2gB7lxnXLmehslqJ0uo66BobUVpeiYsXzqJRa0R1VTVa9AZUVStw5exllCtrcPb8OdFd7HF0UO8rWYBmu7EF50+fw5UrWbiSUwCtXo/CPNrPKoPWaEJFaTYBYj0MRjPVcx4NtWUwu4kukdxcmSegLCbQbUVx9nVcyytCzrVrdG0BqitLkZtdiMKCYrxz6SqqKyrw7jvZsPX0wdXWivzreSgoKkFFWT5qNBrkFJehurgSGg0P3DVCbbCKe2zLewvj4sKKxHoZgD+sTi3cxF3mf2BHWFQStoKGbqJh0Z9c3ex5P6yGRSff2t+CyvVmlnvxagF6BmYxQd07Btz3At1VYoRVRVXIzzqHS1euQ6lqRNa1bALIU1CbXRjqs6GkpB52SxuKCZjNOg0dV6C8rBBnzl4ioMuGy+NBUUkJSnMr4PJ6UZB/DYsra7BZ21FZU4HlxQXkZV/DxbMnkZSSgeySarRbLTiXeQKNLW70ODtx4VwKKpQaePq8WKGGwGKk+1TUwdHdDaPJiKz8Qrg9blxKT0ZJYwuxcA2azXY0q0pw4d0CuIjhNjdo4OxoR2b6OVQqVSjKuoIrF7Pg9g5CU5eHC3mFqGjUo7muBUOuNoTHpmFw/OOfXLAtv5jsqFN3UIu/rdu6BbS5HTqTE/1jK8LOxk7t7we6POre7+nHQL8HPT0ejIyNwtXbhwFPL5pUdegwW+HxDIlpq1aTTrg4DQ2PosOghclsQ2+PC0qFEj39IxjoG8TcwhzaiflOzi9jZnoSQyOSjdduNUNLTJNnnTU3NUBF5fDKr4Mj05iamsTggBvtBh1UzXoCbK7vDZj0GlQrasQEBLfLDgUBqdvdg4GxcYyPDWFonMof8BAw92J6cgpDg8OYHB2FlxoBdWMDGps0cDl7MTM7h+GBXjjcHvQPDcHY2g5vbxdyCytE3bblV0t2TC8DM0SDeTu19N7K+WZXiYLzPm3n1nzn6Fr/6zeWNUv57qV8f5Xrtdm5bX1wlQcu5FlA9wK6D6qMeHswOLHNcn8VZUf/2BJc/bPon7ghjcr5RuZYeeSOt5zO6vJOweaZFqN1Ts842h3DGJikD2DyBrxjyxil//vw5Bo8I8vrZbD7hdk+AM/oqihP3MN3Ti5X7PO95GNS78gidSHn6OOSzm0cFdzWbd0G3W3ZirJDVa9DLXXbWtt70WrugamtGwbattCxocMJo7UPxg4XWjt6UVquxNV8BdwD06hVNUOhc6Kz2wu1zgZlbQvl64aWr2nrhd7oQPfAIjqsvdC2dsJo6aOtHR22PuoWtaFBY4Ge0po0JqjUZpg6POh2j1GXzkVpFrTS9eVVKmgN3TB3DaCPGwUC580+vm19MHUbdLdlK8qOd7OVqK9vRn5RI3R6CzSNBjQ0m1Ct0qO4vB6FxbUEtvWoUbWilsBSqdLB0z+BmnotWuy0rarGuQv5KC9rQHV5NWoInFXlDQTCBriG5qBr7SLA7UWTzoKK8lpKbxbnagjscyt1qKzVinspyxWoVjShskaL2hoNKgrrUKdpR51SjQplC4aZRW/y4W3rg6v3Cro31lY+cPjCzYRnpPkLB7/ZNJShn6/Qh5uvwDPLbr/n3UW60+3hK30zzcSMM2k2GM+gW97gT+wvPBOO7eG3SuEQlJvPMLtD6P1wiMa7zW570GVHu30Qjt5RWGhrIHbr9Eyi2zNObNdNaf0wmvvQbvWgzT5C6ZPEbIfQOzgHp3caA9T1b7c4oTU6idl2o6OrH918rncMxvYe2PtmMTA6Dx2xVotzRLDlTtcYHO4JOOgeHc4x2HrHYadju7OfWK0dVj5P13d2DaGrdwQtLR0w2MaEaWKzD29bH1y9F9C9eWMFPd3dsDlcsLYZ0eXqw8jwMAYGhjA8REr7NocT45PTWOT4svMzcNgcwiNgYmxM5JsYHxXHoyPDGJucxcLkMPXIujA6Nk73W0C/pwc2Zx+BzA0MePvhcbvQbrZjaJj+tyMj8Pb1or3div7+QYxNTItQjBxqcZDu3z8wjOHBfgyOTGBqfByTU1MYGhqhOtJ31tOLblcvBijf7PwK5mcm4O0fwvTsAkYHesUgoJfK5AE2b59HTNzo63UJn93+fi+6u3vgFNcPYpb9oVYXYeloR3mFAuoWAwytJjpH9x8ewejoCO2PYLB/AG6PB0Oj05ifGoHD5UJPTx+sRj2atCZ46fnGxkbR43JKS6Hbu+mdTNE78ND7mKD79sPd60antROTVM9tuVN28OAE22Ll2RbyTAw+5gEyHjTjNB7Y4nx8zCPHbHvlfDzYNbko5eFrGBzlckZ99toJOs8DICIPXct5WHl//Zi2fD9xzOlcB9oOTKyJY77f+gfnswf7h1Hj+3A+vs89AzRdI+pE+eXy2X7M9d+Yl8/zc95WD1LZDu2fdjcVdfTVTX4HG/PcTantEvWSTSxc7/V6+spdnxmzSZ3EOyX1T+PrhPof+5/3qVxv/j03O//L0nsB3bXlGZgtDgK4YdSUFUOjUVOPTQtTaxsU7INrNIvQh8YWLfpGJjHk7UGtsh6NDY1Q63SoUzWjrkEDnaYZqupqaEw2TI0Nor5WBbXeCJ22RQRk6R8cx+z4MLRNTVDU1qKuSYf6mkaoFJVQNtK2tglVpWVoNtowMzEGdWM9FHX11BO0oKlOgUqlBnV1KmjUzVDX16GsSgFVgxYNqgY0arUYpj+p02JAUXEVGjRtMGjrUa9qQkOjFnXVVTBZOqHVGaGpV4heqFargaKmCY18vUYjgrgwW1UpK5CechJXr+egqrIc17MLUFlZQ/dSw2xuR252DsoVNTB3D2PC24WsvCKUlVWjtKyCtpVQq7UoLiqGqq4OlRXVKCyqQHVVJYqKSpGdXUTkqw3Wjg4UFhajZ2hC+hG25TbZYe0ZFR8bf6T8YTrck3AOzIoP1NzlQad7Bv0j8zBYqGWevEFpfbB756Q/vMOLFmLCHNaMwUp86ONL9LIX18GIdZDSXIOL0rEvH5+XgMIHFpNrxKCJGfPAme86PseAaHePwT1GQEN1EulTN9bzytcPjC+ji9i0zuRAl2dO1F++h9wYyI2AAB+6hkO0semj0z0N9/CCCMHWTayf51qLeq5fcxO9/VNQE5t30nMIkOZyqRzv6BJ6h4h58P1EXaQ6bgQILsM7sgBn/6x43w73OLq9s6IcvobrJ67jfV9Z8nvg+3TaPDB2DsIztioGJ03mHhi7iOXQ7zAyuULljYGqKIC4j55F1Mmv7C7ngOityGXzM/DW/3eS7ynq4rtOpFP5zj7+X8xjmNI4fePz/TL0nswL1I3ud/eg0+6Cp8dFwGKFh9mc00UgpRNA5SbWaWw1YnxmEfOzk8RU++DxeOHoph6axQa9ToPyqhq0EvCqCSQ5sHhbmxl2mw0dnTZ4iNk5iQ2uriyK2WFddhvaOxgEW9FGDLGOAI1du9qMxLSdXixMDKGe0uzEQvu9AwTcWrqXG10OO/r7+tBm0ENP5fcRu+6jujmJ8c7MLaLHZoGupU08Q4fZQmU60dFhha3TLli3mdOImXZ3Ewuluve6veJ6V08PvAPj4nX0OrpEFDCTyUIMthsN9Y0E9k2w2+3Uu7SJGXL19fVo6/RgbmIQrVSPri6HmBHH5Zo7LHTcRdf2wEEst6urm565ncBfQ2zeTHXoRCMBsqqpBWPT9Gfcljtkx/X8Umr522Gllq1R14nSKg1au7ywd/fRH60ZmhYrtZg6apVbUF3fhsZ6DSrr6Y86dgNXr+SioplaXYMDlQpqySkP24UbDV2oazTCRKDQoDGhxWCF2tSDZp0ZzfouqDWtqNF0wtDmQE2TGdwIc6T9S5fyCYim6Ec3oKGlWwCNmq4vrVChrL6LPhwPmtRtxECsBK42KtuKep1NgKqO76msQ2mNHmXl9WimY1WTkUDVTfekD8fsFsEpGjRm1GktaLVSN7C3D+9czkF2OdW9RgsPgZWiSoncYhW0LR3UBXOigcrwUKPR3KjDySvVBHYOVNTp0aztRGd3P1Qauo/ahMZmC/StnahV00c9tibAioFdBgiuo9XeizOX8mDrcuH8hauoaXHB1G5HA9VH3dJFjKaT3psBbV0DqG8ywUh1bKKy9e0u5F0rxMlzV1De1I3hiVmcP3UVTUYHWul6jbYNJSWlqGiwwEjMrbzBDC2BQwOV0e6apO5ePyqUWiqfPjZrL7EwEzTtPahSNqJCoYba0A01/Y5ltK9saIOpkz581zhadR30WxvoXViIvdXj/JVi6Og9tlJD6xpalZ7RDwTvt96rTfdehK+9mwlyaXGOQI+6FiQry0vrdk5e2WDxbtOOSBa5TMq9ssEWykvWrNxj9LD7Ibyahb/wChJzvmnEH0TmZma2Y0C8h+y4WFCH5iYN3i2oxYXTl3DuajnMziG00kdbq3Wj1zWA0tJGdDo8KFMREBCT1Ju96B9dwfXrZbB4J9CgaEUVdUnyFFoUXM1DbnkD8nLKUVHTgoISJXVHKpCVXUaA1IW8vAKUVVYRuFPe/Epk5VfDOboKg06P1PQLdE0zqqrbUViuQHmZAidOnEMO5cstVOB6fi2UikYU5JWjsEyJgtJ65BYo0Td9g7pH7dBSd+2dnGo0NLeiqJqAvVqFy1nUnUrKRHZeJS5dzUdWQRXOUZ4uzzS1+t0oKKtDfnkj8qj83oE56qY5UU6g3aQ1ID+rCrm5DSASTl05DYpUdpjb25Gj1KO8UImsa8XIL6lHXnEFKkvYsV6PKpWOGoQBwTi5ZyCAwd4Ho30YFmrY3rn4Di6/k42rl/NxjepfUd4Ma1cvKqtaUFSihoa6tfmUnk/1zc0vp+cwQFFeQ2yknRrFDtRoBzA4Oo6r75bB0TtE3btyZGZepC5hM0qrm5Cfk4tyTTe97+uoanRQr2MKZv4tNTbqDczTu2+CrkmNtCuVqKTuoqKqlt6NEmUlDfT7qpFD2/ysYpRS45F78SpKqCHIv3SN3nUlyqhhKSiqod9MAepobBrg437qRwm627It90t2KOpbUEPMtZFYaHFhNaobqdvUN42+oRlUVzeiqcUBg8mO0spmYklu5LNNyeQWUdOrlc1QGeww6HthsfdA29kPNTG15jYXlDXMoByCVbHHg46YVX2zCbUNBsrrhr7DC7W6XTAw18gysV4n7ASEGl0bjOZRaE1dqCcQyy1S0r4DZVVNqGnsQIfVKSLOa4w2qlsnsTUd+gl01RpipupWArdRYddlpqogIDa2d4v7MnM2mjoFk2tqd4uI717vCIFVE5TNxMSJGfeNLKHLNQQzPWdDkx41KnZlG8DEMmBssyG/Ui+Ypc4+RIySuqcGC7Tt9Bz6DuqajaHVaKHegAkW2xAB4jisjiG46dnYdDI0dUOYbtQaIxTUOGl0XWgwONGiNxPTpftYhujZvFAom2CweKGid1avNtNvo6fntMNCrLeNmX+rG16izQaTBxOzy1BS17CUGg0VNQrltQbBxA2OMapbG9XfiA7nBEYm5lDLvzO9P3b/q6nVora1B23tNiq3h357G5XnQlv3ADSmXmjofRVVNhDQt8DYS3VWaaGlXkkDMWIlNWSVzXZh394MCO+nboPutmxF2cH2UZ4YwbbL/glft5j+0LwdGF8RdlO24fWPS93JvpFFsVwH2x4HJlbgInbItlBhH/Qp5+P8vM9lyBMcGKjFPp1nWyIDUf843ZPycXmcxtfI+3x+QLBFAj2zC67BJWHPFGlsVyQwk+vuGZxBl3tKpIt68LV8jo7Zjslbvq93bEW6h6/OHnoeDjLM5+SPmes6QPWX6yqlsx15Dn1j0nvga8W9fPvr9aV3KN4pXc/KbFe+n3xPro9cBtt65Xcl6kf7XK5I4zInqQyqh5x3UAC4fMzvlI+pbErn5xU2YjrmMvj34Wfjcvjd87tiW66X3rls395MuR799Lvdls75qTxuxFwjt97hL1Nl0LVsg+62bCHZwYuprSt1iXnLA1Yc/dz/mPd5ywHpWcV53/F6nvdQ//Mb88plyduNyvmnl3z39UtbP0/X8bkpHtGnff9y7rivXF+R71b919PE1i/Nl877/nnlc7f273JPX33ksuX0jSruw/t+z7jx/Pq+rz7y1l/lfJvl35i+2fG6bnhWWdd/B/mZfok6vXATlr5tprstW0t26Jxr2NZt3Yqq7V6DyromYpayvB/orq6tYWFpCXPzlG9bN9WFxSXxnt5LeOLF8soK5hcWNy1jWxcwT++Rl5LfTHY4h29gW7d1K6p98Aax71suB+8FusvLK5iencPUzOz9UbrXLH189/WeH5FynZfofW0mDLgMKptd93HrzNy8eKe8nZrZGu91fpG9QG53i9nh227Ltmx5WaQ/+Gagy4yDPwAGk/ulc8QCR8cnMDk9Q8fzdCyBBa/oME3beWLcM1TXW9fIgCLtizTKd+s8lUnsiRkUh3L0T/84lN/XRqbG0MHPdb/fJSu/G36XPGtufHJKHHM9+J0sr66JhsA/P79rrqv/sf/5+6Vcx0X6rW8J8P8BUv8yTQPTjHcAAAAASUVORK5CYII=;" vertex="1" parent="1">
          <mxGeometry x="396" y="653.26" width="216" height="90.98" as="geometry" />
        </mxCell>
        <mxCell id="siqkBxoQWDWRZE22Vv_f-13" value="" style="shape=image;verticalLabelPosition=bottom;labelBackgroundColor=default;verticalAlign=top;aspect=fixed;imageAspect=0;image=data:image/png,iVBORw0KGgoAAAANSUhEUgAAAOEAAADhCAMAAAAJbSJIAAAAkFBMVEX///9YWVtOT1FYWVxTVFb8/PxLTE6+vr7g4OHy8/RcXF3Ky82bnZxUVVh2d3lQUlGSkpOmpqawsLCIiIm9v76foKLNz85LTUzDw8SXl5ljY2XZ2ttsbW9WWFeCgoJ2dnXk5OTt7e1xcXG2trZERUeMjo2ho6I3Nzc7PT9HSE2FhIiDhYReYV+RlJL8//vT1Nb2js0eAAANMklEQVR4nO2dC5uiOBaGYypBkcJrKwqioFZt18xU+///3eYKyDVREKjme3antAma14Tk5CQ5AWDQoEGDBg0aNGjQoEGDBg3KEW47A88KVxHg7bjP2uHyMsLAggbsswxjV16C3nXUd129UsI1euu77Fkpodt2CdSgaemD6Npt5+95VRDyRBBBiOb9Eskxz7yrQGgv3jeb955p8763lQmhWZamszKROmH4qkzVqoGQaSDstAZCpn4TQh1C3ENplOFo2k+p2zT9lgph2wOghxQRllveB9TWL1+bbLcMEGxg2xl8WmhfSmi6/Ua0R3BqlvmiMAgXb3aUGvVGkhCNPsJyXxvGwDQ3jBGtzP5oxaoe2pumksd3yZLDVXXKzmjMCTeKyXtIeBkI79UlwvihwmUTEj0mBIsz0enj/eKVtSCtEVZMkqjoCElnYCMEDeO8CopufI4QA8+b5MoLijJP7/A8+bMHHtVNjDpN9s6bqGXmmLAjkXEe49zpsycJ8f8cw0nLILouCj7BdK40yVUwra809W8xK7T9ze496hMSOdNLXtk/WUvxV4GNVGgCYj5Uk37XBculnPfaOuzef9Qys06PBaBrZYuxHcK3ZgjfkPGR8Vg/TVgwJLNLCOn1YkJyrx4hMT3j74XuJNXc9LqWzlnqxeLNiEvThtZ9qmcJryM7V7CQ0Ee2jWxDEkKSGMWE9BpUbGk+fPbrbEmLvHyLh3apyexn29LDKVfn87LgE0yRQBBuDjOig/jdb+fZjFx7z78Vp2yXD1aGBr9350I7Rkyke5ZQ8b5ENpN/9W83g5u1243HFCtJSD7pgiSik5yvf7bH1xZO/a1+F8nc7Q+IdpikCz4DSSifOzJEP8uq6if81j2xS4m5Yv1rQFlKvn8CaUKaZmGIdm4W/0o9ITRX/znz2CvICb9ThATqUyAacQ67T0gzPp7Cu3USyTI07nqHvaioRlRPe0AIgpMzutcd4X3nIIxVtJb/8Cxh8WRIHXRMYwPxxUqjtzxCeE9oTjkilAOUZ3uLa4EPr7DH1xP5ofaGBHt7I0NBlH4O78vwD7EaWHr0UROhttWmS3hMGCtosTMnRkT4nkeIpbnqhHUQUqutQUKcBDTcMa35HkyVIUyVIQh4ezpf1UPYaBli/CEB4XQMmCmQJRynCEUh+ufuE2LxdbQAF6bwqCUI3wsIb6wQfVFNmxofPt/SEBxLNjIJiixhel0sxi4n5BeeJfwNYW5TahT5aZSFgSkK0Ea32MavKEOmPa2m/pwPUbrbH2IgH0KUHCqoEFpxmk7bNJ6wMb9uycFGgvCTj/FXQVoWK0P/P3ZbhwlPiD2FxIjGZYQjaNzJcRxhFfhslN1VQgxuvJlGp/sLWcJCwYDe0FXCyITm2YylQWgw07SzhCG3luAmNeJPEC77Tcgnp+3MmuSfQ3jmKwYy3eodYb4nk2lk290mNPkYyMjscvF42dK9ISv3UCq304Tc+52zTCsmrDYqWIqWCCszt+K9+UfmQqIMKz+lRUIMFm5OFXOnkRW9Zh57eMlQcEJUtoOp1pmZB0UG4pC6XaLFg/wPciIb88znJG6ZWznhaHqc5et0Sd3QGqEdez8jTee/ZAq+1tPIrrn2pDmOEJ3TscV/xAuEjPSESVstTWZ2k8qPCLHAyO7QkYRFQv0itPUJYV8I3x4tw0zeWiaMRj7onhBwwpx9ZJWE3WhpJOH8V8jHrOEC3RO6vC3Nrqy5/XaMtPgSF14NnLTbpl1CZyvfszXWCcIjJ7Qy/aFYVJSjg80I03ZeVwm5DyYnX4V2DBZlmO5gukr4i9mlFZuv78TdOsI5k1BXCSfc8jbUt6x+8if73/S/N0dYbhZXEQI/v2UsFreCnMwNDZZhKWIl4TdLgA6KGQMWb0udIH2hyVq62mw+Nyl9bt5ZY1dJuOU5NrY5H5ynmdidlrnQJOEs1+F/ZR1WJSEYMTeGfVBZ0oLlD5Iz3GryOZzl7pSCioTcFTUyVJ5EMRlDUmd/joYJ82alFAnNzKqKkq9654lhDscryvB+h5wqIfkuPiF/qIqcg2Uzk9u5dLeWYrFOc4SOVY/iJLtOKFbzhLYtg/zYemUILDHBDBdlfjUMJrzvJK1SA+u8FQjhUgZqmtlahBgsxKMI18UVlTSjc1FXDK/+3QgqhLFTd4/0yhBgV+QdHYLC71k5oghJq1v/boQyScLrw4QYBH709K5wdvMPeTuZGTJFwbx6lwnpJGI0oofuLltAwcKQK/rgseBZ7TQh0TZ2WsDpMkheMq21XMFuFwN2nRADL97naiPo7i+3SRgGnrU62jDujYx1YWvbdUIMwmiHNd3GgZhXxjDoeuHYkrgui/uTjhMyfRvo3ixKilDDUdkApPuEpGxuZRvlkbEv3YTeC0KAL1Px0KULEhnHir18DRGyrYB11VIqc3xwUDomnm2gRXkoRPA84ccxT6dbnc8h4HOdk80BGnTKibKRdtUYHXcKjqpnCd3cNdBXq2ZCoXC7WszOrns4Hzfj0t2/9REecp9+6l1pgvAR9YswUWrKix+bIYQ/vgx/IKGcB5Tj+B9HCMfejckT4/gfR/gVyPc8540QYoVgNI0RxnO1DRLuvqrCCcFrA16MlxFisDMqg6nluLzrIfTjGZ8Gy9CCFXz9J5Q+p2INhJ0mZM9hyZpgpp4TWjAz/k0Lvo6Q7T7WJhzNszt8YkQV5dzXUG+hSBjvw+aEOXuYntZAmFKSkFUJQRjIBGv+nq3tLZiZYVQfiddUmwR9vXqmDHfL1YrPn6PNSogTo8VquZTX9vIat8rRB72WTEf/z38NtCava47F/AzhwoEykgOSs6CyUYNwLsME2A69MJ/LsAiIvJRTfuh+9nRkQ3hVjPT1CsLvil05j8nJJ3x4y2Z/CMHumombdidSE+oeW3znrkRoiLAVq+0vIHSaOJbpdzFh+dCpAUJrdbms6ldRb/F6wqaOYStqNXftjJ5eqN21soY34ad5nbCKr63nhCqJsv/UH8JHNRDGYrVEEKqvoG9fyhHLCeDuOBOLjd2CDZyd0+l0EnNH7uk4Ln+UMV5/RUsFqnxenZHv+zLPc985ljdWl0SHW7B6p+uiYVJKCM+N2NkvlV26PwX/NSc89lpKpyHBzA7OPgiqE8JbkB9mvtvykDrh33DuWh/1F5ydNxBSDYSdlg7hjz8PGO2s/mm7Hauf6TxqwgnctBxHzaZhP0Plop0OauTLDWKlhNFOuT6rfGxx6j+hfS4dASs41buur9KFEBhsjNwIApWSn6+Uqo6PKtK1InozBt5m8YD2IlfTfWky3pyj0jTfYnf3qPyjCvReub3mQU14S+0UHTwjxMvHKE8k4izApvL6mEQs2Xm5MYR53vOmx5KphK9o1tjU3gMS0QBQwfk/UmqEMkh7JhhUm+KLn9iJ5WXJFAmFfYkUT4R6gXAgnpx9Rb1SJBTr3/zC5Qyv114UYVCRTpEQh1C0uV15EkNRq9ZVCVUJxUFt1T/ZqyQO886JnZeSMqGo9jWdgfKkMDBt2TBUBsRVfA4B+Cdqurog0bjnBx25kzqhOFAgE8WzFYkopPOTQlJVQhyd6JS38OLVuoj+WSEimQahiO+Jlq03pxhP+WOoElVOvZYCMBO2W8tOMYzBWASV2yn82DqEYpGiUpyzZiWXNaik1SEUy+f9cp/ECyR/aqUdBlqEO43K0aT4L22PlBLrEMoIe7bbLqGI/a+4ukiLUKwCSh19+GJhcOLr3G21bkurlpKOVoaNbE2k16JBxt6UTQ89wihsZFuFSA8/45aHnxNzPFeahJh7sVFb7ow/kfU4/1S8RZMwtnhrPCxTTyLm+lx1BKD5HMpRi92SO+NPNIqr8D/F0i1D9ZFnI/ojN5uoj8S1CZW9B80onOt+vTahsgeoGelXIX1CcdwoqvLiNSKxAknHq6lNGJ0Z24o7YykmITQ80/plKL3pmZPZXiDpf9Lpjh8gjE7Xe7U7A0cmVfYoo5K7HiBsyyclYzirh8Rnd819bUJwasmd8dDQ5iHCONT8ayXaOCXnRSQ816+lZJBt67bZtUiES9AMj8DXvOSF7igRd5SgzKkdDcu60q+dahr979QlUBTPuVBskc+1gUgMZcJgeZ07vuYsLcanK7yeNdsMHPjO/Kps3tckUnbBLicydeVd3line+F3AWyNg9f3+I98IX7wTvzg9w0aNGhQXSpsg0wzeGE26hSeTExgshch27lsir+pC2bYjWUA+jItkvUgBObKC0wQYnAL6DvycssvhOxC0HY+H5d5owtSJmBHiyi4hODGyu0GQmpj0QvMagr6WoL0/Ecaop7G2cfexSI0jBBYIJzwC3xJQdCdRWO6oifueLS4thca0BxzQnPHLtELIWt8tv0tQ2xdMKBFyMDIa0ZETVeLjOZCwM8cMttfAfCocEjD3YcmbVtweAlosEUzoBZ9uOUXyP9AsKpYCtphmVZAYTwyrNru6GM42W63tKKSNpZeII8fubDt594tpr6WzKPCua//ql/h/3ezoD6h2RGuAAAAAElFTkSuQmCC;" vertex="1" parent="1">
          <mxGeometry x="324" y="650" width="45" height="45" as="geometry" />
        </mxCell>
      </root>
    </mxGraphModel>
  </diagram>
  <diagram id="grLtAZjVPgYoMD2R7RwG" name="Strona-2">
    <mxGraphModel grid="1" page="1" gridSize="10" guides="1" tooltips="1" connect="1" arrows="1" fold="1" pageScale="1" pageWidth="1169" pageHeight="827" math="0" shadow="0">
      <root>
        <mxCell id="0" />
        <mxCell id="1" parent="0" />
        <mxCell id="er6lmreJBP6-P8-Qc7R2-1" value="" style="fillColor=#F6F6F6;strokeColor=none;shadow=0;gradientColor=none;fontSize=14;align=left;spacing=10;fontColor=#717171;9E9E9E;verticalAlign=top;spacingTop=-4;fontStyle=0;spacingLeft=40;html=1;container=0;" vertex="1" parent="1">
          <mxGeometry x="270" y="898" width="480" height="560" as="geometry" />
        </mxCell>
        <mxCell id="er6lmreJBP6-P8-Qc7R2-2" value="" style="rounded=1;absoluteArcSize=1;arcSize=2;html=1;strokeColor=none;gradientColor=none;shadow=0;dashed=0;strokeColor=none;fontSize=12;fontColor=#9E9E9E;align=left;verticalAlign=top;spacing=10;spacingTop=-4;fillColor=#E1F5FE;" vertex="1" parent="1">
          <mxGeometry x="440" y="1008" width="260" height="100" as="geometry" />
        </mxCell>
        <mxCell id="er6lmreJBP6-P8-Qc7R2-3" value="source www" style="rounded=1;absoluteArcSize=1;arcSize=2;html=1;strokeColor=none;gradientColor=none;shadow=0;dashed=0;strokeColor=none;fontSize=12;fontColor=#9E9E9E;align=left;verticalAlign=top;spacing=10;spacingTop=-4;fillColor=#FFF8E1;" vertex="1" parent="1">
          <mxGeometry x="110" y="908" width="120" height="100" as="geometry" />
        </mxCell>
        <mxCell id="er6lmreJBP6-P8-Qc7R2-4" style="edgeStyle=orthogonalEdgeStyle;rounded=0;html=1;labelBackgroundColor=none;startFill=1;startSize=4;endArrow=blockThin;endFill=1;endSize=4;jettySize=auto;orthogonalLoop=1;strokeColor=#0D0D0D;strokeWidth=2;fontSize=12;fontColor=#000000;align=center;dashed=0;" edge="1" parent="1" source="er6lmreJBP6-P8-Qc7R2-2">
          <mxGeometry relative="1" as="geometry">
            <mxPoint x="180" y="1152" as="targetPoint" />
            <Array as="points">
              <mxPoint x="180" y="1080" />
            </Array>
          </mxGeometry>
        </mxCell>
        <mxCell id="er6lmreJBP6-P8-Qc7R2-5" value="Data base" style="rounded=1;absoluteArcSize=1;arcSize=2;html=1;strokeColor=none;gradientColor=none;shadow=0;dashed=0;strokeColor=none;fontSize=12;fontColor=#9E9E9E;align=left;verticalAlign=top;spacing=10;spacingTop=-4;fillColor=#FFF8E1;" vertex="1" parent="1">
          <mxGeometry x="115" y="1166.5" width="120" height="100" as="geometry" />
        </mxCell>
        <mxCell id="er6lmreJBP6-P8-Qc7R2-6" style="edgeStyle=orthogonalEdgeStyle;rounded=0;html=1;labelBackgroundColor=none;startFill=1;startSize=4;endArrow=blockThin;endFill=1;endSize=4;jettySize=auto;orthogonalLoop=1;strokeColor=#4284F3;strokeWidth=2;fontSize=12;fontColor=#000000;align=center;dashed=0;" edge="1" parent="1" source="er6lmreJBP6-P8-Qc7R2-7" target="er6lmreJBP6-P8-Qc7R2-1">
          <mxGeometry relative="1" as="geometry">
            <Array as="points">
              <mxPoint x="535" y="1368" />
            </Array>
          </mxGeometry>
        </mxCell>
        <mxCell id="er6lmreJBP6-P8-Qc7R2-7" value="Analytics" style="rounded=1;absoluteArcSize=1;arcSize=2;html=1;strokeColor=none;gradientColor=none;shadow=0;dashed=0;strokeColor=none;fontSize=12;fontColor=#9E9E9E;align=left;verticalAlign=top;spacing=10;spacingTop=-4;fillColor=#F1F8E9;" vertex="1" parent="1">
          <mxGeometry x="115" y="1332" width="120" height="110" as="geometry" />
        </mxCell>
        <mxCell id="er6lmreJBP6-P8-Qc7R2-8" style="edgeStyle=orthogonalEdgeStyle;rounded=0;html=1;labelBackgroundColor=none;startFill=1;startSize=4;endArrow=blockThin;endFill=1;endSize=4;jettySize=auto;orthogonalLoop=1;strokeColor=#4284F3;strokeWidth=2;fontSize=12;fontColor=#000000;align=center;dashed=0;" edge="1" parent="1">
          <mxGeometry relative="1" as="geometry">
            <mxPoint x="500" y="1068" as="sourcePoint" />
            <mxPoint x="525" y="1068" as="targetPoint" />
          </mxGeometry>
        </mxCell>
        <mxCell id="er6lmreJBP6-P8-Qc7R2-9" style="edgeStyle=orthogonalEdgeStyle;rounded=0;html=1;labelBackgroundColor=none;startFill=1;startSize=4;endArrow=blockThin;endFill=1;endSize=4;jettySize=auto;orthogonalLoop=1;strokeColor=#0D0D0D;strokeWidth=2;fontSize=12;fontColor=#0D0D0D;align=center;dashed=0;exitX=0.9;exitY=0.1;exitDx=0;exitDy=0;exitPerimeter=0;" edge="1" parent="1" source="er6lmreJBP6-P8-Qc7R2-1">
          <mxGeometry relative="1" as="geometry">
            <Array as="points">
              <mxPoint x="756" y="954" />
              <mxPoint x="756" y="1096" />
            </Array>
            <mxPoint x="790" y="954" as="sourcePoint" />
            <mxPoint x="711" y="1096" as="targetPoint" />
          </mxGeometry>
        </mxCell>
        <mxCell id="er6lmreJBP6-P8-Qc7R2-10" value="" style="strokeColor=#dddddd;shadow=1;strokeWidth=1;rounded=1;absoluteArcSize=1;arcSize=2;" vertex="1" parent="1">
          <mxGeometry x="345.54" y="928" width="328.93" height="60" as="geometry" />
        </mxCell>
        <mxCell id="er6lmreJBP6-P8-Qc7R2-11" value="&lt;b&gt;https://ourworldindata.org/co2-emissions&lt;/b&gt;" style="editableCssRules=.*;html=1;fontColor=#999999;shape=image;verticalLabelPosition=middle;verticalAlign=middle;labelPosition=right;align=left;spacingLeft=20;part=1;points=[];imageAspect=0;image=data:image/svg+xml,PHN2ZyB4bWxucz0iaHR0cDovL3d3dy53My5vcmcvMjAwMC9zdmciIHhtbG5zOnY9Imh0dHBzOi8vdmVjdGEuaW8vbmFubyIgd2lkdGg9IjIwIiBoZWlnaHQ9IjE2IiB2aWV3Qm94PSIwIDAgMjAgMTYiPiYjeGE7CTxzdHlsZSB0eXBlPSJ0ZXh0L2NzcyI+JiN4YTsJLnN0MHtmaWxsOiM0Mjg1ZjQ7fSYjeGE7CS5zdDF7ZmlsbDojNjY5ZGY2O30mI3hhOwkuc3Qye2ZpbGw6I2FlY2JmYTt9JiN4YTsJLnN0M3tmaWxsOiNmZmY7fSYjeGE7CTwvc3R5bGU+JiN4YTsJPHBhdGggY2xhc3M9InN0MiIgZD0iTTAgMGgyMHY3SDB6Ii8+JiN4YTsJPHBhdGggY2xhc3M9InN0MSIgZD0iTTE4IDBoMnY3aC0yeiIvPiYjeGE7CTxwYXRoIGNsYXNzPSJzdDAiIGQ9Ik0xOCA3bDItN2gtMnoiLz4mI3hhOwk8cGF0aCBjbGFzcz0ic3QxIiBkPSJNMCAwaDJ2N0gweiIvPiYjeGE7CTxnIGNsYXNzPSJzdDMiPiYjeGE7CQk8cGF0aCBkPSJNNCAzaDZ2MUg0eiIvPiYjeGE7CQk8cmVjdCB4PSIxMyIgeT0iMiIgd2lkdGg9IjMiIGhlaWdodD0iMyIgcng9IjEuNSIvPiYjeGE7CTwvZz4mI3hhOwk8cGF0aCBjbGFzcz0ic3QyIiBkPSJNMCA5aDIwdjdIMHoiLz4mI3hhOwk8cGF0aCBjbGFzcz0ic3QxIiBkPSJNMTggOWgydjdoLTJ6Ii8+JiN4YTsJPHBhdGggY2xhc3M9InN0MCIgZD0iTTE4IDE2bDItN2gtMnoiLz4mI3hhOwk8cGF0aCBjbGFzcz0ic3QxIiBkPSJNMCA5aDJ2N0gweiIvPiYjeGE7CTxnIGNsYXNzPSJzdDMiPiYjeGE7CQk8cGF0aCBkPSJNNCAxMmg2djFINHoiLz4mI3hhOwkJPHJlY3QgeD0iMTMiIHk9IjExIiB3aWR0aD0iMyIgaGVpZ2h0PSIzIiByeD0iMS41Ii8+JiN4YTsJPC9nPiYjeGE7PC9zdmc+;" vertex="1" parent="er6lmreJBP6-P8-Qc7R2-10">
          <mxGeometry width="30" height="24" relative="1" as="geometry">
            <mxPoint x="15" y="18" as="offset" />
          </mxGeometry>
        </mxCell>
        <mxCell id="er6lmreJBP6-P8-Qc7R2-12" value="" style="strokeColor=#dddddd;shadow=1;strokeWidth=1;rounded=1;absoluteArcSize=1;arcSize=2;" vertex="1" parent="1">
          <mxGeometry x="290" y="1370" width="340" height="60" as="geometry" />
        </mxCell>
        <mxCell id="er6lmreJBP6-P8-Qc7R2-13" value="" style="editableCssRules=.*;html=1;fontColor=#999999;shape=image;verticalLabelPosition=middle;verticalAlign=middle;labelPosition=right;align=left;spacingLeft=20;part=1;points=[];imageAspect=0;image=data:image/svg+xml,PHN2ZyB4bWxucz0iaHR0cDovL3d3dy53My5vcmcvMjAwMC9zdmciIHhtbG5zOnY9Imh0dHBzOi8vdmVjdGEuaW8vbmFubyIgd2lkdGg9IjIwLjAwMTA0NTIyNzA1MDc4IiBoZWlnaHQ9IjIwLjAwMTA0NTIyNzA1MDc4IiBmaWxsLXJ1bGU9ImV2ZW5vZGQiIHZpZXdCb3g9IjAgMCAyMC4wMDEwNDUyMjcwNTA3OCAyMC4wMDEwNDUyMjcwNTA3OCI+JiN4YTsJPHN0eWxlIHR5cGU9InRleHQvY3NzIj4mI3hhOwkuc3Qwe2ZpbGw6I2FlY2JmYTt9JiN4YTsJLnN0MXtmaWxsOiM2NjlkZjY7fSYjeGE7CS5zdDJ7ZmlsbDojNDI4NWY0O30mI3hhOwk8L3N0eWxlPiYjeGE7CTxwYXRoIGNsYXNzPSJzdDAiIGQ9Ik00LjczIDguODN2Mi42M2E0LjkxIDQuOTEgMCAwIDAgMS43MSAxLjc0VjguODN6Ii8+JiN4YTsJPHBhdGggY2xhc3M9InN0MSIgZD0iTTcuODkgNi40MXY3LjUzQTcuNjIgNy42MiAwIDAgMCA5IDE0YTggOCAwIDAgMCAxIDBWNi40MXoiLz4mI3hhOwk8cGF0aCBjbGFzcz0ic3QwIiBkPSJNMTEuNjQgOS44NnYzLjI5YTUgNSAwIDAgMCAxLjctMS44MlY5Ljg2eiIvPiYjeGE7CTxwYXRoIGNsYXNzPSJzdDIiIGQ9Ik0xNS43NCAxNC4zMmwtMS40MiAxLjQyYS40Mi40MiAwIDAgMCAwIC42bDMuNTQgMy41NGEuNDIuNDIgMCAwIDAgLjU5IDBsMS40My0xLjQzYS40Mi40MiAwIDAgMCAwLS41OWwtMy41NC0zLjU0YS40Mi40MiAwIDAgMC0uNiAwIi8+JiN4YTsJPHBhdGggY2xhc3M9InN0MSIgZD0iTTkgMGE5IDkgMCAxIDAgMCAxOEE5IDkgMCAxIDAgOSAwbTAgMTUuNjlhNi42OCA2LjY4IDAgMCAxIC4wMDctMTMuMzYgNi42OCA2LjY4IDAgMCAxIDQuNzI3IDExLjQwM0E2LjY4IDYuNjggMCAwIDEgOSAxNS42OSIvPiYjeGE7PC9zdmc+;" vertex="1" parent="er6lmreJBP6-P8-Qc7R2-12">
          <mxGeometry width="30" height="30" relative="1" as="geometry">
            <mxPoint x="15" y="15" as="offset" />
          </mxGeometry>
        </mxCell>
        <mxCell id="er6lmreJBP6-P8-Qc7R2-14" value="" style="shape=image;html=1;verticalAlign=top;verticalLabelPosition=bottom;labelBackgroundColor=#ffffff;imageAspect=0;aspect=fixed;image=https://cdn1.iconfinder.com/data/icons/nuove/128x128/filesystems/www.png" vertex="1" parent="1">
          <mxGeometry x="150.5" y="942.47" width="94" height="94" as="geometry" />
        </mxCell>
        <mxCell id="er6lmreJBP6-P8-Qc7R2-15" value="" style="image;aspect=fixed;html=1;points=[];align=center;fontSize=12;image=img/lib/azure2/analytics/Power_BI_Embedded.svg;" vertex="1" parent="1">
          <mxGeometry x="169.5" y="1350" width="75" height="100" as="geometry" />
        </mxCell>
        <mxCell id="er6lmreJBP6-P8-Qc7R2-16" value="" style="shape=image;verticalLabelPosition=bottom;labelBackgroundColor=default;verticalAlign=top;aspect=fixed;imageAspect=0;image=data:image/png,iVBORw0KGgoAAAANSUhEUgAAASwAAACoCAMAAABt9SM9AAAAw1BMVEX///83Za8zaJ4FLTozaJ0FLDoAKjU0aqH5+vzj6vEwZp0kYZo0Y64vYK0AKzY7b6InXKuWqtBYfbt9l8fs8PctYJAwZJghWarh5/Pz9vo8arIqXIm6yOHG0uciX5mywt6nuNjI1eNnhr5UfqwTPVags9aDoMHW3+62x9oJMkOkttjF0+JQd7goWIIcR2WkudGGn8xtjMKWrsofTG9Id6gdSWtvkLZghrB6mbzX4eslVHoQOU1+nL8XQVsLWJZ/mskMUqh5+v9LAAAYKElEQVR4nO1dC3eiSrNVRNEGFA2+FU00UScaY2Ji1DzO//9VXz+hG5qHCpm567rXOTMRnVH3VFdX164qcrkrrrjiiiuuuOKKK6644oorrrjiiiuu+P+Fbmf453nTWPaWjZ/xsFL+25/n30VnvOmZlmWaBgL8yVjejGdXwoLo3C8hT4aR50AY24w6f/vDxaHs4RfebbgxLYEnjjHTMu/G/yJf9v52vn75fN9NtttaTYOobbeT3fvHw3r+uLcz4m2whDYlp4pamGVuhtm891no7ucPu60GdN3RdYChYOAfdXxZ2e4e1rd2yu88bIQZlWBf7eXon3BflfnDRHEcyJFCKdIEMNYUgLmcfM73qX3uziYBVYQvazlK613PRPf2YQIgTwojSVFbzX5/tTocDq8Qh8Nq1e83W6rCeIOMOWD7+dhN4d3L95aZjCpMV3v5Fxdj+fahRomCRLSaq9en6XFRqJb8qFYLx+nT66rfUhFhaGE6yvvFfM2WSc3Kta5N2l4gIbrrCXRPCoBEqc3D07FQQLSUCgjFAkGR/VDAFELOvl77LbIydaf2UrnkA9yfSBWCaf6NtWi/AAcQol6nBWw8PEt+qnjOqkdKGHRhn2fTZd+dwRVai79vXPOajhaf0n86VkvVACUSlgqCkS2eViqyL115Oc/Z3/ZO8FaicRm/67nsHbaq1uuiJC479gO0qSJ7WCzIyKuWFm9NZF7OZH/GJxidZVbUuKx66oyEY791IFXNp0JJYkCiKRXRf7LlCFEqfDWxu388+RM8X8AVYuvu15ZiRQNAU9/gly3ytBQlnMityr1YrX61NOi6TmSrvGlfQBWC2Ztlw03go050aFaLkrDuOEp8BIXyRa1rBdnSTvqH7jbOdVeccf3Srjh3FK1fqBIiigXPOQUtR25P4sPSQVP0hxPe315ezhXaFZ8zY4jDDigtKR/xF6So9qHfSv72lVS4grA2aRwiolGuAe3g8+xF4sTd//yURbJWeoKmlTjc6uRT4go5rswzN4isVUlCQ8BrFQMvkZP1egJZnd4l26APRuYRV7mmKOqRM61iZAgauxRLhZaSmKyOkSJXEFlHXNCyFKV1LLHwM8CRaGGSVwkPqoW+pqgJyUrVrjAydvOYLKX15R1yEu18YXZ1bOJTTyKy0ucK2tZN9mQp2uqI6ZJwkowmTNXiQBJhiciqnH0cjGRrk2EGlZKlaOrhKDlCJwc8Hb62tORkpRNfBWHeZRdCIAePoKKcw1fhTL6qpeqU5B2SktXNiCvI1jKzkyKzLIDo0lqrr0VVSD1EH28w4OunB5oCVPH/8WSV77LiKku2GFmUMchX/+1YdXOkDNIAjOb+nlYtTVN4xJOVIVcZhqeQLACEbwoJU1BeGWffq1UJRSi/gJLKi+PXASVJNWJRHuexZN1YGXKVHVvYsgAxK+9/olj0D1iyqFarolpROE6/Xg/9ZstTxkTEkZUxVyiY97G1PyclKSEL08McFxVSsS6oMJ1QbTabfYpms+U9EYYYsp4vzV8lYCsvZLgev53bVMjiVqFrWN4vbGkigkAUQcnJGmVtV5gtwbbW39/rdMjCZqTruqJQCTrgxVRqbegH1UejBNE+6/aiHHJytnjb6j6cKaT4ycJsgM/5A8BEKN4vhCjCjMq7cMGd+6DGWJadwSFHzpbMy9vrS7RN4rP0T/jji+6aFmdc4iKlz0ZbVhRZ5RSSyInZCsZbNad2gYmROMtBGsPeAWDruitVNB/XnYVblPt01DLMfCPkYC4DJx9I1gWnIZzPUhzk/uZObV/eb+lWqBIfBUlj3goxAleqKiWNN8AIsu7T2AhR9WSitWw2/O9fuXAZElNaV+aqM4cXHnWgTGoAcN9f5X6VEBW8FErWMA3nbm5mw/teIgsNz9i8PJxhYSwo1XUH0MU4qeQqE27ZqZ5DByHsiJeBE0JWJ5lBRMNY5gZwoxvlzQR51rDc6eP39ykSFMMOqMRjQ5/+Dh9/fGP7ckQecPBAXhXv4EGIulNOJdNgbnL/tZejnL1pLK1YS20PpB9l75wVeK11d42p+uRhp2NB+dZhJLHnVN7GuMhC8V+BVvohf6ufVDZCaFl1y7AaaBnZo9iaLv/Bh7F1VkRfnnhRAgCoQmsHN9d3nV7BRAB+N1TjAgdFk6/CcUqnHLi07sy82c4vN6NybhSTcDWCWyKP2+0pyxGShfc3138DvfZR88yNXfV8knw75FCT5pNScVj461tDG7kr0zSt3jjXvWtH/sVmZFp+53yfcMae665dMRIAiHBLUdE7hVS+Ly9Ti9wNwx5YeeNmY6I63E7uT/TO2I6qg1jrkxO2RSTf93Eprf8MzVYeMzxVNDA5tGZTLt/XU4xGoY/v5Y27XMNAdjaKiUiMfFTm1G0JShDZE/n+VdGkJqP6L8bYlaatCnL5fpZmWsawunUzb91jYzXa9dxtpN+C3MbzsHPit0ci3yMRSyOBOzEqFa1ENcyMgPCbR5XSP5ZKr5okgi83Uj0+W4OZhSokySPI1jDSb1ny+IHH/lvfJSALfstjqVA6Es2B5hzceDSRkyJUqatpqVpaSOX7+3SPhOZdjk9eWPfRfitmR8Q8fGjzBGRBXpqo2KFUeOqj/DvgGcK/s1xW+GEHpe2fFqVqoVpAknSALDvlHJZh2bwPNNrD3CZqJZ5SBLGPSJngs6GK5XtcdUwECGph/vxMMG+DmWqt3kjtbmmKuArWOjynnZcx62WefyPf7Ua9BSQ3KVdzB4SyxaSw1ZF822qRlLX7M8iAbYn8skQvU/uv0wURzkLl+9RCLO/bm50hfzSEwVRkttpMXDHy4HyH1sRislS8jxG6UGNFafH1umq2FJEzzt/jJ3DDCtYYiYR4PKgh8n3qhoUye+Lfas1yUYEcDM0SkmW/h4f0jCzSMoDke1yljGVp1KBzWCFBxw0hVLXVavZXB9bWU3Xl+69w+b6SSdZd9FIwPBhHmtbJpVuVeYDfMp+6ghsadNNevYMnFhaKCwQirzL50FWlF18HQZT2kZVmPOp++ZuumKGxut3olM2J6eTy9nsiIYvF64A46+brtMiTEQFEXGH61vfJ9744q5yFRGENfD4Khg/1yA3xxOLvbs2pychSWHqBkEbawqaLArEpSZFDCdtXdXF8YvK9GI2JZA2ySLtbHZ8jNHplO2ofgaej07B/CZywhcIQYZ9TW33owL+gbyoWPf2+WiwsFlPkzPpNVZMQFczBR0ZA58LsomO04OLHkRsJ3D9PZIsxtF67x8eaF0EJ2ipgmx506S2m38Pfmy2ujzUEAlmR/94XkWUseZ9uLKMLeiGZZ2HuqdmELJLjc7VokqIJTy/E5LPEoDSTVZi37GfTGub4SzCMv4kwrSTHaRkev7/ZQYhZlu7olAZVXFfslKjieD6Qhoi3rExWIYyrRtZSPHMaDRj9hkcphnGmvHrrZqBpnAXW+zWndTFK4IkQscRSWiS7hR5Hcib4rHLKte4U5n2nvckNugKB41x3HK6RWRe3jhEpTH+BP64dN0fKBRP0d5+IGLkUBbJm2UjQMIK/e84tbT7bYJg3wzLSyELIGqdBlsoUQ1Dboey7yi8/LhOvRqdrvCd5su4zqm2wBvYwZ/wIqZq8afWeO3bIcIjoZHxSsmjWfO1M7Fx3BwIlR6ovq+wjLVqRzq56dJgbmdZo6LNc0xyHZM/gdpkGWZCfl8cXgOX7W13ffmx1GReCO4sCR1a3lxVXebNnGoY1CARX7bvKUGZahpECWWRSiqMDHZPl7Mq58rvusYIcu0odlwqUKOmHksqRlZHL8hgwn4Vsg2FZvWWjIotXDPPidoIdcNNUAC9DhyjSNL/spU1du+JkRrkizas72ddEmnccW0YDz4vqzmQGbdluEc3tmhBXntMYqrumAUJlvRdfkpt7+Wa0B7pfUoUOXie1DkAFriKtKFS98HSyyFX46ZGVQSorAI4Y8znXrd8t5fGDOdt+b/Gn2uu0LmTOIs6Hb1LNUp7Q83NF//4QX4KfdacZqSpekpNKzp5QdSdAjlDUFlJUU+P8u1TVMS1LHNEDH0dEkyYH8uddGOwF7t80y/20w2KHCLI+XbK+Y8jyu5yt7vdLPrceNC4+DuPJkh0MzZ/BbMiVABr5P7PZOKTExrB6P3UXzwa8kN+whz+oLsRo3N/X2dsYvVluuJSvfauTaBn6XiIsQ1ylzC0w1XeqJrE7WZTMlESlh61X5vq5ZWhLtFWaWXIXqGHhfIBcWjR6guZXsQxDGDPWaZg4v+7+oxjWfS73I2XLurjvwpXvSU0kMyNVFX23l1eODk198n1HRhb5zDY7B5k/5LXS3J2Jzih2h2FomqgRukwfoh+XlkAWHkNWliVnDfPS8m4q39P8uVAg4x0AxVUn1aPJI005VJ80xav8k5GFEkvoGzPTQme2TkVOFg4k65bno/CFTo88wkVa922RLEzXUHJ8TyMoVYh8j+lSQZAgl7OgF1PFhxoW1ITu+zCy7ofuczh1cmNjsqy255wNzA0qob0js0oRSMKzTncDJK7mRgGy8DCfoNaT0nHnWCJ9qJrASfCHUGAtrXU4olyzIN9XQsj6s8mxk5A1RIo1JssazGbMvoxGp1NZmnc58cREyGIXrBCyYLQeDLSsP6mQ1SLy/VdfJXP8GEm+2EH1xQrepqAhHQ2J0qVCUwOqtwy7IWSN/0NrETkWstBMTFZ75kWx2KYaJnr2Dww0LBpuJCRLBuviXicq3z9Vq0XU5vy0ailevhjwEXygnJQCddsRppB83/J130vCJ0wW+oa4vg3tjd2eEUKWYaLNsDPDGG3aUrLqicg6+7TjS/553ffVUuH4tsJatLDKAM4DKiSE4HmCRL1OCVOQ6wOpw+FKuyUyMSbLQvRAYoxeGT3Kh5FlWD8z70sO8+b5ZAU6CJJBklYGympaxSO0sMiF5XuV1+/50J0KGc3VK26pJvJ9lcn3gD9IS3YlQhYKh8omjopQTiqMLJyjaiDcoVeO2meTlbzcQYQoWAAq32tsMRWJfFo8Tp/eiHzfgtskSiZj9R7J92+4xbXkyfeFr5XCojWeLElqiVpWr4u1asjSoB1FFvoZA7m5mUsWdmGnkJWgok0KiRRGLAbJ99yExFKVivcFpBZi+d4V8Dn5Hhqi11Pua6Hz5+ZcsnCWt9L+wZTEkEXQ5sgyf2bD2xvrBLKSl4ZQhIqs7lEQlxB9LXgyIgYVEPn+VZDvgUiWHdQrKFl4G9zMcMqLkdVB353YkUnJ8g7N/1UYWaM2yofCsPa/GSMrzweukLnA257qsuTyPR8HUIekNFdv00URGVBRrHlgw/0wm4vp0wHL0v5oXo9MO1Cy8LpAL0TSMiEL7Yz2TYMAhZAwdPi5YUDLaGyh1Zur3zWW6CE+CFiIhtkze9lPo7FpLBv+AgvsHE9AWGGICBo4Efn+Dcn3uHgGrjYESNXiOMXDgptKmC7NkxU8xDCy6L81CuQpWXn/oMOGTxnt9AJ+ehYoghw1xvVR4LzTPvUULS854nV71U8Z0e/d9nvi7EO671m1W4wUZnbK5T/oq1j1MppJg4rZ8/AaJMto3ww6NgUlq+tihkd0Wo2B3UVj/LtoIr2NIlVr+WfG/pTdve89bwb1jS+kT3owTFTMFnKm8S5r9P8EEBTpQMGR0YPAF63eXYM4F/eaabUtAvTt4BruucjTc6Nhmb0lRM9Ac1Q6qHfHgH+KextJTjnxWSemTBLz4eiOkAQNB/8SXwaePRTIkgQPBnO/hvsTuWZaLtrIZy2NPHeG5v88vmDmO2gEEB9f4L+Gfy37E0n3wvgCXFB7LN9uOd1GlZxrXIYCz/gpPreKxqwPXCDfHVu4a/SgQ98k+PtPyDjElnbrpEcatdB5p2ShAEmVdf1yyVI+ReGrz4oqbRFhiRMOZwl6o1gePgbtuDqH5E0DrPseN2dS61GB4reuwL5J9FmfbBEoZksuHZr1oYvB/Sa6Ne4UxAdZCdtRkAnh3tMXB7X9fuoKbtGk+XiVVYVwthOzF6j+3p3kCj7nsywzRRHNih3KmbTRCXuZ3fqdlofo6GfdrWpT2H9CZU0YaLGXSFbWqnQszIh60hNb6EjVB6SHyqtIm3nQcSKL9PFgZQeL+MHOp4AirUraUZJ7rWzQDk/7ndyc6ZpFbZ+rbPHwpL3DWQr2XoATpUPEVcIVCHbfV7IpaEuKqK3wjLZfJtg4jgPYzog9lq/ACIROwuARbPvNom0gOaJirJMbyn16KYq5amzgmMR0YiFpKE+vQfp0SCv+zh9V4O3+yJIAiub5MUeAppXduknftALKK2DFNWowrPuloVkySL37uUMwHM5eqCINVKJIq5zRceqhz+ACtsZX0TD8vYVoyCLys8erMPk+fMGdcGIM7b7PbIhrDEKyyWcO7lG0Q+mtpQFmU77wQEZUKHmacggbnt/5O+vQN+fo4pFQbvd9mHFJuJG6edLgGTY8P5tOixj401iXDhsDioa67xevTZIfVlkoJUwWA15hN2tQZCPvGFOtw4LK9/KRUM9/gS1/d1Pt++Ixdky+X7Hue1/qlC+tkRqaRnS0QrEk774nyKYxJQpt/5nw0gGJmJgn0n1f/VqhzLq3+AAtgWdFkyA4tQep0qsnMu+7hO5SpKghw8aym9QdAjc5n9roTZJt7xP5vlQqHJ9WnBRBZpPy9sSFE1i+X71Ni1T6X6zIC8LG2FUCGcxM4akdaQ51Jc55Wi3RZvLqYvp26LdCxgJr5Lpfvo/ovncx+81DIjdMMr1xwW7VXvON3YYOa9GFxfTrjbbfQxDxnqj3SCIjU73py8m4EUZn+DRJiUCdFYSBwWkNonbTCHBbVPtu9z0yMqLUk3tbFEX53psXj7vvV1Hd9zwGv3XuMeITfmeR5dVGklnwbG0V8f35/Dfi4S4g2hbTV1oDl4gsJM//Clnti+v85GSxmIBGDKj7foVnpnDzG8T7C5CnoGdbNVUl6NUiB1FfcuPH5LB+0ueKG57PGHP3OUjZgcj3iyK95y+kDj46Il9Gx68oSjCTE3OngfEv2JbZyOKOMmRccBjI7HzSfk+AXL0SWuSQxLJ+w7YkU5XTIYudZyK+fCi4Jcz/HndbhqzZMnsX3aQ5kiw833YrHPVCJ9gpCp1xx2nXgReEjQt2ke2hWjoJPi2y4HFmW8lVdp58H5QmeM3ePS/6FGnArsXfSmaQyWQMylU+qzu0Uvme9LDiflaXLd7tA5EpdxVKJev4W8nA6DQztgwzs7vZQrLgImTy/cecCIaMFJxZVv1shEjS3tUk9wqbZXVOzCAY5chCK27XzZXfHZSWftEBnh7CSRDcEou/JUPUQVpAJ5O70BnnFiUnJQv794+JzuT7l9sX1n1Pu+k8e8L3R3ETgZ7R8esx4c0gs7gPnREy0jw9skjlC6CFR99keghjiObmKSHBPDPP1wk+Kxu2jFNHip2IHVly5HvOK/Mamx7iboCAI8WfOOXBiRwJ37t7l24IkTVXuITN/Zbo5gxkLo0uhAYgPMhnr+AoS37T7fJzmkefzLlCt3PnkjT41/V+zW15wOuRVtw6JD9RLMTCv51yO/dxisF85lzlchXNsxuy8vCtsDhfRIREug5jJ2gBPbTaV4Zhaptilvugi703eSaqR9qt/44+TAJwElfohu6pOC7DzPqW2wT2u8Po4Huk2dHHa7znSfF1bbLnnMnJCdzyTwqOyzAyi9v9mNd03lB8RhMfh7JNUlfOkpzuL2bL9DeyZAn7BTiARVOua6cT7LxSLSBU0fg51fXPM1Mjw7Bpakm5amR2h18puusJf4pmFhNaROqH7mxfzs8iVRoXOC7D2mR37+gQlG8fapgv4q64hh5azIaNLRhywWd1R3mfX/aBn8+OIYxTRuOniO7twxYwA/OlQekVX1oQwMUHtp+Pl//TnhtDmPnf2QalqMwfJorj6Nx9eChnKhAIRDw5+uRzvk9HHAgbbBhjVr/sroLo7ucPu62Gqkuh4VBgfhAgR5BMZbt7WN+m+kkHvVPpMi8fA5IS7P3tfP3y+b6bbLe1mqZptdp2O9m9fzys5497OwOxyX5OeJtHCqvxixFDUpQ9ZPxOnY2VvNMnP8740/zzmG3CxtAJMMz289/2Vv8COs+9uNVomOZNRnrX/zl0R3dW+HI0DMusX6niYI82PSlhpmU2Rr8esf/z6A7vMWF4/gfpILes/GZ8NaoQlGeDeqNHRpL2Gs/j2dWm4mBXOpUs4rorrrjiiiuuuOKKK6644oqT8T/HOlNeiVdEcAAAAABJRU5ErkJggg==;" vertex="1" parent="1">
          <mxGeometry x="174.00000000000003" y="1202" width="137.5" height="77" as="geometry" />
        </mxCell>
        <mxCell id="er6lmreJBP6-P8-Qc7R2-17" value="" style="shape=image;verticalLabelPosition=bottom;labelBackgroundColor=default;verticalAlign=top;aspect=fixed;imageAspect=0;image=data:image/png,iVBORw0KGgoAAAANSUhEUgAAAOEAAADhCAMAAAAJbSJIAAAAxlBMVEX////Y3+Mfs1uvvccZgEPI6tQZslgis1zA2tIxuWnW3uLv8vTh4uoAsE+z1cfd4+cmtmNGu3b3+PlpzJFVvX7P193G1NIOsVSAyJ8AfTuRzKzp9O4Adi3R3t/P3d1sxJI7kV/i9uqi0brH29Zjv4aJy6es08FRvXy9ydHm6u14xpkdplWazrM7uGxfwYeQza23xM3Ez9XE3c5tr4hfpHsliE7h7uadya8xklcroVgXlkwaiUcZhkWY3LOL1qnW8OC15ciP06Z7SeS9AAAJ+UlEQVR4nO2da2ObOBaGa7w9XIrBpM6KumtoTIwbBux2Zrq7M51e5v//qcVIwsJcghJLEFbvhySOhdHDkXSODhJ+9UpJSUlJSUlJSUlJSUlJSalJNzdvJOjhYTC+hwd3ZonW7Hb+yR0G8I07kyJrPv80iBUf5PAVhPOPb+QDvpEFWBDOP9/IBryx5BLOLdmEkvrgmXAuuSveyAOkhJ/kdkV5vbAknH+WSihtIGUI57cyCV15A82ZUGpXHIbwk0SXIXEoZQhldsVhbCizKw5FKC8GH4pQXoA6GKG0AHU4QlkB6oCEkrziQN4CS0o7HdKG84+TJ5TSFYcllJG2GZZQhlccmFCCVxyacD4TTigPsJlQuFcc3IbCveIICAV7xREQCvaKYyAU2xVHQSjUK46CUKhXHAehyK44EkKBXXEshOK6olTCTx2IwrqiTMJZF6GwriiV8GMXoaiuKJXwtpNQ0M0MqYTdzVTQzQy5hN1GFHMzo5PQMhw+GZtHED93t1MRNzO6CDfpcsGn5e55iCK8Ygehu12CxidA6SOEs9vOvnh7/dGmy4YhL2CO6D1GOLM+f2yHFLBOo4vwHvETmo8S5oy3rbKk2tBN+G2Iwh6EHXLlttJoD7zKohdFOLP8FZ/84HmA0glnrs2pZwLKJ5QuRagI/z8Jh2aqStlQESrC4aUIFWET4dBMVUmfWwScmageuaqoO9SXS2hteTNRPaTvumZYcgmfkInqk+dA646LKtmGT8hE9UH0OvIAkgmfkInqQ9iV6ZBLaD8hE9VD6L6jI0q2oZEh7lTUo0JLp/2M8r1F4l1dodHlgqXHNLyJqGcnq1TUpggV4fBShIpQEQ4vRagIFeHwkk8YGVdWdyJKOqGITJTWuWxKciYqFpOJSlUmSh6hykQ9TegwukyUBuVP5s/6z37/Rsu4/YxXI3x/VuedmSA0l1eWeehKtV2D8ObX3979i9E/u873EjNRv/7+7t0/GL3rJpSuZxPGHyp80yN0vlwATo3w35cWnBzhbzXAiRG+rwNOjPA/kyf8ffKEH+qAEyP8MnnC6dvwv5Mn/GPyhMvpE/45eUL969QJ4Zca4tQItRri5Ai1X/68JBzXEtrnE2qa/sfXr3/99eUDkXPtGxPP1B3W+2cQUumFyK8RyvvGTyniLoQ4AYLvvIwvi1A7Zcd/TJxQQ3s+xJdHqKG3UyfU0M+pE0I2dUJtcTd1QvRt8oTfJ0/IM5q+SEJQhIpw9FKEzyMs1ocwv5uL1Iq3va6+p/WrjUhCAHN/n/i5kuTeW6KGo0H3cIlCSbgyGSZ9nx+nt3y4l/j35rCEoO39rWGRFSKBkyZZ7XDY75wNu44k2iZmWepguHawbjwnrBzX3qRt+FIIkZcaFpukcjdOctGwUGJcJpLsIPbwYjgwndPKGffQtDYOjGJVTdhj3ZwowkXSsLouiJdslRaNW5ZdAyPCHi8NchooYFW858aLoQgB0uZVrqT2hVDYshLWKBoqJQy8+lkXsTssIbSvrYvK+oLXusIwLgjJGksrrRkRTLxa0B6qlYK5ZetbfM8t0wbJh8CWLWCxpaKi5voOd2OjNkKhIy4XmD0qJIJQP5Z1DYw4Xa/XaXx+aucWVws8MsoEzpoqH5vwZUiLEits5CC5tNQSW9c+DjSWwj0dZII4ydACneTt6LAZ4KXRKCH193VUyosxonMydN4UsBHjZfUEKMSHWoc+9bk+IWQxcRJRYpZeHmBPau/GRatDa/yq8tgFtMLXwSjqDgk+Irp0GFv2gwYgvKe96VBxfzk56XaFEQEbyPLZ2oMZMx0RPLJWdl09AbkMM79HbUQQ6qRtBfcXpekS+9xsp5e42KbaycjBARkkydNanYrDoI/FMPb9Os21CSEjbfRYG8mRT1rdqXURG878DkJEezS7Ip62BbtXzCaAECXEUev1wjqusHOKmMnTdO208qGQkgaO/6nHxOqMWwASKER9nKEIwgW2gl034Ykem+108ZFPK8rOkIjVKBEtFKzOZcwUX8K4jzMUQkh8VWMngdSIjHWGgzI8XriG77FTRN+JjC09GDJcyN6VLRJW+ASbXc/dKtcnxFfYbukkq3BFP4VGdpazPpwnj+CdS5RtmYlrdB+fwGgIV+UQIrJZoOUKn2ft7M4XI/YzyliZ18OeRKB0YM7nVPiQbe9ZwNXHUky4ebwNwXF21iZKV4uGj0cEKCafBwdSvnHaODJCDeLK5hDLOaBapgOFpNWTcQVSEo73nqoOSagtLjYS2sHOu3QyCI+mZGwGk1yUnq5iaMI88rz4pgDbSi8GYXSk/rV4RcYZq5+3H55QQ6YfV3M1dlTd0gcetrOFQ1Xii9Iek/txEGqAlqu1M2NTVlYVcUmmKg6cxl9cxO0Xko6CUCsmVsl2www6QWXrKYSYMMrjGkR8qNO/kYrzh6057oa/AbLVLjozOmxARpMBVopoaodrb6rkmAaBqVEDwWKpL0o3r5v3jk0a66Yy4dB3JK2YLXZkctI3nhFDSMaCxkog37WtHU5K5BNZ22am6QAoI8kpt5K3QAcSifpLEqUel5cfLJWwa25RuG+7mFvAIXJPLJUGCcRIDjuS0HyNuyVfK7DplZ8RRkjnh1G9MJAcWZHxpTPBSiaA5i2q/y0nWiRH0C8/I4yw/BaV+uymMsdvzmKQVHJQCVnKfA3xJj7XLbDr52lovju6fNwAHRRJL+uTp6FHVqK7nvkZcYRAYuWZsapW09ySdGKIa92Qa6OX5+Lq0LEGK+XhE5wvDZmpAqKpftfB+VLcD901G2qjPZsvZcQ00775GXGEZaooV+xp5JGcekjNQIIyRAfGkHlwp9mYPjwNX+cA3eFxFWIIcxdNu41rG0c/DMNkHZQRS3px32K2Dal8w25piMuymVajgYEIIWPuPeHb1+fI2tnT2TotdP4qGlqq3hAX6/I9LlchiDC3T+X2GiujHENg3/oMlm0t5CvzzLMt7wNhBN0Dzpq/Pc02mPQKJG1XoemuLx1r+FyFMMI8fPEDu1Z1e1upO+yaHuJhR6uG09B8jcH9TB9RKxVA81KrCmAbYTVNDXqyqTHal+MoKYvHml73teUQnhgzP3Jp93FnTrisrXDKW3NlRcrMjcKWk8Bh4+aNgLeNiiQ8ZSgW5sE/rtP1Ltlri8Y1UUhbJccUa70LM9RqI8j8XVP7fbQWYlfu5ZM+rPYjATHqOgF0v916mFqbqAhHL0WoCMcvrv0WvGH9KMS1Z4Y76h2DuPY9fRPyKEvBWvDsIr3rf09rNAKTA/DVq7cvr5kufnIR3j0pMhxSyOPcsP66fYvHKAUZzw7SQj+zF8QIwLlZHVvx7VLANxwJEcq+c1vwpPc//1555uiVeW+/vX4KX6G7H6/Hrx9Psp+SkpKSkpKSkpKSkpKS0sT0Py9QrZ+Mji9OAAAAAElFTkSuQmCC;" vertex="1" parent="1">
          <mxGeometry x="600" y="1044" width="100" height="100" as="geometry" />
        </mxCell>
        <mxCell id="er6lmreJBP6-P8-Qc7R2-19" value="" style="shape=image;verticalLabelPosition=bottom;labelBackgroundColor=default;verticalAlign=top;aspect=fixed;imageAspect=0;image=data:image/jpeg,/9j/4AAQSkZJRgABAQAAAQABAAD/2wCEAAkGBxEOEA4QDw4RDw4PEQ4PDhAOFBARDg4RFxcXGBYTFhYZHioiGRsoHCEUIzMkJystMDAzGCE2OzYvOjcvMC0BCwsLDw4PHBERGy8hHiQtLS0vMi80Ly8tLy0tLS8vLy0vLzovMC8vMC8vLy8vLy8vLy0vLy8vLS8vLy8vLzEvL//AABEIAOsA1gMBIgACEQEDEQH/xAAcAAEAAgMBAQEAAAAAAAAAAAAAAQIEBQcGAwj/xABKEAACAQMAAwsFCwoGAwAAAAAAAQIDBBEFITEGEjJBUVJhcYGRoQcTFJPRFRYiQlNydJKxwdIXMzRUYoKisrPhIyQ1c9PwY2Tx/8QAGgEBAAMBAQEAAAAAAAAAAAAAAAECBAUDBv/EADYRAAIBAgIFCgUDBQAAAAAAAAABAgMRBCEFEjFhkRQyQVFxgaGxwfATFSLR4TNS8SNCYnKi/9oADAMBAAIRAxEAPwDuIAAAAAAAAB8rivCnFzqTjCEdblNpRXay1SainKTSSTbb2JLazk26PTk72q3lqjFvzVPiS5zXOfhnB60aTqPceVaqqa3nrNI7vKUHvaFKVZ86T83DsysvuR5+73bXk+DKnSXFvIJvvnk822XqW1SMd/KlUjDnShJQ72sG+NCnHov2mCVepLp4GbX0/dz4V1V/dnKC7o4MKpeVZcKrUl86c39rPg2VbPXVS2LwR5aze1viy0pN7XnrKqo1sk11Nohsq2AZMNJV4cGvVj82pUX2MzKG6e9p8G7q/vtVP50zUNlWQ4xe1IlSl1viz19h5Qrmm152FOtHj1eaqd61fwntdA7p7e9+DTlva2MulUwqnS48Ul1duDjLJjNxalFuMotOMotqUWtjTWxnjPDwlsyZ7QxE47cz9BA8fuF3U+mRdGu16TTWVLZ56C+N85asrt5cewOfOLi7M6EZKSugACpYAAAAAAAAAAAAAAAAAA0W7S4dOxrtbZKFPslJKXhk5Qzp3lCf+Sf+5S+05g2dHCczvOdi39fce+3A6Ep+bV1UipTlKSo77WoRi8OS/abT18i6z2slnU1lPU09h5fyfX8alqqOV5yi5qUeNxlJyjLq1tdh6ox123Ud/aNlCypq3tnL93mhYWtSnVpRUadbfZgtUadRYzjkTT2cWGeVbPb+U3SMZSo28WnKnvqtTHxW1iK68b59x4Zs30G3TVzBXSVRpBsq2GyjPU8g2VZLKsAMhsNlWwDI0bfytq1KvDhUpqaXOXxo9TWV2ne6VRTjGUXmMkpRfKmso/PLZ3bcy82Vk3t9Gt/6cTHi1kmbcI9qNoADEbAAAAAAAAAAAAAAAAAADzPlD/Qn/uUvvOXNnU93lCdS0cacJ1Jecpve04ynLGvXhHOXoa6/VLj1VX2HQwrXw+85+KTdTJdCMa1ualGanTnKE47JQeH1dK6Db1d2V9KO98/jicowpqT7cauzBr3oa6/VLj1VX2FXoa6/VLj1VX2Hs1B5ux4x+IsldGFObk25Nyk23Jybcm3tbb2so2Z70Jd/qlx6qr7Cr0Jd/qlx6qr+EtrLrK6kup8DXtkMzp6Hukm3aV0km23SqpJLa28GvbJTT2Bprag2Q2S2VbBAbKNhsq2CQ2d23L/oNl9Gt/5InB2zvG5b9Bsfo1v/AE4mTF81dprwu1m1ABhNoAAAAAAAAAANLuh0/TsoJy+HVkn5umnhvpb4okxi5OyIlJRV2beclFNyaSWttvCS6Waa53V2VN4dxGT/APEpVF3xTXic30tpetdy31Wo2s5jTjqpQ6o/e9Zr2bYYRbZPgYpYx/2ridP9/Fnzqnq5Ee/mz51X1bOXtlWy/JKe8pyupuOo+/uy51T1bI9/dlzqnq5HLmyrY5JT3jldTcdT9/llzqvq2R7/AGy51X1bOVtlWxyWnvHKqm46t7/bLnVfVsj3/wBjzqvq5HKGyrHJae8nlVTcdQv93VlUo1YRlUzOnUhHNNpZcWkcuDZVs9KdKNPmnlUqyntDZRslsq2ehQhsq2S2VbBJDZ3ncu8WFk//AFbf+nE4Kd53M/6fZ/RaH9NGPGc1M1YTnMzvTYcr7h6bDlfca4Hyi0lX3cPydf4MTY+mQ5fBn2hNPY0+o1AjNp5Tw+gvDSdRP60mt2XqyHQXQzdAxrSvv1r2raZJ2KdSNSKlF3TM7TTswAC5BiaRvI29KpVnwacXJ8rfFFdLeF2nINJX07irOrVeZzeeiK4oroR7Tyk3rjCjRT4cpVZ9UdUU+1t/ungWdDCwtHW6X5HPxU7y1eheYZVslsq2ajKQ2VbJbIbAIbKtktlWyCQ2UYZVgBkMNkNgBso2GyrYJDZVsNlWwSGyrDBAB3ncz/p9n9Fof00cGO87nFvbCzT1NWtvno/w0Y8ZzOPka8JzmUIyCMnwnQdwEZGSCCS9GrvJKXJ48puU861sZocm2sKm+gujK9h1NFVvqlTfTmvX04HhXjkpGUADuGU5bu8ud/e1I8VKFOmu7fvxl4HnGzO05W85c3M+WtVx1KTS8MGvbOvTVoJbjkVHebe8NlWw2Q2XKBsq2GyrZBIbKNktlWAGVbDDYBDZVslso2AQ2VbJbKtgsGyrYbIIAACXe9SS2t8gBk6NsZXNalQhw6s401+yntl1JZfYd8rpU6W9jqioxhFdGzHceR8nu5OVqvSbiOLicd7TpvbRg9rfJN+C1cbR6W+r76WFsj4nE0ri1Cm7PrS7X09yOng6LWb9pGNkjIyQfInVGSMjJUqSSZ+ip65x6E19/wBxrjK0dLFRdOV4Z+40YKeriIdtuOXqVqq8GbkAH1Zzzhdae+lKXOlJ97yfNsvWjvZSjzXJdzwfNs7RxQ2VbDZVsgkNlGyWyjADZDJSbaSTbbSSSbbb2JLjZ0fcruGhTUat5FVKrw40XrhT+fz5dGxdO0pUqKCuz0p03N2R4XRuhbm610KE6kefqjD68sLxN7T8nl7JZcqEOic55/hizp8riEPg8mpJbF0Hxd++KPezk1dLQhK113Js3wwKtnd+Bzd+Te9+Vtfr1vwEfk2vPlbX69b8B0n06XNXiPTpc37Ty+dU+vwZfkK6vE5q/Jre/K2v1634Cr8ml78ra/XrfgOmenS5q8R6dLmrxHzqn1+DHIV1eJzP8md78ra+srf8ZH5M735W19ZW/wCM6Z6fLmrxHp8uZ9pHzqn1/wDLJ5CurxOdW3kwuG/8W5owXLSVSo+5qJ7DQG461sWqii6taOtVa2G4fNWyPXt6TZyv5cSS7zGq1pS4Um/+8hnraai1aN34L7+B6QwSTvb1Mq6vM5jDtfsMEZGTgV6860taf8dhuhFRVkRkgEHgXGSARkrckH2s3ipDrR8Mn0svzkPnIvRf9SH+y8xJZM9CAD7M5ZxPTtLzd1cw5tarjq3za8MGA2ei3f23m76o+KrClVXdvX4xZ5xs68HeKe45FRWk1vZDZVslsoyxUMqwyVFyajFZlJpRXK3qSAPe+TXQKeb2rHOHKFunsytUqnfmK6pdB7i7r/Fi+tkWVtG1oU6ceDRhGC6WljL63r7TDPl9K4uXNi9vl+fudzC0VGPZ5gAHBNgAIyASQQRkrcknJGSMkZK3JsSVyMkFWyQRkEFSwIBGSpIyRkZIyVuSMmRo5Zqw6M+CMXJsdCwzKcuT7X/8NGChr4imt6fDP0KVXqwbNwAD7E5h4Lyo2WY29dLgudGX73wo/ZLvOfNnbdOaOV3b1aD1b+PwZc2a1xl2NI4ncUpU5ThOLjOEnCcXtjJPDR0MLO8NXq8jn4qFp63WfNshhlWaTMGzL0Is3NquJ3FBP68TDbMzQb/zVp9It/54kS2PsLQ5yO4X3AfYa42N/wADuNcfE6S/W7l5s+ho80AEGA9RkjIyVyVJsTkjJBGStyxJGSCMlbkggEFWyUSRkjJGSpIyRkZIyUuWGSMkkFWySDe6Mpbyms7ZfCfb/bBp7Shv5xjxPW+g9KdzQ1C8pVn0ZL19PEyYqeSiAAfQGIHi9225R3Wbi3S9ISSnDUlWS2YfFJbOk9oC0JuDuis4Kasz8/VYShKUZxcJxeJRknGUXyNPYUbO46U0Jb3f5+hCo0sKeuNRLkU44aXaaGr5O7OTypV4LkjODX8UWzbHFQazyMUsLJbGcqbMvQT/AM1Z/SLf+eJ0j8nFp8rc/Xp/gL23k+tadSnUjUruVOpCrFSlT3rlGSks/A2ZRLxNNpoiOHmnfI9Pf8DuNbk2V/wGazJ8hpL9fuXqdujzQRkZIOcewyQRkgq2STkgmCy4rlNn7nw/a7/7HvQwlSum4Wy3lJ1Iw2mqINt7mw/a7/7Ee5sOWff/AGPd6LxG7j+COUQ9o1OSMm39zYcs+/8AsPcyHLPvXsK/KsRu4/gnlFP2jT5K5Nz7lw5Zd69g9yqfLPvXsIeicTu4jlNP2jS5IN17lU+WXevYPcmnyy717CPlGJ/x4/gtymmaUmEXJpJZb2JbWbn3Lp/tPra+5GTRt4wXwYpfeXpaGrN/XJJbs35W97CssVG2WZ8tHWnm46+E+EZgB9DSpRpQUIbEYZScndgAHoQAAAAAAAAAYukOA+tGrybTSH5t9hqsnz2lP1+5epsoc0ZIyMlTmnsSQQCtywTxs2o+vpNT5R958clckxqTjzW12Noaqe0+/pdT5R95HpdT5R958MhJt4Sbb2Ja2x8er+58WNSPUj7emVOe+8j0yp8o+8mVjVSzvO7DfcYzJnPEQ57mu1yRMYwey3gff0yp8o+83ts24QbeW4pt8rwebPSWv5un8yH2I6eh6k51J60m8ltbfTvZnxUUoqy6T7AA+gMQAAAAAAAAAAAAAAAAABi6R/NvsNQbu5p7+Eo8bWo0bPn9LRaqqXQ15P8AKNmHd42GSARk5NzQCMjJGSrZYZIyRkjJVsknJt9EUkoKfxp518mOI0xttEV1vfNvhJtrpT1+06GinBYla3U7duXpc8cSnqZG0NPpmgk4zWpvVLpfEbg0ml7lTahF53uW2tnUdnSrgsNJS6dnb/G3dcy4dP4isYB6S24FP5kPsR52lTc5Ritsv+5PTRjhJLYlhGDQkHec+jJd+fke2LlkkWAB9AYgAAAAAAAAAAAAAAAAAAa6+s99mUVr41ymxB416EK8NSezxT6173PItCTi7o82yuTe3FpCptWvlNfV0XNcF77wPna+jK9N/StZbtvDbwubYV4PbkYOSMl6tGUeFFrpecd58snNleLtJWe80LPYWyQCClyQAfWnbVJcGDfTs8WTCLqO0Vfcs/BBu2byKyuJtYcpNcjeopCLk0kst7EtpsaOiZfHkkuRa/E2VC2jBfBjjl42zq0dF4is71Xqrfm+H32bzPLEQjlHMx9H2Xm1mWub7kZ4B9FRowowUIKyXviYZScndgAHqVAAAAAAAAAAAAAAAAAAAAAAAAB8nSi9sYvsR9QQ1dWYTtsMf0KnzEPQ6a+Iu3WZAPP4FL9i4L7FteXWz5wpKOxJdSPoAeqyVioAAAAAAAAAAAAAAAAAAAAAAAAAAABDKMAvkrvz5sqwD6+cHnD4sgA+3nB5w+AAMjzg84fAsgD7qROTHRdAH2B80XQBIAAAAAAAAAAAP//Z;" vertex="1" parent="1">
          <mxGeometry x="462.43" y="1038" width="95.13" height="104.47" as="geometry" />
        </mxCell>
        <mxCell id="er6lmreJBP6-P8-Qc7R2-20" value="" style="endArrow=classic;html=1;rounded=0;exitX=1;exitY=0.25;exitDx=0;exitDy=0;" edge="1" parent="1" source="er6lmreJBP6-P8-Qc7R2-14">
          <mxGeometry width="50" height="50" relative="1" as="geometry">
            <mxPoint x="327.2399999999998" y="996" as="sourcePoint" />
            <mxPoint x="324" y="966" as="targetPoint" />
            <Array as="points">
              <mxPoint x="288" y="966" />
            </Array>
          </mxGeometry>
        </mxCell>
        <mxCell id="er6lmreJBP6-P8-Qc7R2-21" value="" style="endArrow=classic;html=1;rounded=0;" edge="1" parent="1">
          <mxGeometry width="50" height="50" relative="1" as="geometry">
            <mxPoint x="593.56" y="1089.73" as="sourcePoint" />
            <mxPoint x="557.56" y="1089.73" as="targetPoint" />
          </mxGeometry>
        </mxCell>
        <mxCell id="er6lmreJBP6-P8-Qc7R2-23" value="" style="endArrow=classic;html=1;rounded=0;" edge="1" parent="1">
          <mxGeometry width="50" height="50" relative="1" as="geometry">
            <mxPoint x="169.5" y="1279" as="sourcePoint" />
            <mxPoint x="170" y="1314" as="targetPoint" />
          </mxGeometry>
        </mxCell>
      </root>
    </mxGraphModel>
  </diagram>
</mxfile>
